<svg xmlns="http://www.w3.org/2000/svg" viewBox="0 0 100 100" fill="none">
  <rect width="100" height="100" fill="#2A1F0E"/>
  <!-- Body -->
  <ellipse cx="50" cy="88" rx="26" ry="16" fill="#C8956B"/>
  <!-- Neck -->
  <rect x="44" y="64" width="12" height="14" rx="4" fill="#C8956B"/>
  <!-- Head -->
  <ellipse cx="50" cy="52" rx="20" ry="22" fill="#C8956B"/>
  <!-- Hair -->
  <ellipse cx="50" cy="33" rx="20" ry="10" fill="#1A0F00"/>
  <rect x="30" y="33" width="5" height="18" rx="3" fill="#1A0F00"/>
  <!-- Eyes -->
  <ellipse cx="43" cy="51" rx="3" ry="3.5" fill="#1A0F00"/>
  <ellipse cx="57" cy="51" rx="3" ry="3.5" fill="#1A0F00"/>
  <ellipse cx="43.8" cy="50.2" rx="1" ry="1.2" fill="white" opacity="0.6"/>
  <ellipse cx="57.8" cy="50.2" rx="1" ry="1.2" fill="white" opacity="0.6"/>
  <!-- Eyebrows -->
  <path d="M40 46 Q43 44.5 46 46" stroke="#1A0F00" stroke-width="1.5" stroke-linecap="round"/>
  <path d="M54 46 Q57 44.5 60 46" stroke="#1A0F00" stroke-width="1.5" stroke-linecap="round"/>
  <!-- Nose -->
  <path d="M48 53 Q50 58 52 53" stroke="#A06040" stroke-width="1.2" stroke-linecap="round" fill="none"/>
  <!-- Mouth -->
  <path d="M44 61 Q50 65 56 61" stroke="#8B4A2A" stroke-width="1.5" stroke-linecap="round" fill="none"/>
  <!-- Placeholder label -->
  <text x="50" y="97" text-anchor="middle" font-size="5" fill="#D4A853" font-family="monospace" opacity="0.8">AVATAR</text>
</svg>
