<svg width="1227" height="369" viewBox="0 0 1227 369" fill="none" xmlns="http://www.w3.org/2000/svg">
<g clip-path="url(#clip0_239_1019)">
<path d="M587.273 45.3887C587.273 45.3887 659.163 146.805 642.245 210.878C642.245 210.878 590.276 128.626 519.624 123.675C519.624 123.675 555.706 173.214 562.583 240.107C565.701 270.298 560.681 300.856 546.88 327.929C536.679 347.942 524.002 356.974 500.367 365.342C500.367 365.342 669.846 372.402 688.369 217.916C697.676 140.203 643.46 83.0302 587.273 45.3887Z" fill="white"/>
<path d="M396.016 182.981C402.664 151.322 413.989 129.361 413.989 129.361C340.035 165.81 316.033 228.875 316.033 228.875C284.054 172.894 336.138 63.752 336.138 63.752C287.516 106.964 250.126 165.375 270.025 236.921C315.85 401.563 482.807 364.495 482.807 364.495C479.162 364.907 472.835 361.629 465.591 356.723C409.358 318.463 382.055 249.53 396.039 182.958L396.016 182.981Z" fill="white"/>
<path d="M534.662 209.708C465.615 214.751 447.917 251.017 447.917 251.017C437.441 213.032 486.086 155.492 486.086 155.492C486.086 155.492 421.852 176.147 414.196 253.631C406.539 331.115 497.525 365.432 497.525 365.432C465.363 299.823 534.617 209.708 534.64 209.708H534.662Z" fill="white"/>
<path d="M363.278 132.318C379.188 134.22 393.607 122.896 395.532 106.986C397.435 91.077 386.111 76.6577 370.201 74.732C354.292 72.8293 339.873 84.1539 337.947 100.063C336.044 115.973 347.369 130.392 363.278 132.318Z" fill="white"/>
<path d="M568.634 126.473C583.626 128.284 597.243 117.578 599.031 102.586C600.842 87.5931 590.137 73.9761 575.144 72.188C560.152 70.377 546.535 81.0826 544.747 96.0521C542.936 111.045 553.641 124.662 568.634 126.45V126.473Z" fill="white"/>
<path d="M474.827 187.497C473.52 198.409 481.292 208.289 492.181 209.619C503.092 210.926 512.973 203.154 514.302 192.265C515.609 181.353 507.838 171.473 496.949 170.143C486.037 168.837 476.157 176.608 474.827 187.497Z" fill="white"/>
<path d="M89.4044 361.604C72.4634 361.604 57.2647 358.555 43.7394 352.48C30.237 346.382 19.5543 337.373 11.7372 325.43C3.92004 313.486 0 298.769 0 281.255C0 266.171 2.77383 253.723 8.34441 243.865C13.915 234.008 21.5029 226.122 31.1311 220.208C40.7592 214.293 51.6253 209.8 63.7522 206.728C75.8562 203.656 88.4186 201.433 101.417 200.034C117.074 198.407 129.774 196.94 139.517 195.61C149.259 194.28 156.366 192.194 160.813 189.352C165.283 186.509 167.507 182.085 167.507 176.056V175.001C167.507 161.888 163.633 151.756 155.862 144.558C148.09 137.36 136.903 133.783 122.301 133.783C106.873 133.783 94.677 137.153 85.6907 143.87C81.3351 147.125 77.6901 150.656 74.71 154.484C68.5892 162.347 58.8235 166.473 48.9432 165.075L47.7511 164.914C25.7439 161.797 15.9552 134.93 31.3832 118.906C31.4979 118.791 31.5896 118.676 31.7042 118.585C42.3639 107.627 55.4078 99.3971 70.8358 93.8953C86.2638 88.3935 103.296 85.6426 121.98 85.6426C134.84 85.6426 147.655 87.1556 160.424 90.1586C173.169 93.1846 184.838 98.1363 195.383 105.036C205.928 111.937 214.433 121.29 220.875 133.119C227.316 144.947 230.526 159.734 230.526 177.477V356.286H206.708C186.443 356.286 170.006 339.849 170.006 319.584H167.92C164.091 327.011 158.727 333.935 151.827 340.376C144.927 346.818 136.284 351.976 125.9 355.85C115.515 359.724 103.388 361.673 89.4732 361.673L89.4044 361.604ZM105.749 315.343C118.381 315.343 129.338 312.821 138.623 307.778C147.907 302.735 155.059 296.041 160.103 287.696C165.146 279.352 167.668 270.251 167.668 260.394V228.919C165.696 230.546 162.372 232.059 157.673 233.435C152.973 234.833 147.724 236.048 141.924 237.08C136.124 238.111 130.393 239.051 124.708 239.854C119.022 240.656 114.094 241.367 109.922 241.94C100.523 243.224 92.1094 245.31 84.7049 248.198C77.2775 251.087 71.4318 255.121 67.145 260.279C62.8582 265.437 60.7033 272.085 60.7033 280.2C60.7033 291.8 64.9443 300.557 73.4033 306.471C81.8623 312.386 92.6596 315.343 105.749 315.343Z" fill="white"/>
<path d="M849.091 361.422C822.407 361.422 799.552 355.576 780.479 343.862C761.406 332.147 746.734 315.94 736.464 295.24C726.194 274.539 721.082 250.698 721.082 223.67C721.082 196.643 726.309 172.572 736.739 151.757C747.17 130.942 761.933 114.711 781.006 103.066C800.079 91.4204 822.659 85.5977 848.747 85.5977C870.433 85.5977 889.644 89.5635 906.401 97.5182C923.159 105.473 936.524 116.66 946.496 131.079C946.587 131.217 946.702 131.377 946.794 131.515C961.305 152.766 945.487 181.604 919.766 181.604H903.375C900.945 168.744 895.168 157.969 886.068 149.35C876.967 140.707 864.817 136.398 849.641 136.398C836.78 136.398 825.456 139.859 815.713 146.737C805.97 153.637 798.405 163.517 793.018 176.4C787.631 189.261 784.926 204.689 784.926 222.661C784.926 240.634 787.585 256.498 792.926 269.541C798.268 282.585 805.764 292.626 815.438 299.641C825.112 306.656 836.505 310.163 849.618 310.163C858.902 310.163 867.201 308.398 874.582 304.868C881.941 301.337 888.131 296.202 893.105 289.486C898.08 282.769 901.518 274.585 903.375 264.957H919.697C945.235 264.957 961.121 293.337 947.161 314.702C947.069 314.84 946.977 315 946.862 315.138C937.234 329.695 924.145 341.042 907.547 349.226C890.973 357.41 871.488 361.49 849.114 361.49L849.091 361.422Z" fill="white"/>
<path d="M1053.53 199.668V293.244C1053.53 328.021 1025.33 356.217 990.555 356.217V30.7853C990.555 13.7755 1004.33 -0.00195312 1021.34 -0.00195312C1038.35 -0.00195312 1052.13 13.7755 1052.13 30.7853V134.449H1055.27C1061.53 119.364 1071.25 107.467 1084.41 98.7097C1097.56 89.9526 1114.35 85.5741 1134.75 85.5741C1153.29 85.5741 1169.48 89.4712 1183.28 97.2196C1197.08 104.991 1207.78 116.361 1215.37 131.308C1222.96 146.277 1226.77 164.525 1226.77 186.097V324.719C1226.77 342.096 1212.67 356.194 1195.29 356.194C1177.91 356.194 1163.82 342.096 1163.82 324.719V195.84C1163.82 177.867 1159.21 163.86 1149.99 153.842C1140.78 143.825 1127.87 138.804 1111.3 138.804C1100.16 138.804 1090.23 141.211 1081.47 146.025C1072.72 150.839 1065.88 157.762 1060.95 166.817C1056.03 175.873 1053.57 186.83 1053.57 199.691L1053.53 199.668Z" fill="white"/>
</g>
<defs>
<clipPath id="clip0_239_1019">
<rect width="1226.77" height="368.094" fill="white"/>
</clipPath>
</defs>
</svg>
