<svg width="1599" height="313" viewBox="0 0 1599 313" fill="none" xmlns="http://www.w3.org/2000/svg">
<path d="M130.192 129.526C158.962 129.526 174.677 145.233 174.677 173.989V265.876C174.677 294.632 158.962 310.339 130.192 310.339H44.4852C15.7149 310.339 0 294.632 0 265.876V82.1023C0 77.652 1.18873 74.3898 4.45259 71.1276L39.4484 36.149C45.0897 30.5105 50.4287 32.5846 50.4287 40.5992V243.946H124.268V195.919H69.9917C64.3505 195.919 61.0866 192.657 61.0866 187.018V167.444C61.0866 143.139 74.7263 129.506 98.7419 129.506H130.172L130.192 129.526Z" fill="white"/>
<path d="M381.972 243.946C387.614 243.946 390.878 247.208 390.878 252.847V274.494C390.878 298.8 377.238 312.433 353.222 312.433C329.207 312.433 315.567 298.8 315.567 274.494V218.472L258.631 231.521V243.966H296.588C302.229 243.966 305.493 247.228 305.493 252.867V274.514C305.493 298.82 291.854 312.453 267.838 312.453H250.33C221.56 312.453 205.845 296.746 205.845 267.99V254.941C205.845 238.348 216.825 226.185 236.086 221.734L315.567 203.651V195.938H220.371C214.73 195.938 211.466 192.676 211.466 187.038V138.426C211.466 132.788 214.73 129.525 220.371 129.525H321.51C350.281 129.525 365.996 145.232 365.996 173.989V243.946H382.013H381.972Z" fill="white"/>
<path d="M563.178 243.947C568.819 243.947 572.083 247.209 572.083 252.848V272.421C572.083 296.727 558.443 310.36 534.428 310.36H450.192C421.422 310.36 408.668 297.613 408.668 274.798V252.868C408.668 227.072 419.649 219.661 437.439 217.305L516.617 206.633V195.96H421.422C415.78 195.96 412.516 192.698 412.516 187.059V138.448C412.516 132.809 415.78 129.547 421.422 129.547H525.523C554.293 129.547 567.046 141.106 567.046 163.941V187.945C567.046 213.741 554.877 219.964 539.767 222.038L459.097 233.013V243.987H563.198L563.178 243.947Z" fill="white"/>
<path d="M847.878 243.946C853.519 243.946 856.783 247.208 856.783 252.847V274.494C856.783 298.8 843.144 312.433 819.128 312.433C795.112 312.433 781.473 298.8 781.473 274.494V195.938H740.554V301.458C740.554 307.097 737.29 310.359 731.648 310.359H699.03C693.389 310.359 690.125 307.097 690.125 301.458V195.938H649.206V301.458C649.206 307.097 645.942 310.359 640.301 310.359H607.682C602.041 310.359 598.777 307.097 598.777 301.458V173.989C598.777 145.232 614.492 129.525 643.262 129.525H675.881C696.935 129.525 710.574 140.198 714.14 159.168H716.518C720.084 140.198 733.724 129.525 754.778 129.525H787.396C816.166 129.525 831.881 145.232 831.881 173.989V243.946H847.898H847.878Z" fill="white"/>
<path d="M1054.59 243.946C1060.23 243.946 1063.49 247.208 1063.49 252.847V274.494C1063.49 298.8 1049.55 312.433 1024.04 312.433C1003.58 312.433 991.728 304.438 979.559 285.167L953.751 244.268H927.942V301.176C927.942 306.211 923.792 310.359 918.755 310.359H886.721C881.684 310.359 877.534 306.211 877.534 301.176V82.1219C877.534 77.6716 878.722 74.4094 881.986 71.1472L916.982 36.1685C922.623 30.53 927.962 32.6042 927.962 40.6189V179.647H957.317L989.935 134.882C992.595 131.036 996.161 129.546 1000.92 129.546H1040.95C1048.36 129.546 1050.74 134.58 1046.59 140.52L1005.37 197.147C1000.63 203.671 993.199 208.705 987.578 209.31V211.686C991.144 211.988 998.558 215.532 1002.1 221.473L1015.44 244.006H1054.59V243.946Z" fill="white"/>
<path d="M1255.38 243.946C1261.02 243.946 1264.28 247.208 1264.28 252.847V274.494C1264.28 298.8 1250.64 312.433 1226.63 312.433C1202.61 312.433 1188.97 298.8 1188.97 274.494V218.472L1132.04 231.521V243.966H1169.99C1175.64 243.966 1178.9 247.228 1178.9 252.867V274.514C1178.9 298.82 1165.26 312.453 1141.24 312.453H1123.74C1094.97 312.453 1079.25 296.746 1079.25 267.99V254.941C1079.25 238.348 1090.23 226.185 1109.49 221.734L1188.97 203.651V195.938H1093.78C1088.14 195.938 1084.87 192.676 1084.87 187.038V138.426C1084.87 132.788 1088.14 129.525 1093.78 129.525H1194.92C1223.69 129.525 1239.4 145.232 1239.4 173.989V243.946H1255.42H1255.38Z" fill="white"/>
<path d="M1456.73 243.946C1462.37 243.946 1465.63 247.208 1465.63 252.847V274.494C1465.63 298.8 1451.99 312.433 1427.98 312.433C1403.96 312.433 1390.32 298.8 1390.32 274.494V218.472L1333.39 231.521V243.966H1371.35C1376.99 243.966 1380.25 247.228 1380.25 252.867V274.514C1380.25 298.82 1366.61 312.453 1342.6 312.453H1325.09C1296.32 312.453 1280.6 296.746 1280.6 267.99V254.941C1280.6 238.348 1291.58 226.185 1310.84 221.734L1390.32 203.651V195.938H1295.13C1289.49 195.938 1286.22 192.676 1286.22 187.038V138.426C1286.22 132.788 1289.49 129.525 1295.13 129.525H1396.27C1425.04 129.525 1440.75 145.232 1440.75 173.989V243.946H1456.77H1456.73Z" fill="white"/>
<path d="M1495.29 310.339C1489.65 310.339 1486.39 307.077 1486.39 301.439V173.969C1486.39 145.213 1502.1 129.506 1530.87 129.506H1589.88C1595.52 129.506 1598.79 132.768 1598.79 138.407V187.018C1598.79 192.657 1595.52 195.919 1589.88 195.919H1536.79V301.439C1536.79 307.077 1533.53 310.339 1527.89 310.339H1495.27H1495.29Z" fill="white"/>
<path d="M1216.26 46.0157L1165.76 0.89909C1165.2 0.402523 1164.35 0.450356 1163.85 1.00593L1118.71 51.4839C1118.22 52.0395 1118.26 52.8923 1118.82 53.3889L1169.32 98.5056C1169.88 99.0021 1170.73 98.9543 1171.23 98.3987L1216.37 47.9208C1216.86 47.3652 1216.82 46.5123 1216.26 46.0157Z" fill="white"/>
<path d="M1403.07 57.3614L1352.57 12.2447C1352.01 11.7481 1351.16 11.7962 1350.66 12.3517L1305.52 62.8297C1305.03 63.3853 1305.07 64.238 1305.63 64.7346L1356.13 109.851C1356.69 110.348 1357.54 110.3 1358.04 109.745L1403.18 59.2666C1403.67 58.711 1403.63 57.8579 1403.07 57.3614Z" fill="white"/>
<path d="M697.756 46.0178L647.253 0.901125C646.697 0.404558 645.844 0.452309 645.347 1.00788L600.208 51.4858C599.711 52.0414 599.759 52.8944 600.315 53.3909L650.818 98.5076C651.374 99.0042 652.227 98.9563 652.724 98.4008L697.863 47.9228C698.36 47.3672 698.312 46.5143 697.756 46.0178Z" fill="white"/>
<path d="M830.213 46.0177L779.71 0.901043C779.154 0.404477 778.301 0.452309 777.804 1.00788L732.665 51.4858C732.168 52.0414 732.216 52.8943 732.772 53.3909L783.275 98.5075C783.83 99.0041 784.684 98.9562 785.181 98.4007L830.319 47.9227C830.816 47.3671 830.768 46.5143 830.213 46.0177Z" fill="white"/>
</svg>
