<svg width="1127" height="763" viewBox="0 0 1127 763" fill="none" xmlns="http://www.w3.org/2000/svg">
<g style="mix-blend-mode:multiply">
<path d="M215.389 469.376H253.44C247.522 460.081 242.657 451.912 238.917 445.413C429.28 393.057 575.202 401.117 672.907 469.376H724.101C714.697 460.59 704.495 452.13 693.239 444.106C613.18 387.32 504.764 367.786 369.807 385.432L363.163 365.862C372.531 363.175 379.211 354.389 378.739 344.223C378.195 332.35 368.137 323.164 356.265 323.709C344.392 324.253 335.206 334.31 335.751 346.183C336.223 356.349 343.666 364.519 353.215 366.334L347.877 388.627C336.477 390.406 324.858 392.476 313.094 394.763L304.344 373.923C313.494 370.582 319.521 361.324 318.359 351.23C316.979 339.43 306.305 330.97 294.505 332.35C282.705 333.73 274.245 344.404 275.624 356.204C276.786 366.298 284.81 373.923 294.468 375.048L290.402 399.411C280.562 401.553 270.541 403.913 260.448 406.418L245.852 385.432C254.094 380.276 258.051 369.965 254.82 360.343C251.008 349.088 238.808 343.061 227.553 346.873C216.297 350.685 210.27 362.885 214.082 374.14C217.35 383.762 226.754 389.535 236.448 388.627L237.537 412.336C228.606 414.733 219.638 417.202 210.561 419.852L192.152 425.226L200.576 442.472C201.048 443.416 205.986 453.473 215.389 469.376Z" fill="white"/>
<path d="M821.319 673.682H788.314C789.404 679.273 790.202 684.066 790.747 687.914C694.059 734.171 600.348 742.631 512.01 712.967C482.637 703.127 455.443 689.512 430.426 673.682H374.258C410.638 701.893 453.191 727.272 501.517 743.538C527.224 752.18 553.293 757.916 579.725 760.676C655.935 768.736 734.869 752.397 815.328 711.841L824.768 707.085L824.223 696.556C824.15 695.212 823.606 686.789 821.391 673.682H821.319Z" fill="white"/>
<path d="M508.874 296.54C543.875 324.497 584.176 342.433 623.171 359.752C650.983 372.133 679.739 384.914 705.409 400.998C737.287 420.968 764.482 444.205 786.085 469.366H827.259C801.48 433.458 765.825 400.708 722.583 373.622C694.952 356.303 665.143 343.051 636.315 330.234C597.465 312.951 560.794 296.649 529.061 271.27C498.635 246.98 476.632 213.649 468.644 179.81C462.581 154.249 461.601 115.944 491.083 78.8009C509.128 56.072 535.27 40.9679 566.712 35.086C596.739 29.4583 628.654 32.9801 656.575 44.9981C671.316 51.352 683.515 60.6469 691.467 71.5393C691.503 71.6119 691.539 71.6482 691.612 71.7208C692.737 73.2457 693.754 74.8433 694.698 76.4408L694.916 76.3319C696.187 78.2926 697.385 80.3258 698.474 82.3954C704.538 94.3044 707.006 107.666 705.59 121.027C703.122 144.518 687.001 164.27 663.546 172.584C640.018 180.935 614.929 175.671 598.119 158.86C591.039 151.78 585.157 140.851 587.952 132.355C589.441 127.853 593.762 123.387 599.535 120.482C606.724 116.815 615.583 115.436 622.518 114.673L618.887 82.5406C609.265 83.6298 596.703 85.6631 584.866 91.6539C571.323 98.5524 561.52 109.409 557.272 122.189C549.648 145.208 561.557 168.01 575.281 181.698C590.603 196.983 610.246 206.06 631.086 208.275C645.247 209.764 659.988 208.094 674.329 203.011C709.621 190.521 733.947 160.385 737.723 124.404C739.793 104.797 736.162 85.1911 727.266 67.6906C724.761 62.789 721.748 58.1779 718.48 53.7483C717.863 52.8769 717.209 52.0782 716.592 51.2068C715.902 50.3354 715.321 49.3914 714.595 48.52H714.522C703.303 34.7229 687.981 23.3222 669.391 15.2981C596.34 -16.1446 510.725 2.11832 465.812 58.7225C436.512 95.6478 426.346 141.287 437.238 187.253C447.005 228.571 472.457 267.385 508.946 296.504L508.874 296.54Z" fill="white"/>
<path d="M852.928 673.682C852.928 686.753 852.129 699.823 850.277 712.785L882.265 717.36C884.334 702.873 885.278 688.277 885.278 673.682H852.928Z" fill="white"/>
<path d="M16.4175 584.244H0.732422V655.553H16.4175V584.244Z" fill="white"/>
<path d="M89.3823 594.448C86.0057 591.252 82.0118 588.747 77.3644 586.968C72.717 585.189 67.5975 584.281 62.0424 584.281H34.2305V655.59H62.0424C67.5975 655.59 72.717 654.682 77.3644 652.831C82.0118 650.979 86.0057 648.474 89.3823 645.279C92.759 642.084 95.3369 638.308 97.1886 633.987C99.004 629.63 99.948 624.946 99.948 619.936V619.718C99.948 614.707 99.0403 610.024 97.1886 605.703C95.3369 601.382 92.759 597.643 89.3823 594.448ZM83.5004 620.081C83.5004 623.276 82.9558 626.144 81.9392 628.722C80.8863 631.3 79.4339 633.551 77.5459 635.439C75.6942 637.327 73.4068 638.816 70.7563 639.833C68.1058 640.849 65.2012 641.357 62.0061 641.357H49.8792V598.369H62.0061C65.2012 598.369 68.1058 598.913 70.7563 599.93C73.4068 600.983 75.6579 602.472 77.5459 604.36C79.3976 606.248 80.8863 608.535 81.9392 611.185C82.9921 613.836 83.5004 616.704 83.5004 619.827V620.045V620.081Z" fill="white"/>
<path d="M970.616 641.574H129.359V626.616H970.616V612.673H129.359V598.186H970.616V584.244H113.855V655.553H970.616V641.574Z" fill="white"/>
<path d="M1016.36 583.738L985.789 655.556H1001.76L1008.3 639.58H1038.44L1044.97 655.556H1061.38L1030.81 583.738H1016.36ZM1013.93 625.71L1023.4 602.582L1032.88 625.71H1013.93Z" fill="white"/>
<path d="M1118.08 620.337C1116.15 618.667 1113.76 617.251 1110.93 616.053C1108.09 614.855 1104.9 613.802 1101.27 612.858C1098.22 612.059 1095.68 611.333 1093.64 610.716C1091.65 610.098 1090.05 609.445 1088.89 608.791C1087.73 608.101 1086.93 607.339 1086.49 606.504C1086.05 605.669 1085.84 604.652 1085.84 603.49V603.272C1085.84 601.493 1086.6 600.041 1088.12 598.843C1089.65 597.645 1091.94 597.064 1094.99 597.064C1098.04 597.064 1101.09 597.681 1104.14 598.952C1107.19 600.223 1110.31 601.929 1113.5 604.108L1121.64 592.307C1117.97 589.403 1113.94 587.152 1109.58 585.59C1105.19 584.029 1100.4 583.23 1095.17 583.23C1091.5 583.23 1088.16 583.739 1085.11 584.755C1082.06 585.772 1079.45 587.224 1077.27 589.149C1075.09 591.037 1073.38 593.324 1072.15 595.938C1070.95 598.552 1070.33 601.493 1070.33 604.761V604.979C1070.33 608.501 1070.88 611.478 1072 613.838C1073.13 616.198 1074.73 618.195 1076.76 619.793C1078.79 621.39 1081.3 622.734 1084.2 623.823C1087.14 624.912 1090.41 625.892 1094.01 626.764C1096.98 627.526 1099.45 628.216 1101.3 628.906C1103.19 629.596 1104.64 630.249 1105.7 630.939C1106.75 631.629 1107.48 632.355 1107.84 633.118C1108.2 633.88 1108.38 634.788 1108.38 635.804V636.022C1108.38 638.128 1107.48 639.762 1105.7 640.96C1103.88 642.158 1101.38 642.739 1098.11 642.739C1094.04 642.739 1090.27 641.977 1086.85 640.379C1083.44 638.818 1080.06 636.712 1076.83 634.062L1067.57 645.172C1071.86 649.057 1076.61 651.925 1081.84 653.777C1087.07 655.629 1092.41 656.573 1097.82 656.573C1101.7 656.573 1105.23 656.064 1108.38 655.084C1111.58 654.104 1114.3 652.688 1116.59 650.8C1118.88 648.948 1120.66 646.624 1121.96 643.865C1123.23 641.105 1123.89 637.983 1123.89 634.461V634.243C1123.89 631.121 1123.38 628.434 1122.4 626.183C1121.42 623.932 1119.97 622.007 1118.01 620.337H1118.08Z" fill="white"/>
<path d="M53.2275 552.127C55.5513 550.493 57.3667 548.46 58.6011 546.027C59.8719 543.595 60.4892 540.726 60.4892 537.458V537.241C60.4892 532.484 59.291 528.781 56.931 526.094C54.5709 523.407 51.3032 521.301 47.2004 519.74C48.4712 519.05 49.6694 518.252 50.7949 517.308C51.9205 516.364 52.9008 515.238 53.7359 514.003C54.5709 512.733 55.2608 511.353 55.7691 509.792C56.2774 508.23 56.5316 506.415 56.5316 504.382V504.164C56.5316 498.536 54.462 494.034 50.2866 490.73C46.1112 487.39 40.3745 485.756 33.0403 485.756H0V557.065H33.8754C37.8693 557.065 41.5364 556.665 44.8041 555.83C48.1081 555.032 50.9038 553.797 53.2275 552.163V552.127ZM15.2857 499.444H30.7529C34.0932 499.444 36.6348 500.061 38.3776 501.332C40.1567 502.603 41.0281 504.418 41.0281 506.778V506.996C41.0281 509.647 40.0114 511.571 37.9782 512.733C35.9449 513.931 33.1855 514.512 29.7363 514.512H15.2857V499.444ZM42.081 541.38C40.1204 542.651 37.3973 543.268 33.948 543.268H15.322V527.583H33.4397C37.5062 527.583 40.4834 528.273 42.2988 529.689C44.1142 531.068 45.0582 532.956 45.0582 535.353V535.57C45.0582 538.221 44.0779 540.182 42.1173 541.416L42.081 541.38Z" fill="white"/>
<path d="M89.2085 528.371H118.146V556.982H133.831V485.709H118.146V513.92H89.2085V485.709H73.5234V556.982H89.2085V528.371Z" fill="white"/>
<path d="M167.351 540.996H197.486L204.022 556.972H220.433L189.862 485.154H175.411L144.84 556.972H160.815L167.351 540.996ZM182.419 504.035L191.895 527.163H172.942L182.419 504.035Z" fill="white"/>
<path d="M238.678 547.827C241.982 551.095 245.903 553.636 250.478 555.452C255.053 557.303 260.136 558.211 265.691 558.211C272.226 558.211 277.999 557.122 283.046 554.907C288.093 552.692 292.45 550.042 296.117 546.919V515.949H265.146V529.491H280.94V539.767C276.946 542.635 272.009 544.087 266.163 544.087C262.968 544.087 260.063 543.543 257.449 542.417C254.835 541.292 252.547 539.694 250.623 537.661C248.699 535.628 247.21 533.231 246.157 530.472C245.104 527.712 244.596 524.699 244.596 521.431V521.213C244.596 518.163 245.104 515.259 246.157 512.572C247.21 509.885 248.662 507.525 250.55 505.528C252.402 503.531 254.581 501.934 257.086 500.736C259.555 499.537 262.242 498.956 265.074 498.956C267.107 498.956 268.995 499.138 270.665 499.465C272.335 499.792 273.933 500.264 275.385 500.881C276.837 501.498 278.254 502.224 279.597 503.132C280.94 504.003 282.32 505.02 283.663 506.182L293.539 494.273C291.687 492.711 289.799 491.332 287.839 490.097C285.878 488.863 283.772 487.846 281.521 487.047C279.27 486.249 276.837 485.595 274.223 485.159C271.609 484.724 268.704 484.506 265.509 484.506C260.063 484.506 255.089 485.486 250.55 487.411C246.012 489.335 242.054 491.985 238.75 495.362C235.41 498.739 232.832 502.624 230.944 507.089C229.092 511.519 228.148 516.312 228.148 521.395V521.613C228.148 526.914 229.056 531.815 230.908 536.281C232.76 540.747 235.301 544.632 238.605 547.9L238.678 547.827Z" fill="white"/>
<path d="M331.316 556.982H347.001V528.589L374.413 485.709H356.586L339.267 514.32L322.275 485.709H303.939L331.316 528.879V556.982Z" fill="white"/>
<path d="M400.587 540.996H430.723L437.258 556.972H453.669L423.098 485.154H408.648L378.076 556.972H394.052L400.587 540.996ZM415.655 504.035L425.131 527.163H406.179L415.655 504.035Z" fill="white"/>
<path d="M480.123 510.761L499.983 540.897H500.383L520.461 510.435V556.982H535.928V485.709H519.009L500.274 515.845L481.539 485.709H464.619V556.982H480.123V510.761Z" fill="white"/>
<path d="M599.995 540.996H630.131L636.666 556.972H653.078L622.506 485.154H608.056L577.484 556.972H593.46L599.995 540.996ZM615.099 504.035L624.576 527.163H605.623L615.099 504.035Z" fill="white"/>
<path d="M679.762 534.181H692.07L707.356 556.983H725.691L708.263 531.531C712.802 529.824 716.505 527.174 719.301 523.543C722.133 519.912 723.513 515.192 723.513 509.419V509.201C723.513 501.795 721.153 496.022 716.433 491.883C711.713 487.743 705.105 485.674 696.608 485.674H664.004V556.983H679.689V534.181H679.762ZM679.762 499.87H695.338C699.223 499.87 702.236 500.705 704.415 502.412C706.593 504.118 707.682 506.66 707.682 510.037V510.254C707.682 513.304 706.63 515.773 704.56 517.589C702.49 519.404 699.513 520.348 695.665 520.348H679.762V499.87Z" fill="white"/>
<path d="M754.293 556.982H769.978V500.16H791.69V485.709H732.617V500.16H754.293V556.982Z" fill="white"/>
<path d="M837.053 542.378C835.238 543.576 832.732 544.157 829.465 544.157C825.398 544.157 821.622 543.395 818.209 541.797C814.796 540.236 811.42 538.13 808.188 535.48L798.93 546.59C803.214 550.475 807.97 553.343 813.199 555.195C818.427 557.047 823.764 557.991 829.174 557.991C833.059 557.991 836.581 557.482 839.74 556.502C842.935 555.522 845.658 554.106 847.946 552.218C850.233 550.366 852.012 548.042 853.319 545.283C854.59 542.523 855.243 539.401 855.243 535.879V535.661C855.243 532.539 854.735 529.852 853.755 527.601C852.775 525.35 851.322 523.425 849.362 521.755C847.437 520.085 845.041 518.669 842.209 517.471C839.377 516.273 836.182 515.22 832.551 514.276C829.501 513.477 826.959 512.751 824.926 512.134C822.929 511.516 821.332 510.863 820.17 510.209C819.008 509.519 818.209 508.757 817.774 507.922C817.338 507.087 817.12 506.07 817.12 504.908V504.69C817.12 502.911 817.882 501.459 819.407 500.261C820.932 499.063 823.22 498.482 826.27 498.482C829.32 498.482 832.369 499.099 835.419 500.37C838.469 501.641 841.592 503.347 844.787 505.526L852.92 493.725C849.253 490.821 845.222 488.57 840.865 487.008C836.472 485.447 831.68 484.648 826.451 484.648C822.784 484.648 819.444 485.157 816.394 486.173C813.344 487.19 810.73 488.642 808.551 490.567C806.373 492.455 804.666 494.742 803.432 497.356C802.234 499.97 801.617 502.911 801.617 506.179V506.397C801.617 509.919 802.161 512.896 803.287 515.256C804.412 517.616 806.01 519.613 808.043 521.211C810.076 522.808 812.582 524.152 815.486 525.241C818.427 526.33 821.695 527.31 825.289 528.182C828.267 528.944 830.736 529.634 832.587 530.324C834.475 531.014 835.928 531.667 836.981 532.357C838.033 533.047 838.76 533.773 839.123 534.536C839.486 535.298 839.667 536.206 839.667 537.222V537.44C839.667 539.546 838.76 541.18 836.981 542.378H837.053Z" fill="white"/>
<path d="M915.843 540.996H945.979L952.514 556.972H968.925L938.354 485.154H923.903L893.332 556.972H909.308L915.843 540.996ZM930.911 504.035L940.387 527.163H921.434L930.911 504.035Z" fill="white"/>
<path d="M995.379 511.669L1029.91 556.982H1043.27V485.709H1027.77V529.605L994.363 485.709H979.912V556.982H995.379V511.669Z" fill="white"/>
<path d="M1123.32 507.131C1121.47 502.81 1118.89 499.07 1115.52 495.875C1112.14 492.68 1108.14 490.175 1103.5 488.396C1098.85 486.617 1093.73 485.709 1088.18 485.709H1060.36V557.018H1088.18C1093.73 557.018 1098.85 556.11 1103.5 554.258C1108.14 552.407 1112.14 549.902 1115.52 546.706C1118.89 543.511 1121.47 539.735 1123.32 535.415C1125.14 531.058 1126.08 526.374 1126.08 521.363V521.146C1126.08 516.135 1125.17 511.451 1123.32 507.131ZM1109.71 521.545C1109.71 524.74 1109.16 527.608 1108.14 530.186C1107.09 532.764 1105.64 535.015 1103.75 536.903C1101.9 538.791 1099.61 540.28 1096.96 541.297C1094.31 542.313 1091.41 542.821 1088.21 542.821H1076.08V499.833H1088.21C1091.41 499.833 1094.31 500.377 1096.96 501.394C1099.61 502.447 1101.86 503.936 1103.75 505.824C1105.6 507.712 1107.09 509.999 1108.14 512.65C1109.2 515.3 1109.71 518.168 1109.71 521.291V521.509V521.545Z" fill="white"/>
</g>
</svg>
