<svg width="90" height="103" viewBox="0 0 90 103" fill="none" xmlns="http://www.w3.org/2000/svg">
<g clip-path="url(#clip0_116_5)">
<path d="M55.2419 12.2662C43.9799 8.71791 31.832 11.0234 22.7392 18.4082C17.9488 22.2988 14.2068 27.6122 12.1099 33.466C11.9653 33.5561 11.8749 33.7362 11.893 33.9163C11.893 33.9523 11.893 33.9884 11.9291 34.0244C11.8568 34.2405 11.7845 34.4387 11.7122 34.6548C9.47062 41.7334 9.75985 49.0282 12.5076 55.8006C14.8757 61.6184 17.768 67.0759 21.0942 71.9931C24.4204 76.9103 27.8912 81.8636 31.2355 86.6547C33.0251 89.1943 34.8509 91.8241 36.6586 94.4358C37.7433 95.9848 38.7556 97.5338 39.8583 99.1728C40.3464 99.9293 40.8525 100.668 41.3587 101.442L42.0637 102.505L42.841 101.496C42.9856 101.298 43.1483 101.1 43.2749 100.902C43.5641 100.506 43.8352 100.145 44.1245 99.8032C46.131 97.3537 48.1376 94.9041 50.1442 92.4364C53.2896 88.5819 56.4531 84.7274 59.5804 80.8729C64.7143 74.5688 70.5713 67.166 75.2352 59.0247C79.5556 51.4598 80.5499 43.8768 78.2902 35.8436C75.1087 24.6223 66.4859 15.8145 55.2419 12.2842V12.2662ZM23.8962 19.8131C29.8436 14.986 37.1829 12.4463 44.6668 12.4463C48.0111 12.4463 51.4096 12.9507 54.6996 13.9953C64.3889 17.0393 71.9994 24.208 75.5787 33.466C74.5302 32.7996 73.554 32.1332 72.6863 31.5388C67.1186 27.6662 63.8828 24.5502 63.8466 24.5142C63.8466 24.5142 63.8466 24.5142 63.8285 24.4962C63.8285 24.4962 63.8105 24.4782 63.7924 24.4602C63.7924 24.4602 63.7743 24.4602 63.7562 24.4421C63.7562 24.4421 63.7381 24.4421 63.7201 24.4241H63.6839H63.6478C63.6478 24.4241 63.6116 24.4241 63.5935 24.4241C63.5935 24.4241 63.5754 24.4241 63.5574 24.4241C63.5574 24.4241 63.5212 24.4241 63.5031 24.4241H63.467C63.467 24.4241 63.4308 24.4241 63.4128 24.4241C63.4128 24.4241 63.3947 24.4241 63.3766 24.4241C63.3766 24.4241 63.3404 24.4241 63.3224 24.4421C63.3224 24.4421 63.3043 24.4421 63.2862 24.4421C63.2862 24.4421 63.2501 24.4602 63.2501 24.4782C63.2501 24.4782 63.232 24.4782 63.232 24.4962C61.605 26.0812 60.0685 27.4501 58.6223 28.6389C49.7284 25.9731 40.0752 16.4269 39.9667 16.3369C39.9667 16.3369 39.9306 16.3008 39.9125 16.3008C39.9125 16.3008 39.9125 16.3008 39.8944 16.3008C39.8944 16.3008 39.8583 16.3008 39.8583 16.2828C39.786 16.2468 39.7137 16.2288 39.6413 16.2288C39.6052 16.2288 39.5871 16.2288 39.551 16.2288C39.5329 16.2288 39.4967 16.2288 39.4787 16.2468C39.4787 16.2468 39.4606 16.2468 39.4425 16.2468C39.4425 16.2468 39.4063 16.2468 39.3883 16.2828C39.3883 16.2828 39.3883 16.2828 39.3521 16.3008C39.3521 16.3008 39.316 16.3189 39.316 16.3369C32.0309 24.3521 25.0712 28.5668 20.5338 30.6922C17.8765 31.935 15.7073 32.6195 14.2792 32.9797C16.3219 27.8644 19.7023 23.2354 23.9504 19.7951L23.8962 19.8131ZM13.4476 35.1952C13.5742 34.7989 13.7007 34.4206 13.8453 34.0244C13.8453 34.0244 13.8634 34.0244 13.8815 34.0244H23.2454C23.4985 34.0244 23.6973 33.8263 23.6973 33.5741C23.6973 33.3219 23.4985 33.1238 23.2454 33.1238H17.0088C18.1296 32.7275 19.4131 32.2232 20.8412 31.5568C21.51 31.2506 22.215 30.8903 22.9743 30.4941H26.8247C27.0778 30.4941 27.2766 30.296 27.2766 30.0438C27.2766 29.7916 27.0778 29.5935 26.8247 29.5935H24.6373C26.4089 28.5668 28.3612 27.306 30.4582 25.739H33.2782C33.5313 25.739 33.7301 25.5409 33.7301 25.2887C33.7301 25.0365 33.5313 24.8204 33.2782 24.8204H31.6332C33.9109 23.0192 36.2971 20.8758 38.7556 18.3001C37.9963 20.8578 36.0982 25.6309 32.1213 27.7203C30.8016 28.4227 30.1689 29.0171 30.0424 29.6655C29.9159 30.296 30.3316 30.7643 30.657 31.1425C30.9463 31.4847 31.127 31.7009 31.0728 31.899C30.9643 32.3313 30.0786 33.1418 26.4812 34.5647C19.0334 37.5187 14.5322 38.2752 12.6341 38.4733C12.8511 37.3746 13.1222 36.2939 13.4657 35.1952H13.4476ZM44.6849 84.5113C43.2748 84.6374 41.7021 83.6287 41.5937 82.476C42.5698 82.7641 43.5099 83.1604 44.5222 83.0523C45.4803 82.9623 46.4383 82.7101 47.3964 82.53C47.4687 83.2505 45.9503 84.3852 44.7029 84.5113H44.6849ZM41.2141 80.2425C41.4129 80.945 41.7383 81.1431 42.4795 81.0891C42.7506 81.071 43.0398 81.035 43.311 81.071C43.4556 81.0891 43.6545 81.2151 43.7268 81.3592C43.8895 81.6474 43.8533 81.9716 43.6906 82.2418C43.6183 82.3679 43.4375 82.512 43.2929 82.53C42.3529 82.566 41.5394 82.2058 40.9791 81.4493C40.4006 80.6748 40.6537 79.2519 41.3948 78.5674C41.3225 78.8556 41.2141 79.1078 41.196 79.3599C41.1598 79.6481 41.1417 79.9723 41.2321 80.2425H41.2141ZM44.0341 78.3152C44.8114 78.3152 45.5706 78.4233 46.1672 79.0357C45.6249 79.0177 45.2814 79.2338 44.9922 79.6661C44.8656 79.8462 44.5402 79.9543 44.3052 79.9903C43.7449 80.0804 43.2206 80.0264 42.9314 79.396C42.8591 79.2519 42.6421 79.1618 42.4614 79.0898C42.2987 79.0177 42.0998 79.0177 41.8287 78.9817C42.5156 78.4053 43.2749 78.3152 44.0341 78.3152ZM42.4975 77.7389C43.0218 77.2706 45.0826 77.2345 45.8056 77.7389C44.6668 78.009 43.6002 78.0811 42.4975 77.7389ZM46.0949 81.7915C45.9322 81.9896 45.7153 82.1698 45.4983 82.3139C45.2633 82.476 45.0103 82.494 44.7933 82.2778C44.5764 82.0977 44.5041 81.7375 44.6126 81.4493C44.721 81.1791 44.9379 81.035 45.3537 81.035C45.4803 81.071 45.7333 81.1251 45.9683 81.2151C46.2214 81.3232 46.2757 81.5574 46.0949 81.7735V81.7915ZM47.9026 81.017C47.6857 81.5033 47.0349 81.8996 46.601 81.7735C46.601 81.1431 46.8722 80.6388 47.306 80.2065C47.5953 79.9363 47.7037 79.6301 47.6134 79.2699C47.4868 78.8376 47.3241 78.4053 47.1976 78.0271C47.6495 78.2612 48.0472 78.9277 48.1014 79.6481C48.1376 80.1164 48.1014 80.5667 47.9026 80.999V81.017ZM50.9215 69.5976C50.9215 69.5976 50.9576 69.4715 50.9938 69.3994C51.1022 69.4535 51.3011 69.5075 51.3011 69.5615C51.3011 69.7957 51.283 70.0479 51.1745 70.246C51.048 70.4982 50.7588 70.5342 50.4876 70.4801C50.2345 70.4261 50.0718 70.246 50.0176 69.9938C49.9995 69.8677 50.0176 69.7237 50.0176 69.5796C50.0538 69.5796 50.0718 69.5796 50.108 69.5796C50.1803 69.8497 50.343 70.0479 50.6322 70.0659C50.8853 70.0659 51.0661 69.9938 51.1745 69.7597C51.0842 69.7056 50.9938 69.6876 50.9395 69.6156L50.9215 69.5976ZM49.6922 68.2107C49.3849 68.6429 49.0053 68.9852 48.6076 69.3094C47.993 69.7957 47.4687 70.3901 46.9264 70.9304C46.8722 70.9845 46.836 71.0385 46.7637 71.0745C47.0168 69.6336 47.7761 68.4628 48.7161 67.3821C48.5353 67.7964 48.3364 68.2107 48.1195 68.679C48.5895 68.1206 49.0234 67.6343 49.4572 67.13C49.4753 67.13 49.4934 67.148 49.5115 67.166C49.3307 67.5262 49.1499 67.8865 48.9691 68.2467C49.2584 67.9765 49.5295 67.6883 49.8368 67.4542C50.1261 67.22 50.4515 67.0219 50.7769 66.8058C50.7769 66.8238 50.813 66.8418 50.813 66.8778C50.4334 67.3281 50.0357 67.7604 49.7103 68.2287L49.6922 68.2107ZM47.7037 66.8958C47.7037 66.8958 47.7399 66.9318 47.758 66.9498C48.2641 66.5716 48.7884 66.2474 49.4391 66.1573C48.3545 66.6797 47.5049 67.4902 46.6914 68.3548C46.8722 67.4001 47.4868 66.6797 48.1195 65.9952C48.1014 65.9772 48.0834 65.9412 48.0653 65.9232C47.5591 66.2654 47.071 66.6076 46.601 66.9138C46.8903 66.2474 48.8426 65.0406 49.7103 64.7884C49.0234 65.4909 48.3726 66.1934 47.7037 66.8778V66.8958ZM49.638 90.167C49.4934 90.3471 49.3488 90.5272 49.1861 90.7073C49.3668 90.3111 49.5295 89.8968 49.7103 89.5005C49.7465 89.5005 49.7826 89.5185 49.8188 89.5366C49.7465 89.7347 49.6922 89.9508 49.638 90.167ZM51.3915 88.0236C51.1203 88.3658 50.8492 88.69 50.578 89.0322C51.048 87.5733 51.4819 86.0963 51.9338 84.6194C51.8072 85.7721 51.6265 86.8888 51.3915 88.0236ZM60.5385 76.8023C60.2673 76.5141 60.0866 76.1178 60.0866 75.6855V74.5508C60.5204 74.911 61.0989 75.1452 61.7135 75.1452C61.7677 75.1452 61.8039 75.1452 61.8581 75.1452C61.4062 75.7216 60.9723 76.2799 60.5204 76.8203L60.5385 76.8023ZM70.0471 63.9419V61.8705C70.3363 62.1047 70.7159 62.2668 71.1136 62.2848C70.7701 62.8432 70.4086 63.3835 70.0471 63.9239V63.9419ZM73.6625 58.1061C72.9936 59.2768 72.2886 60.4476 71.5655 61.6004C71.4571 61.6364 71.3486 61.6544 71.2401 61.6544C70.5894 61.6544 70.0651 61.1321 70.0651 60.4836V59.6551C70.3905 59.9253 70.8063 60.0874 71.2401 60.0874C71.9813 60.0874 72.6502 59.6371 72.9575 58.9526C73.0298 58.7905 72.9575 58.5924 72.7767 58.5204C72.614 58.4483 72.4152 58.5204 72.3429 58.7005C72.1621 59.1328 71.7282 59.4209 71.2582 59.4209C70.6074 59.4209 70.0832 58.8986 70.0832 58.2502V57.4216C70.4086 57.6918 70.8244 57.8539 71.2582 57.8539C71.9994 57.8539 72.6682 57.4036 72.9755 56.7192C73.0479 56.5571 72.9755 56.3589 72.7948 56.2869C72.6321 56.2148 72.4332 56.2869 72.3609 56.467C72.1802 56.8993 71.7463 57.1875 71.2763 57.1875C70.6255 57.1875 70.1013 56.6651 70.1013 56.0167V55.1882C70.4267 55.4584 70.8425 55.6205 71.2763 55.6205C72.0175 55.6205 72.6863 55.1702 72.9936 54.4857C73.0659 54.3236 72.9936 54.1255 72.8129 54.0534C72.6502 53.9814 72.4513 54.0534 72.379 54.2336C72.1982 54.6658 71.7644 54.954 71.2944 54.954C70.6436 54.954 70.1194 54.4317 70.1194 53.7833V52.3423C70.1194 52.1442 69.9386 51.9821 69.7217 52.0181C69.559 52.0361 69.4505 52.1982 69.4505 52.3603V53.7472C69.4505 53.7472 69.4505 53.7653 69.4505 53.7833C69.4505 54.4317 68.9263 54.954 68.2755 54.954C67.8055 54.954 67.3716 54.6658 67.1909 54.2336C67.1186 54.0715 66.9197 53.9814 66.757 54.0534C66.5943 54.1255 66.5039 54.3236 66.5763 54.4857C66.8655 55.1702 67.5343 55.6205 68.2936 55.6205C68.7455 55.6205 69.1613 55.4584 69.4867 55.1882V55.9807C69.4867 55.9807 69.4867 55.9987 69.4867 56.0167C69.4867 56.6651 68.9624 57.1875 68.3117 57.1875C67.8417 57.1875 67.4078 56.8993 67.227 56.467C67.1547 56.3049 66.9559 56.2148 66.7932 56.2869C66.6305 56.3589 66.5401 56.5571 66.6124 56.7192C66.9016 57.4036 67.5705 57.8539 68.3297 57.8539C68.7817 57.8539 69.1974 57.6918 69.5228 57.4216V58.2142C69.5228 58.2142 69.5228 58.2142 69.5228 58.2502C69.5228 58.8986 68.9986 59.4209 68.3478 59.4209C67.8778 59.4209 67.444 59.1328 67.2632 58.7005C67.1909 58.5384 66.992 58.4483 66.8293 58.5204C66.6666 58.5924 66.5762 58.7905 66.6486 58.9526C66.9378 59.6371 67.6066 60.0874 68.3659 60.0874C68.8178 60.0874 69.2336 59.9253 69.559 59.6551V60.4476C69.559 60.4476 69.559 60.4656 69.559 60.4836C69.559 61.1321 69.0347 61.6544 68.384 61.6544C67.914 61.6544 67.4801 61.3662 67.2993 60.9339C67.227 60.7718 67.0282 60.6818 66.8655 60.7538C66.7028 60.8259 66.6124 61.024 66.6847 61.1861C66.9739 61.8705 67.6428 62.3208 68.402 62.3208C68.854 62.3208 69.2697 62.1587 69.5951 61.8885V64.9505C68.3117 66.8598 66.9739 68.715 65.6362 70.5162V67.148C65.817 67.3101 66.0701 67.4001 66.3232 67.4001C66.757 67.4001 67.1547 67.148 67.3355 66.7337C67.3716 66.6256 67.3355 66.5176 67.227 66.4815C67.1186 66.4455 67.0101 66.4815 66.9739 66.5896C66.8655 66.8418 66.6124 67.0039 66.3232 67.0039C65.9435 67.0039 65.6362 66.6977 65.6362 66.3014V65.8151C65.817 65.9772 66.0701 66.0673 66.3232 66.0673C66.757 66.0673 67.1547 65.8151 67.3355 65.4008C67.3716 65.2928 67.3355 65.1847 67.227 65.1487C67.1186 65.1126 67.0101 65.1487 66.9739 65.2567C66.8655 65.5089 66.6124 65.689 66.3232 65.689C65.9435 65.689 65.6362 65.3828 65.6362 64.9866V64.5003C65.817 64.6624 66.0701 64.7524 66.3232 64.7524C66.757 64.7524 67.1547 64.4822 67.3355 64.086C67.3716 63.9959 67.3355 63.8698 67.227 63.8338C67.1186 63.7978 67.0101 63.8338 66.9739 63.9419C66.8655 64.194 66.6124 64.3562 66.3232 64.3562C65.9435 64.3562 65.6362 64.05 65.6362 63.6537V63.1674C65.817 63.3295 66.0701 63.4195 66.3232 63.4195C66.757 63.4195 67.1547 63.1674 67.3355 62.7531C67.3716 62.645 67.3355 62.537 67.227 62.5009C67.1186 62.4649 67.0101 62.5009 66.9739 62.609C66.8655 62.8612 66.6124 63.0413 66.3232 63.0413C65.9435 63.0413 65.6362 62.7351 65.6362 62.3388V61.4923C65.6362 61.3662 65.5278 61.2761 65.4012 61.2942C65.3109 61.2942 65.2385 61.4022 65.2385 61.4923V62.3208C65.2385 62.6991 64.9312 63.0233 64.5335 63.0233C64.2443 63.0233 64.0093 62.8612 63.8828 62.591C63.8466 62.4829 63.7201 62.4469 63.6297 62.4829C63.5212 62.519 63.4851 62.645 63.5212 62.7351C63.6839 63.1314 64.0816 63.4015 64.5335 63.4015C64.8047 63.4015 65.0397 63.3115 65.2385 63.1494V63.6177C65.2385 63.9959 64.9312 64.3201 64.5335 64.3201C64.2443 64.3201 64.0093 64.158 63.8828 63.9059C63.8466 63.7978 63.7201 63.7618 63.6297 63.7978C63.5212 63.8338 63.4851 63.9599 63.5212 64.05C63.6839 64.4462 64.0816 64.7164 64.5335 64.7164C64.8047 64.7164 65.0397 64.6263 65.2385 64.4642V64.9325C65.2385 65.3108 64.9312 65.635 64.5335 65.635C64.2443 65.635 64.0093 65.4729 63.8828 65.2027C63.8466 65.0946 63.7201 65.0586 63.6297 65.0946C63.5212 65.1307 63.4851 65.2567 63.5212 65.3468C63.6839 65.7431 64.0816 66.0132 64.5335 66.0132C64.8047 66.0132 65.0397 65.9232 65.2385 65.7611V66.2294C65.2385 66.6076 64.9312 66.9318 64.5335 66.9318C64.2443 66.9318 64.0093 66.7697 63.8828 66.5176C63.8466 66.4095 63.7201 66.3735 63.6297 66.4095C63.5212 66.4455 63.4851 66.5716 63.5212 66.6617C63.6839 67.0579 64.0816 67.3281 64.5335 67.3281C64.8047 67.3281 65.0397 67.238 65.2385 67.0759V70.9665C64.7505 71.6149 64.2805 72.2453 63.7924 72.8757C63.6478 72.8937 63.5031 73.0018 63.4489 73.1459C63.1958 73.7583 62.5993 74.1365 61.9485 74.1365C61.0447 74.1365 60.3216 73.398 60.3216 72.5155V71.3807C60.7554 71.741 61.3339 71.9751 61.9485 71.9751C62.9789 71.9751 63.9008 71.3627 64.3166 70.4081C64.407 70.1739 64.3166 69.9038 64.0635 69.7957C63.8285 69.7056 63.5574 69.7957 63.4489 70.0479C63.1958 70.6603 62.5993 71.0385 61.9485 71.0385C61.0447 71.0385 60.3216 70.3 60.3216 69.3994V67.4001C60.3216 67.1119 60.0685 66.8958 59.7793 66.9498C59.5443 66.9859 59.3996 67.202 59.3996 67.4362V69.3634C59.3996 69.3634 59.3996 69.3814 59.3996 69.3994C59.3996 70.3 58.6585 71.0385 57.7727 71.0385C57.1219 71.0385 56.5254 70.6422 56.2723 70.0479C56.1638 69.8137 55.8927 69.7056 55.6577 69.7957C55.4227 69.9038 55.3142 70.1739 55.4046 70.4081C55.8023 71.3627 56.7423 71.9751 57.7727 71.9751C58.3873 71.9751 58.9658 71.759 59.4177 71.3807V72.4794C59.4177 72.4794 59.4177 72.4975 59.4177 72.5155C59.4177 73.4161 58.6765 74.1365 57.7908 74.1365C57.14 74.1365 56.5435 73.7403 56.2904 73.1459C56.1819 72.9117 55.9108 72.8037 55.6757 72.8937C55.4407 72.9838 55.3323 73.272 55.4227 73.5061C55.8204 74.4607 56.7604 75.0731 57.7908 75.0731C58.4054 75.0731 58.9839 74.857 59.4358 74.4787V75.5775C59.4358 75.5775 59.4358 75.5955 59.4358 75.6135C59.4358 76.5141 58.6946 77.2345 57.8088 77.2345C57.1581 77.2345 56.5615 76.8383 56.3084 76.2439C56.2 76.0098 55.9288 75.9017 55.6938 75.9917C55.4588 76.0998 55.3504 76.37 55.4407 76.6041C55.8384 77.5588 56.7785 78.1712 57.8088 78.1712C58.4235 78.1712 59.0019 77.955 59.4539 77.5768V78.4413C59.1285 78.8376 58.8031 79.2338 58.4777 79.6301C58.2789 79.8643 58.0981 80.0984 57.8992 80.3326C57.8631 80.3326 57.8269 80.3326 57.8088 80.3326C57.1581 80.3326 56.5615 79.9363 56.3084 79.3419C56.2 79.1078 55.9288 78.9997 55.6938 79.0898C55.4588 79.1798 55.3504 79.468 55.4407 79.7022C55.7661 80.4586 56.4169 80.999 57.1942 81.1791C56.5615 81.9536 55.9288 82.7461 55.2781 83.5206C55.2781 82.7641 55.2781 81.9896 55.2057 81.2331C55.0792 79.7202 54.8804 78.2072 54.6815 76.6942C54.5911 75.9557 54.4104 75.2533 54.2657 74.5328C54.32 76.424 53.868 78.2252 53.2896 79.9903C53.5969 78.0451 53.5246 76.0818 53.4884 74.1185C53.2715 75.2713 52.8196 76.352 52.3134 77.3967C52.4399 76.8923 52.5846 76.388 52.7111 75.8837C53.0184 74.6228 52.9461 73.326 52.8919 72.0472C52.8919 71.9391 52.8376 71.813 52.7653 71.741C52.6388 71.6149 52.5123 71.5969 52.458 71.813C52.4219 71.9391 52.4219 72.0832 52.4219 72.2093C52.4219 72.3714 52.4219 72.5515 52.4219 72.7496C52.2411 72.5515 52.1146 72.3894 51.9519 72.2453C51.8072 72.1192 51.6265 72.0111 51.4457 71.8671C51.5903 72.2453 51.7169 72.5515 51.8434 72.8757C51.283 72.5875 50.7949 72.3534 50.2888 72.1012L50.2345 72.1913C50.343 72.2813 50.4695 72.3714 50.5599 72.4794C50.6684 72.5875 50.7588 72.7136 50.8311 72.8577C50.9034 72.9658 50.9576 73.0738 51.0299 73.1999C50.1803 72.5155 49.168 72.2273 48.1737 71.831C48.4991 71.6689 48.8245 71.4708 49.168 71.4168C50.0899 71.2727 51.0119 71.2006 51.9338 71.0925C52.3315 71.0565 52.4399 71.0025 52.4761 70.6062C52.5303 70.1019 52.5484 69.5976 52.5484 69.0932C52.5484 68.5529 52.3315 68.3548 51.7711 68.3007C51.5542 68.2827 51.3553 68.2647 51.1565 68.2467C51.3915 67.8144 51.6265 67.3821 51.8976 66.9498C51.9519 66.8418 52.0784 66.7157 52.1869 66.7157C52.2773 66.7157 52.4038 66.8598 52.458 66.9679C52.5665 67.256 52.6569 67.5622 52.7292 67.8865C52.8196 68.2827 52.8738 68.679 52.9642 69.1473C53.2353 68.5529 53.615 68.1386 54.103 67.8504C54.5911 67.5622 55.0973 67.3461 55.5492 67.13C55.025 67.0039 54.4284 66.8598 53.85 66.7157C53.85 66.6797 53.85 66.6436 53.85 66.6076C56.4169 66.5716 58.7669 65.9412 60.6831 64.176C62.5993 62.4289 63.5393 60.1954 63.9008 57.5837C63.0512 57.6738 62.2739 57.7278 61.4966 57.8539C59.0381 58.2502 56.8869 59.3489 54.9707 60.9159C54.338 61.4202 53.7234 61.9786 53.0907 62.4649C52.8919 62.609 52.6207 62.6631 52.3857 62.7531C52.3676 62.7171 52.3315 62.6631 52.3134 62.627C52.8738 62.0687 53.398 61.4563 54.0127 60.9699C56.3627 59.1147 58.9839 57.6558 61.6412 56.2689C63.1597 55.4764 64.6962 54.7019 66.0701 53.7112C67.0643 52.9907 67.914 52.1262 68.384 50.9914C69.1794 49.0642 69.342 47.0469 68.9444 45.0296C68.2936 41.7514 66.4859 39.1938 63.8105 37.2125C63.6297 37.0864 63.4308 36.9963 63.232 36.8883C63.1958 36.9243 63.1778 36.9423 63.1416 36.9783C63.2501 37.1764 63.3585 37.3926 63.4851 37.5907C64.1901 38.7074 64.9312 39.7881 65.6001 40.9229C66.1786 41.9135 66.5762 42.9942 66.6124 44.165C66.6124 44.6513 66.5763 45.1376 66.3774 45.5879C65.8532 45.4258 65.347 45.2457 64.8589 45.1016C62.2377 44.3271 59.5443 43.8408 56.8146 43.5886C55.8746 43.4986 54.9346 43.5166 53.9946 43.4986C53.7957 43.4986 53.5788 43.5886 53.3619 43.6427C53.3619 43.6787 53.3619 43.7147 53.3619 43.7507C53.5065 43.8228 53.633 43.9308 53.7777 43.9849C54.7357 44.2731 55.6938 44.5793 56.6519 44.8494C58.5139 45.3718 60.3939 45.8941 62.1474 46.7047C62.8885 47.0469 63.5935 47.4251 64.172 47.9835C64.877 48.6679 65.0216 49.4064 64.4793 50.235C64.1178 50.7933 63.6658 51.2976 63.1597 51.7299C61.4062 53.2249 59.3454 54.2155 57.2665 55.1522C57.1581 55.2062 57.0315 55.2422 56.8688 55.3143C57.4835 54.0715 57.8812 52.8467 57.9896 51.5498C58.1162 49.8567 57.8269 48.2717 56.9231 46.8127C56.7785 46.5786 56.5977 46.3804 56.435 46.1823L56.3446 46.2363C56.3446 46.3624 56.3446 46.4885 56.3808 46.6146C56.6158 47.7854 56.7242 48.9561 56.6519 50.1449C56.5254 52.0902 55.8927 53.8373 54.555 55.2963C53.9765 55.9267 53.3076 56.449 52.5846 56.8813C52.5484 56.8633 52.5484 56.8453 52.5303 56.8453C52.4942 56.8092 52.4761 56.7552 52.458 56.7192C51.4819 54.846 51.3011 52.8827 51.7349 50.8474C52.0603 49.3524 52.693 47.9655 53.4342 46.6326C53.5607 46.4165 53.6511 46.1823 53.7596 45.9482C53.7415 45.9301 53.7234 45.8941 53.7053 45.8761C53.5246 45.9482 53.3257 45.9842 53.145 46.0742C52.458 46.4525 51.9519 47.0109 51.518 47.6413C50.2526 49.4604 49.8007 51.5318 49.7284 53.7112C49.6561 55.4403 49.9091 57.1334 50.2526 58.8266C50.3068 59.1147 50.2526 59.3489 50.0176 59.547C49.8188 59.7271 49.6018 59.8892 49.4211 60.0874C49.0957 60.4296 48.7884 60.8078 48.463 61.1681C48.4268 61.2221 48.3003 61.2041 48.228 61.2041C47.9749 61.2041 47.7218 61.1321 47.4868 61.1681C46.6372 61.3482 45.7876 61.5823 44.9379 61.7985C44.7753 61.8345 44.6126 61.8705 44.4499 61.8345C43.6364 61.6724 42.8229 61.4923 41.9914 61.3482C41.5937 61.2761 41.3044 61.1681 41.0514 60.8078C40.7079 60.3395 40.2198 59.9793 39.786 59.583C39.5329 59.3669 39.4425 59.1147 39.5148 58.7905C39.8944 56.9353 40.1475 55.0621 40.0029 53.1529C39.8764 51.4417 39.4967 49.8027 38.6471 48.2897C38.159 47.4071 37.5444 46.6146 36.6405 46.1103C36.4598 46.0022 36.2429 45.9482 36.0259 45.8761C36.0259 45.8941 35.9898 45.9301 35.9717 45.9482C36.0259 46.0742 36.0802 46.2003 36.1525 46.3264C36.749 47.4611 37.3456 48.5779 37.7252 49.8027C38.3579 51.838 38.4483 53.8553 37.6529 55.8726C37.5082 56.2149 37.3456 56.5571 37.1829 56.8993C35.5017 55.8726 34.2905 54.5398 33.6036 52.7386C32.8986 50.8293 32.9347 48.8841 33.2782 46.9208C33.3144 46.6866 33.3505 46.4525 33.3867 46.2183C33.3505 46.2183 33.3144 46.2003 33.2601 46.1823C32.1755 47.4431 31.7417 48.9741 31.6874 50.6132C31.6332 52.2523 32.0851 53.7833 32.8263 55.2782C32.7359 55.2602 32.6997 55.2602 32.6817 55.2422C31.109 54.5578 29.5543 53.7833 28.1082 52.8467C27.1862 52.2523 26.2824 51.6038 25.5774 50.7393C25.252 50.361 24.9989 49.9288 24.9447 49.4244C24.8543 48.6679 25.2881 48.1636 25.8124 47.7133C26.7885 46.9388 27.9093 46.4345 29.0843 46.0562C31.0909 45.4078 33.1336 44.8314 35.1401 44.219C35.5559 44.0929 36.0078 44.0029 36.4055 43.6246C36.1886 43.5526 36.0259 43.4806 35.8632 43.4625C35.4836 43.4265 35.104 43.3905 34.7244 43.4265C33.3867 43.5526 32.0309 43.6427 30.6932 43.8408C29.4639 44.0029 28.2347 44.237 27.0235 44.5072C25.7943 44.7954 24.5831 45.1556 23.3358 45.4979C23.0827 44.8855 23.0646 44.201 23.1731 43.5166C23.39 42.1477 24.0227 40.9409 24.7458 39.7881C25.27 38.9596 25.8304 38.1671 26.3727 37.3385C26.4631 37.2125 26.5174 37.0504 26.5716 36.8883C26.5354 36.8702 26.5174 36.8522 26.4812 36.8162C26.2824 36.9423 26.0654 37.0323 25.8847 37.1764C22.0523 40.1664 20.0458 43.9489 20.7688 48.9021C21.0219 50.5772 21.6908 52.0001 22.9923 53.1168C24.1312 54.0895 25.4327 54.8279 26.7524 55.5304C28.9397 56.6832 31.1451 57.7999 33.224 59.1688C34.2905 59.8712 35.3932 60.5377 36.279 61.4563C36.6767 61.8525 37.0563 62.2668 37.454 62.6811C37.0382 62.8612 36.8575 62.8252 36.5863 62.4829C35.4836 61.114 34.1459 60.0333 32.5732 59.2588C30.7293 58.3582 28.7589 57.926 26.7162 57.8899C26.427 57.8899 26.1558 57.8899 25.8304 57.8899C25.9931 58.3943 26.1197 58.8265 26.2824 59.2408C26.9151 61.024 27.6562 62.7351 28.8674 64.194C29.8797 65.4188 31.127 66.2294 32.754 66.4095C33.2601 66.4635 33.7663 66.5896 34.2544 66.7697C35.0678 67.0759 35.7005 67.6703 36.279 68.3007C36.5682 68.6069 36.6948 68.5709 36.8213 68.1746C36.9117 67.9405 36.9659 67.6883 37.0744 67.4542C37.3275 66.8778 37.7071 66.7697 38.2313 67.166C38.6652 67.4902 38.8821 67.9405 39.0267 68.4448C39.099 68.679 39.0448 68.8231 38.7736 68.8231C38.5929 68.8231 38.4302 68.8411 38.2494 68.8771C37.9602 68.9131 37.6529 68.9491 37.3817 69.0392C37.2913 69.0752 37.1648 69.2193 37.1648 69.3094C37.1829 70.1199 37.2371 70.9485 37.2732 71.8671C38.8098 71.0385 40.274 71.2186 41.7564 71.831C41.7021 71.2006 41.5575 70.6963 41.1237 70.318C40.9248 70.1379 40.726 69.9578 40.5633 69.7417C40.4187 69.5615 40.2921 69.3274 40.1837 69.1113C40.0752 68.8771 40.039 68.6069 39.8944 68.4088C39.4606 67.8144 39.0087 67.256 38.5567 66.6797C38.4844 66.5896 38.4121 66.5176 38.3579 66.4275C38.3759 66.4095 38.4121 66.3735 38.4302 66.3555C39.2075 66.8418 39.804 67.5262 40.4367 68.2107C40.1475 67.7784 39.8583 67.3461 39.569 66.9138C39.6052 66.8958 39.6233 66.8598 39.6594 66.8418L41.3406 68.769C41.3406 68.769 41.3406 68.769 41.3587 68.769C41.1056 68.3187 40.8525 67.8684 40.5994 67.4181C40.6356 67.4181 40.6717 67.4181 40.6717 67.4181C40.726 67.4542 40.7802 67.5082 40.8344 67.5622C41.4129 68.0846 41.7744 68.751 42.0637 69.4715C42.6422 70.9304 42.8772 72.4794 43.0037 74.0465C43.0398 74.6048 43.0579 75.1632 43.0941 75.6675C43.6906 75.7576 44.2872 75.8116 44.8476 75.9377C45.4079 76.0818 45.9322 76.334 46.4564 76.7302C44.5402 76.388 42.7687 76.388 41.2321 77.7389C41.3948 76.5501 41.5575 75.4154 41.7202 74.2806C41.5394 74.4607 41.3768 74.6048 41.2141 74.7489C41.0514 74.893 40.8887 75.0191 40.7079 75.1632C40.5452 75.2893 40.3825 75.3973 40.2017 75.5054C40.9067 74.5688 41.3587 73.5241 41.7925 72.4074C40.9791 73.0198 39.569 73.6682 39.0267 73.7223C39.2798 73.38 39.569 73.0198 39.8764 72.6235C39.2075 72.9478 38.5929 73.2539 37.9783 73.5782L37.9421 73.5061C38.1952 73.1999 38.4663 72.8937 38.6833 72.6235C38.1048 72.7676 37.5082 72.9117 36.9117 73.0918C36.8394 73.1099 36.7671 73.254 36.7671 73.344C36.8394 73.9924 36.8936 74.6409 37.0202 75.2713C37.2732 76.5321 37.8879 77.6308 38.5025 78.7475C38.7736 79.2519 39.0086 79.7382 38.9725 80.3506C38.9363 80.9089 38.9725 81.4853 39.0629 82.0437C39.3521 83.7548 40.0752 85.3038 40.9248 86.7808C41.3225 87.4832 41.7744 88.1497 42.2264 88.8701C42.1541 88.8341 42.0998 88.7981 42.0456 88.7801C41.196 88.2037 40.5452 87.4292 40.0029 86.5646C38.9363 84.8715 38.2675 82.9983 37.7613 81.071C37.689 80.7648 37.6167 80.4586 37.5263 80.1524C37.4721 81.2872 37.7252 82.3859 38.0144 83.4666C38.3036 84.5293 38.6471 85.592 38.9725 86.6367C37.0382 83.9529 36.4236 80.8549 36.1886 77.6488C35.6644 79.6301 36.044 81.5754 36.3875 83.5026C34.7244 79.8462 35.2486 76.1538 36.2429 72.4434C36.1886 72.4975 36.1705 72.5515 36.1344 72.6055C34.5074 76.1719 33.8205 79.9183 34.1459 83.8449C34.2724 85.3758 34.5255 86.8888 34.9232 88.3478C34.2544 87.3932 33.5855 86.4385 32.9347 85.5019C32.5009 84.8715 32.049 84.2411 31.6151 83.6107V77.4687C31.9405 77.7389 32.3563 77.901 32.7901 77.901C33.5313 77.901 34.2001 77.4507 34.4894 76.7662C34.5617 76.6041 34.4894 76.406 34.3086 76.334C34.1459 76.2619 33.9471 76.334 33.8747 76.5141C33.694 76.9464 33.2601 77.2345 32.7901 77.2345C32.1393 77.2345 31.6151 76.7122 31.6151 76.0458V75.2172C31.9405 75.4874 32.3563 75.6495 32.7901 75.6495C33.5313 75.6495 34.2001 75.1992 34.4894 74.5148C34.5617 74.3527 34.4894 74.1545 34.3086 74.0825C34.1459 74.0104 33.9471 74.0825 33.8747 74.2626C33.694 74.6949 33.2601 74.9831 32.7901 74.9831C32.1393 74.9831 31.6151 74.4607 31.6151 73.8123V72.9838C31.9405 73.254 32.3563 73.4161 32.7901 73.4161C33.5313 73.4161 34.2001 72.9658 34.4894 72.2813C34.5617 72.1192 34.4894 71.9211 34.3086 71.849C34.1459 71.777 33.9471 71.849 33.8747 72.0292C33.694 72.4614 33.2601 72.7496 32.7901 72.7496C32.1393 72.7496 31.6151 72.2273 31.6151 71.5789V70.7503C31.9405 71.0205 32.3563 71.1826 32.7901 71.1826C33.5313 71.1826 34.2001 70.7503 34.4894 70.0479C34.5617 69.8858 34.4894 69.6876 34.3086 69.6156C34.1459 69.5435 33.9471 69.6156 33.8747 69.7957C33.694 70.228 33.2601 70.5162 32.7901 70.5162C32.1393 70.5162 31.6151 69.9938 31.6151 69.3454V67.9045C31.6151 67.7063 31.4343 67.5442 31.2174 67.5803C31.0547 67.6163 30.9463 67.7604 30.9463 67.9225V69.3094C30.9463 69.3094 30.9463 69.3274 30.9463 69.3454C30.9463 69.9938 30.422 70.5162 29.7712 70.5162C29.3012 70.5162 28.8674 70.228 28.6866 69.7957C28.6143 69.6336 28.4155 69.5435 28.2528 69.6156C28.0901 69.6876 27.9997 69.8858 28.072 70.0479C28.3612 70.7323 29.0301 71.1826 29.7893 71.1826C30.2412 71.1826 30.657 71.0205 30.9824 70.7503V71.5428C30.9824 71.5428 30.9824 71.5609 30.9824 71.5789C30.9824 72.2273 30.4582 72.7496 29.8074 72.7496C29.3374 72.7496 28.9035 72.4614 28.7228 72.0292C28.6505 71.8671 28.4516 71.777 28.2889 71.849C28.1262 71.9211 28.0358 72.1192 28.1082 72.2813C28.3974 72.9658 29.0662 73.4161 29.8255 73.4161C30.2774 73.4161 30.6932 73.254 31.0186 72.9838V73.7763C31.0186 73.7763 31.0186 73.7943 31.0186 73.8123C31.0186 74.4607 30.4943 74.9831 29.8436 74.9831C29.3735 74.9831 28.9397 74.6949 28.7589 74.2626C28.6866 74.1005 28.4878 74.0104 28.3251 74.0825C28.1624 74.1545 28.072 74.3527 28.1443 74.5148C28.4335 75.1992 29.1024 75.6495 29.8616 75.6495C30.3136 75.6495 30.7293 75.4874 31.0547 75.2172V76.0097C31.0547 76.0097 31.0547 76.0278 31.0547 76.0458C31.0547 76.6942 30.5305 77.2345 29.8797 77.2345C29.4097 77.2345 28.9759 76.9464 28.7951 76.5141C28.7228 76.352 28.5239 76.2619 28.3612 76.334C28.1985 76.406 28.1082 76.6041 28.1805 76.7662C28.4697 77.4507 29.1385 77.901 29.8978 77.901C30.3497 77.901 30.7655 77.7389 31.0909 77.4687V82.6561C29.3916 80.2245 27.6924 77.7749 25.9931 75.3073V70.9304C26.1739 71.0925 26.427 71.1826 26.6981 71.1826C27.132 71.1826 27.5297 70.9304 27.7105 70.5162C27.7466 70.4081 27.7105 70.3 27.602 70.264C27.4935 70.228 27.3851 70.264 27.3489 70.3721C27.2404 70.6242 26.9874 70.7863 26.6981 70.7863C26.3185 70.7863 25.9931 70.4801 25.9931 70.0839V69.5976C26.1739 69.7597 26.427 69.8497 26.6981 69.8497C27.132 69.8497 27.5297 69.5796 27.7105 69.1833C27.7466 69.0752 27.7105 68.9672 27.602 68.9311C27.4935 68.8951 27.3851 68.9311 27.3489 69.0392C27.2404 69.2914 26.9874 69.4715 26.6981 69.4715C26.3185 69.4715 25.9931 69.1653 25.9931 68.769V68.2827C26.1739 68.4448 26.427 68.5349 26.6981 68.5349C27.132 68.5349 27.5297 68.2647 27.7105 67.8684C27.7466 67.7604 27.7105 67.6523 27.602 67.6163C27.4935 67.5803 27.3851 67.6163 27.3489 67.7243C27.2404 67.9765 26.9874 68.1386 26.6981 68.1386C26.3185 68.1386 25.9931 67.8324 25.9931 67.4362V66.9498C26.1739 67.1119 26.427 67.202 26.6981 67.202C27.132 67.202 27.5297 66.9318 27.7105 66.5356C27.7466 66.4275 27.7105 66.3194 27.602 66.2834C27.4935 66.2474 27.3851 66.2834 27.3489 66.3915C27.2404 66.6436 26.9874 66.8238 26.6981 66.8238C26.3185 66.8238 25.9931 66.5176 25.9931 66.1213V65.2748C25.9931 65.1487 25.8847 65.0586 25.7581 65.0766C25.6677 65.0766 25.5954 65.1847 25.5954 65.2748V66.1033C25.5954 66.4815 25.2881 66.8058 24.8904 66.8058C24.6193 66.8058 24.3662 66.6436 24.2577 66.3735C24.2216 66.2834 24.095 66.2294 24.0046 66.2654C23.9143 66.3014 23.86 66.4275 23.8962 66.5176C24.0589 66.9138 24.4566 67.184 24.9085 67.184C25.1797 67.184 25.4147 67.0939 25.6135 66.9318V67.4001C25.6135 67.7784 25.3062 68.1026 24.9085 68.1026C24.6373 68.1026 24.3843 67.9405 24.2758 67.6883C24.2396 67.5803 24.1131 67.5442 24.0227 67.5803C23.9143 67.6163 23.8781 67.7424 23.9143 67.8324C24.077 68.2287 24.4746 68.4989 24.9266 68.4989C25.1977 68.4989 25.4327 68.4088 25.6316 68.2467V68.715C25.6316 69.0932 25.3243 69.4175 24.9266 69.4175C24.6554 69.4175 24.4023 69.2553 24.2939 68.9852C24.2577 68.8951 24.1312 68.8411 24.0408 68.8771C23.9323 68.9131 23.8962 69.0392 23.9323 69.1293C24.095 69.5255 24.4927 69.7957 24.9447 69.7957C25.2158 69.7957 25.4508 69.7056 25.6497 69.5435V70.0118C25.6497 70.3901 25.3424 70.7143 24.9447 70.7143C24.6735 70.7143 24.4204 70.5522 24.312 70.3C24.2758 70.192 24.1493 70.1559 24.0589 70.192C23.9504 70.228 23.9143 70.3541 23.9504 70.4441C24.1131 70.8404 24.5108 71.1106 24.9627 71.1106C25.2339 71.1106 25.4689 71.0205 25.6677 70.8584V74.6589C24.782 73.362 23.8962 72.0832 23.0285 70.8044C22.8839 70.5882 22.7392 70.3721 22.5946 70.1559V63.4736C22.92 63.7438 23.3358 63.9059 23.7696 63.9059C24.5108 63.9059 25.1797 63.4556 25.487 62.7711C25.5593 62.609 25.487 62.4109 25.3062 62.3388C25.1435 62.2668 24.9447 62.3388 24.8723 62.519C24.6916 62.9512 24.2577 63.2394 23.7877 63.2394C23.1369 63.2394 22.6127 62.7171 22.6127 62.0687V61.2401C22.9381 61.5103 23.3539 61.6724 23.7877 61.6724C24.5289 61.6724 25.1977 61.2401 25.505 60.5377C25.5774 60.3756 25.505 60.1774 25.3243 60.1054C25.1616 60.0333 24.9627 60.1054 24.8904 60.2855C24.7097 60.7178 24.2758 61.006 23.8058 61.006C23.155 61.006 22.6308 60.4836 22.6308 59.8352V59.0067C22.9562 59.2768 23.3719 59.439 23.8058 59.439C24.547 59.439 25.2158 58.9887 25.5231 58.3042C25.5954 58.1421 25.5231 57.944 25.3424 57.8719C25.1797 57.7999 24.9808 57.8719 24.9085 58.052C24.7277 58.4843 24.2939 58.7725 23.8239 58.7725C23.1731 58.7725 22.6489 58.2502 22.6489 57.6018V56.7732C22.9742 57.0434 23.39 57.2055 23.8239 57.2055C24.565 57.2055 25.2339 56.7552 25.5412 56.0708C25.6135 55.9086 25.5412 55.7105 25.3604 55.6385C25.1977 55.5664 24.9989 55.6385 24.9266 55.8186C24.7458 56.2509 24.312 56.5391 23.842 56.5391C23.1912 56.5391 22.6669 56.0167 22.6669 55.3683V53.9274C22.6669 53.7292 22.4862 53.5671 22.2692 53.6031C22.1065 53.6212 21.9981 53.7833 21.9981 53.9454V55.3323C21.9981 55.3323 21.9981 55.3323 21.9981 55.3683C21.9981 56.0167 21.4739 56.5391 20.8231 56.5391C20.3531 56.5391 19.9192 56.2509 19.7384 55.8186C19.6661 55.6565 19.4673 55.5664 19.3046 55.6385C19.1419 55.7105 19.0515 55.9086 19.1238 56.0708C19.4131 56.7552 20.0819 57.2055 20.8412 57.2055C21.2931 57.2055 21.7089 57.0434 22.0342 56.7732V57.5657C22.0342 57.5657 22.0342 57.5837 22.0342 57.6018C22.0342 58.2502 21.51 58.7725 20.8592 58.7725C20.3892 58.7725 19.9554 58.4843 19.7746 58.052C19.7023 57.8899 19.5034 57.7999 19.3407 57.8719C19.1781 57.944 19.0877 58.1421 19.16 58.3042C19.4492 58.9887 20.1181 59.439 20.8773 59.439C21.3292 59.439 21.745 59.2768 22.0704 59.0067V59.7992C22.0704 59.7992 22.0704 59.8172 22.0704 59.8352C22.0704 60.4836 21.5462 61.006 20.8954 61.006C20.4254 61.006 19.9915 60.7178 19.8108 60.2855C19.7384 60.1234 19.5396 60.0333 19.3769 60.1054C19.2142 60.1774 19.1238 60.3756 19.1961 60.5377C19.4854 61.2221 20.1542 61.6724 20.9135 61.6724C21.3654 61.6724 21.7812 61.5103 22.1065 61.2401V62.0326C22.1065 62.0326 22.1065 62.0507 22.1065 62.0687C22.1065 62.7171 21.5823 63.2394 20.9315 63.2394C20.4615 63.2394 20.0277 62.9512 19.8469 62.519C19.7746 62.3568 19.5758 62.2668 19.4131 62.3388C19.2504 62.4109 19.16 62.609 19.2323 62.7711C19.5215 63.4556 20.1904 63.9059 20.9496 63.9059C21.4015 63.9059 21.8173 63.7438 22.1427 63.4736V69.1473C19.3408 64.7704 16.8823 60.0153 14.8215 54.954C12.7788 49.9288 12.1822 44.5613 13.068 39.2478C14.9119 39.1037 19.5034 38.4012 27.4393 35.2492C31.6693 33.5741 32.4105 32.6375 32.5913 31.935C32.754 31.2506 32.3201 30.7643 31.9767 30.35C31.7055 30.0438 31.5247 29.8277 31.5609 29.6295C31.597 29.4494 31.8501 29.0171 33.1697 28.3327C35.6282 27.0358 37.7252 24.5682 39.1894 21.2361C39.8944 19.651 40.3102 18.2281 40.5091 17.3815C41.4491 18.2641 43.4556 20.0833 46.0045 22.0646C49.1499 24.4962 53.7957 27.6482 58.3512 29.1612C51.6446 34.4207 47.1253 35.6274 47.071 35.6274C46.818 35.6815 46.6733 35.9336 46.7276 36.1858C46.7818 36.438 47.0349 36.5821 47.288 36.528C47.3422 36.528 48.4087 36.2398 50.2526 35.3753H54.5369C54.79 35.3753 54.9888 35.1771 54.9888 34.925C54.9888 34.6728 54.79 34.4747 54.5369 34.4747H52.0784C52.0784 34.4747 52.1688 34.4206 52.223 34.4026C54.8442 32.9797 58.8754 30.35 63.6116 25.8651C63.5031 26.7837 63.2862 28.0985 62.8343 29.4674H61.2254C60.9723 29.4674 60.7735 29.6656 60.7735 29.9177C60.7735 30.1699 60.9723 30.386 61.2254 30.386H62.4908C62.2197 31.0525 61.8762 31.7189 61.4785 32.3133H58.4235C58.1704 32.3133 57.9535 32.5114 57.9535 32.7636C57.9535 33.0157 58.1523 33.2319 58.4235 33.2319H60.7373C60.1589 33.8443 59.4719 34.3486 58.6585 34.6548C54.9346 36.0597 53.163 37.3566 53.0726 38.7615C53.0184 39.6981 53.7053 40.5266 55.2057 41.2831C55.2781 41.3191 55.3504 41.3372 55.4227 41.3372C55.5854 41.3372 55.7481 41.2471 55.8384 41.085C55.965 40.8508 55.8746 40.5807 55.6396 40.4726C54.8804 40.0763 53.9765 39.4819 54.0127 38.8155C54.0488 38.2752 54.7357 37.1224 59.0019 35.5194C60.177 35.0691 61.2074 34.2585 62.057 33.1058C62.0931 33.0698 62.1293 33.0337 62.1474 32.9797C62.7258 32.1692 63.2139 31.2146 63.6116 30.1158C63.6116 30.0978 63.6116 30.0798 63.6297 30.0618C63.7201 29.8096 63.7924 29.5575 63.8828 29.3053C64.3166 27.8644 64.4974 26.5315 64.5878 25.6669C65.8351 26.7837 68.6913 29.2513 72.8129 32.1151C73.9698 32.9257 75.2894 33.8083 76.7537 34.7088C76.9164 35.1952 77.061 35.6635 77.2056 36.1498C79.3387 43.6787 78.3987 50.8113 74.3313 57.944L73.6625 58.1061ZM54.103 62.8432C54.8442 63.0953 55.5673 63.0413 56.2904 62.9512V63.0593C55.6396 63.2214 54.9888 63.3835 54.32 63.5276C54.6273 63.5636 54.9707 63.6177 55.3142 63.6537C55.6758 63.6897 56.0373 63.7077 56.3988 63.7257C56.7604 63.7257 57.1219 63.7257 57.4292 63.7257C57.0677 63.9419 55.5854 64.2661 54.1934 64.4642C54.9346 64.4822 55.6757 64.5543 56.4169 64.5183C57.1581 64.5002 57.9173 64.3922 58.6223 64.3381C57.2485 64.8965 54.2657 65.3288 52.6569 64.7884C53.4342 62.8432 54.6634 61.2581 56.4892 60.1954C58.1342 59.2408 59.9058 58.8626 61.8039 58.9346C60.5023 59.1328 59.2912 59.6191 58.08 60.1234C58.3331 59.9073 58.5681 59.7091 58.8212 59.493C56.9592 60.1954 55.3142 61.1681 54.103 62.8432ZM31.4886 63.9419C32.3382 64.3201 33.2059 64.5002 34.1821 64.2661C33.8747 64.2301 33.6217 64.2301 33.3867 64.176C33.1517 64.122 32.9167 64.0139 32.6997 63.9059C32.4828 63.7798 32.302 63.5997 32.1393 63.4195C33.0974 63.6897 34.0374 64.0139 35.0498 63.5816C35.7548 64.14 35.6463 65.1487 34.7967 65.4549C34.3267 65.617 33.8024 65.671 33.3144 65.653C31.9405 65.617 30.6932 65.2207 29.7532 64.14C29.4097 63.7438 29.1566 63.2574 28.8493 62.8071C28.8855 62.7711 28.9216 62.7531 28.9578 62.7171C30.2232 64.05 31.7236 64.8605 33.6036 64.9145C32.8263 64.7704 32.1393 64.4282 31.5066 63.9419H31.4886ZM38.5025 69.6156C38.5025 69.6156 38.5386 69.4715 38.5567 69.3994C38.6652 69.4355 38.7917 69.4535 38.846 69.5435C39.0086 69.7777 38.9002 70.1739 38.6471 70.3721C38.394 70.5702 38.0144 70.5522 37.7975 70.336C37.5625 70.1379 37.5082 69.8677 37.6709 69.5435C37.7613 69.8497 37.9059 70.0659 38.2494 70.0659C38.4844 70.0659 38.6471 69.9578 38.7556 69.7417C38.6652 69.6876 38.5748 69.6696 38.5206 69.6156H38.5025Z" fill="white"/>
<path d="M7.89935 54.9542C7.64627 54.6841 7.35704 54.522 7.03165 54.4319C6.70627 54.3418 6.39895 54.3779 6.05549 54.4859C5.74818 54.594 5.51318 54.7381 5.3324 54.9542C5.15163 55.1524 5.04317 55.3865 4.98894 55.6387C4.93471 55.8909 4.93471 56.143 5.00702 56.3772H4.95278C4.82625 56.1971 4.68163 56.0349 4.50086 55.9089C4.32009 55.7828 4.12124 55.6927 3.90431 55.6567C3.68739 55.6207 3.45238 55.6567 3.21738 55.7287C2.91007 55.8368 2.65699 55.9989 2.45814 56.2331C2.25929 56.4672 2.15083 56.7554 2.11468 57.1156C2.07852 57.4759 2.15083 57.8721 2.29545 58.3404L3.14507 60.8441L9.41783 58.7547L8.51398 56.089C8.35128 55.6207 8.15243 55.2604 7.88128 54.9903L7.89935 54.9542ZM3.77777 59.151L3.43431 58.1423C3.34392 57.8541 3.32584 57.602 3.41623 57.3858C3.50662 57.1877 3.65123 57.0436 3.88624 56.9716C4.04893 56.9175 4.21162 56.9175 4.35624 56.9535C4.50086 56.9896 4.6274 57.0796 4.73586 57.2057C4.84432 57.3318 4.93471 57.4759 4.98894 57.656L5.31433 58.6286L3.7597 59.151H3.77777ZM6.21818 58.3404L5.83856 57.2417C5.76626 57.0256 5.74818 56.8275 5.76626 56.6473C5.78433 56.4672 5.85664 56.3231 5.9651 56.179C6.07357 56.053 6.21818 55.9629 6.38088 55.9089C6.61588 55.8368 6.83281 55.8548 7.03165 55.9629C7.2305 56.089 7.3932 56.3231 7.51973 56.7014L7.88128 57.7821L6.21818 58.3404Z" fill="white"/>
<path d="M6.99584 49.4956L4.2662 49.7657L3.99504 46.9559L6.70661 46.6857L6.58007 45.2988L0 45.9473L0.144617 47.3342L2.85618 47.064L3.12734 49.8738L0.415774 50.144L0.542313 51.5309L7.12238 50.8825L6.99584 49.4956Z" fill="white"/>
<path d="M6.79678 40.8326L5.36869 40.1481L5.69408 37.7886L7.24871 37.5004L7.44756 36.0234L0.596331 37.3923L0.361328 39.1755L6.59794 42.3095L6.79678 40.8326ZM1.9702 38.473L4.55522 38.0047L4.3383 39.6618L1.9702 38.5271V38.473Z" fill="white"/>
<path d="M7.69953 27.0365L6.92222 26.7483L5.92797 29.324L6.90414 29.7022L7.4103 28.3874C7.6453 28.4955 7.84415 28.6215 7.98877 28.8017C8.13338 28.9818 8.22377 29.1979 8.25992 29.4501C8.278 29.7022 8.24184 29.9724 8.13338 30.2606C8.00683 30.5848 7.82607 30.837 7.57299 31.0171C7.31991 31.1972 7.03068 31.2873 6.66914 31.3053C6.32567 31.3053 5.92797 31.2513 5.49412 31.0891C5.06027 30.927 4.71681 30.7289 4.48181 30.4767C4.22873 30.2246 4.08411 29.9544 4.0118 29.6662C3.93949 29.378 3.97565 29.0718 4.10219 28.7476C4.17449 28.5855 4.2468 28.4414 4.33719 28.3153C4.42757 28.1893 4.53604 28.0992 4.66258 28.0091C4.78912 27.9371 4.91566 27.865 5.06027 27.847C5.20489 27.811 5.34951 27.811 5.5122 27.811L6.01836 26.4962C5.69297 26.4241 5.38566 26.4061 5.06027 26.4601C4.75296 26.5142 4.46373 26.6222 4.17449 26.7843C3.90334 26.9464 3.65026 27.1626 3.43333 27.4148C3.21641 27.6849 3.03564 27.9911 2.9091 28.3333C2.7464 28.7476 2.67409 29.1439 2.69217 29.5581C2.69217 29.9544 2.80063 30.3507 2.96333 30.7109C3.1441 31.0711 3.39718 31.4134 3.72257 31.7015C4.06603 31.9897 4.48181 32.2419 4.98796 32.422C5.63874 32.6742 6.25336 32.7642 6.81375 32.6922C7.37414 32.6382 7.8803 32.422 8.29608 32.0798C8.71185 31.7376 9.03724 31.2873 9.25416 30.7109C9.45301 30.1886 9.52532 29.7022 9.47109 29.2159C9.41686 28.7296 9.23609 28.2973 8.92878 27.9371C8.62146 27.5769 8.20569 27.2707 7.66338 27.0725L7.69953 27.0365Z" fill="white"/>
<path d="M6.95198 20.5039L6.22656 21.6876L11.8732 25.1232L12.5987 23.9396L6.95198 20.5039Z" fill="white"/>
<path d="M15.4371 20.0286L13.6656 18.4976L14.3344 17.7231L16.9194 18.3175L17.9318 17.1647L15.0756 16.5343C15.0756 16.5343 15.0937 16.4983 15.0937 16.4803C15.2021 16.1021 15.2021 15.7418 15.0937 15.3816C14.9852 15.0213 14.7502 14.7151 14.4248 14.427C14.0994 14.1388 13.7559 13.9587 13.3763 13.8866C13.0148 13.8146 12.6352 13.8506 12.2736 13.9947C11.9121 14.1388 11.5505 14.4089 11.2251 14.7872L9.50781 16.7505L14.479 21.0913L15.401 20.0466L15.4371 20.0286ZM11.9482 15.7418C12.129 15.5437 12.3098 15.3996 12.4725 15.3095C12.6532 15.2195 12.8159 15.2015 12.9967 15.2375C13.1594 15.2735 13.3402 15.3636 13.5029 15.5077C13.6656 15.6518 13.774 15.7959 13.8283 15.958C13.8825 16.1201 13.8825 16.2822 13.8283 16.4623C13.774 16.6424 13.6475 16.8405 13.4667 17.0387L12.834 17.7411L11.3336 16.4263L11.9482 15.7238V15.7418Z" fill="white"/>
<path d="M21.0605 14.5173L20.5724 13.0223L22.5066 11.6174L23.7901 12.554L25.0013 11.6715L19.2708 7.67285L17.8066 8.73554L19.8493 15.3999L21.0605 14.5173ZM19.4516 9.40198L21.5847 10.951L20.2289 11.9416L19.4155 9.45601L19.4516 9.41999V9.40198Z" fill="white"/>
<path d="M26.3378 4.93549L28.5794 9.88872L29.8267 9.33036L27.5852 4.37713L29.429 3.54859L28.959 2.50391L24.0059 4.71935L24.494 5.76403L26.3378 4.93549Z" fill="white"/>
<path d="M36.0108 7.27674L35.4866 4.611L38.2705 4.05264L38.7947 6.73639L40.1686 6.46621L38.8851 0L37.5112 0.270176L38.0355 2.93591L35.2516 3.47627L34.7273 0.810528L33.3535 1.0807L34.637 7.54692L36.0108 7.27674Z" fill="white"/>
<path d="M54.5027 4.68382L57.2323 5.44032L56.4911 8.05202L57.8469 8.43027L59.6185 2.09013L58.2808 1.71189L57.5396 4.32359L54.81 3.5671L55.5331 0.955395L54.1954 0.577148L52.4238 6.91728L53.7615 7.29553L54.5027 4.68382Z" fill="white"/>
<path d="M63.4862 11.2214C63.9923 11.5096 64.5166 11.6537 65.0589 11.6357C65.6012 11.6357 66.1074 11.4736 66.5955 11.1674C67.0835 10.8612 67.4993 10.3929 67.8608 9.76247C68.2224 9.13206 68.4032 8.53768 68.4032 7.9613C68.4032 7.38492 68.2766 6.8806 68.0055 6.41229C67.7343 5.94399 67.3366 5.58375 66.8305 5.29556C66.3243 5.00738 65.8001 4.86328 65.2577 4.86328C64.7154 4.86328 64.2093 5.02539 63.7212 5.33159C63.2331 5.63779 62.8173 6.10609 62.4739 6.7365C62.1123 7.36691 61.9316 7.9613 61.9316 8.53768C61.9316 9.11405 62.0581 9.61838 62.3293 10.0867C62.6004 10.555 62.9981 10.9152 63.5043 11.2034L63.4862 11.2214ZM63.685 7.45697C63.92 7.0427 64.1731 6.7365 64.4443 6.53837C64.7154 6.32223 65.0047 6.21416 65.312 6.19615C65.6193 6.17814 65.9085 6.25018 66.1978 6.41229C66.487 6.5744 66.7039 6.79054 66.8485 7.06071C66.9931 7.33089 67.0293 7.63709 66.9931 7.97931C66.957 8.32153 66.8305 8.69978 66.5955 9.11405C66.3604 9.52832 66.1074 9.83452 65.8362 10.0327C65.5651 10.2488 65.2758 10.3569 64.9685 10.3749C64.6612 10.3929 64.372 10.3208 64.0827 10.1587C63.7935 9.99663 63.5766 9.78049 63.432 9.51031C63.2873 9.24013 63.2512 8.93393 63.2873 8.59171C63.3235 8.24949 63.45 7.87124 63.685 7.45697Z" fill="white"/>
<path d="M72.8129 12.356L72.849 12.392L71.0956 16.6427L71.7644 17.2912L75.9583 15.4179L75.9945 15.454L73.0117 18.534L73.9698 19.4706L78.5795 14.7515L77.3322 13.5447L72.9394 15.472L72.8852 15.4179L74.6748 10.969L73.4275 9.78027L68.8359 14.5174L69.8121 15.454L72.8129 12.356Z" fill="white"/>
<path d="M78.3452 25.9193L79.3213 25.3069L77.6763 22.7312L79.014 21.8847L80.5325 24.2622L81.5086 23.6498L79.9902 21.2723L81.3279 20.4438L82.9548 23.0014L83.931 22.389L81.5448 18.6426L75.959 22.1549L78.3452 25.9193Z" fill="white"/>
<path d="M83.3524 32.9261C83.6055 32.836 83.8224 32.6919 83.9851 32.5298C84.1478 32.3677 84.2744 32.1696 84.3648 31.9534C84.4551 31.7373 84.5094 31.4851 84.5274 31.233C84.5274 30.9628 84.5275 30.6926 84.4913 30.4044L84.419 29.81C84.4009 29.6659 84.3828 29.5218 84.3828 29.3958C84.3828 29.2697 84.3828 29.1436 84.419 29.0175C84.4371 28.9094 84.4913 28.8014 84.5455 28.7293C84.6178 28.6393 84.6901 28.5852 84.8167 28.5492C84.9432 28.4952 85.0878 28.4952 85.2144 28.5492C85.3409 28.5852 85.4675 28.6753 85.594 28.8014C85.7025 28.9274 85.8109 29.0896 85.8832 29.3057C85.9917 29.6119 86.0278 29.9001 85.9555 30.1342C85.8832 30.3684 85.7386 30.5485 85.5036 30.6566L85.9736 31.9174C86.3352 31.7733 86.6244 31.5572 86.8413 31.269C87.0582 30.9808 87.1667 30.6206 87.2029 30.2243C87.239 29.828 87.1667 29.3958 86.9859 28.9274C86.8232 28.4772 86.5882 28.0989 86.299 27.8107C86.0098 27.5225 85.6844 27.3244 85.3409 27.2163C84.9794 27.1083 84.6178 27.1443 84.2382 27.2704C83.7863 27.4325 83.479 27.7207 83.3163 28.1169C83.1536 28.5132 83.1174 28.9995 83.1717 29.5759L83.244 30.3144C83.2801 30.5665 83.2801 30.7646 83.2801 30.9448C83.2801 31.1249 83.2259 31.269 83.1717 31.3951C83.0994 31.5211 83.009 31.5932 82.8644 31.6472C82.7197 31.7013 82.5751 31.7013 82.4124 31.6472C82.2497 31.5932 82.1232 31.5031 81.9967 31.359C81.8701 31.2149 81.7616 31.0348 81.6893 30.8187C81.599 30.5845 81.5628 30.3864 81.5628 30.1703C81.5628 29.9721 81.617 29.792 81.7255 29.6299C81.8159 29.4678 81.9786 29.3417 82.1774 29.2517L81.7074 27.9908C81.2736 28.171 80.9301 28.4051 80.7132 28.7293C80.4963 29.0535 80.3697 29.4138 80.3516 29.846C80.3516 30.2783 80.4239 30.7286 80.6047 31.233C80.7855 31.7373 81.0205 32.1335 81.3097 32.4397C81.599 32.7459 81.9063 32.9441 82.2497 33.0161C82.5932 33.1062 82.9547 33.0701 83.3344 32.9441L83.3524 32.9261Z" fill="white"/>
<path d="M82.5762 38.3833L82.757 39.7522L88.162 39.0137L88.4513 40.995L89.5901 40.8509L88.849 35.4834L87.7101 35.6455L87.9812 37.6448L82.5762 38.3833Z" fill="white"/>
<path d="M83.1541 43.7148L83.0637 45.2098L84.5279 45.8042L84.3652 48.1818L82.8287 48.578L82.7383 50.073L89.481 48.2358L89.6076 46.4526L83.1541 43.7509V43.7148ZM88.0349 47.2271L85.486 47.8756L85.5945 46.2005L88.0349 47.1731V47.2271Z" fill="white"/>
<path d="M81.7077 54.2701L81.3281 55.6029L83.5697 56.2514L87.0043 59.7456L87.4382 58.2326L85.1243 56.0172L85.1424 55.9452L88.3059 55.2967L88.7397 53.8018L83.9674 54.9185L81.7077 54.2701Z" fill="white"/>
</g>
<defs>
<clipPath id="clip0_116_5">
<rect width="90" height="103" fill="white"/>
</clipPath>
</defs>
</svg>
