<svg width="1189" height="320" viewBox="0 0 1189 320" fill="none" xmlns="http://www.w3.org/2000/svg">
<path d="M236.425 136.75C243.935 141.04 252.375 143.18 261.735 143.18C269.115 143.18 276.075 141.8 282.595 139.03C287.195 137.08 291.295 134.5 294.885 131.3C297.345 129.1 297.465 125.29 295.145 122.94L291.675 119.41C289.585 117.28 286.205 117.08 283.915 118.99C281.615 120.9 279.065 122.44 276.275 123.61C271.855 125.46 267.015 126.38 261.735 126.38C255.405 126.38 249.805 125.03 244.925 122.33C240.045 119.63 236.285 115.8 233.655 110.86C233.335 110.25 233.025 109.63 232.745 109C231.035 105.19 233.855 100.87 238.035 100.87H298.905C301.875 100.87 304.395 98.63 304.655 95.67C304.655 95.65 304.655 95.64 304.655 95.62C304.785 94.11 304.855 92.69 304.855 91.37C304.855 82.54 302.975 74.63 299.215 67.64C295.455 60.65 290.245 55.18 283.595 51.22C276.935 47.26 269.255 45.29 260.555 45.29C251.855 45.29 243.255 47.43 235.935 51.72C228.615 56.01 222.815 61.84 218.535 69.22C214.245 76.6 212.105 84.91 212.105 94.14C212.105 103.37 214.285 111.87 218.635 119.26C222.985 126.64 228.915 132.48 236.435 136.76L236.425 136.75ZM244.145 65.66C248.755 63.02 254.095 61.7 260.165 61.7C266.235 61.7 270.905 62.92 274.995 65.36C279.085 67.8 282.245 71.23 284.485 75.64C284.925 76.51 285.325 77.42 285.675 78.36C287.065 82.08 284.185 86.02 280.215 86.02H238.175C233.895 86.02 231.135 81.54 232.985 77.68C233.145 77.36 233.305 77.04 233.465 76.72C235.965 71.97 239.525 68.28 244.145 65.65V65.66Z" fill="white"/>
<path d="M351.325 66.5498C355.935 63.8498 361.215 62.4998 367.145 62.4998C372.155 62.4998 376.735 63.3899 380.885 65.1699C382.775 65.9799 384.545 66.9698 386.175 68.1198C389.585 70.5298 394.195 70.2498 397.145 67.2998L397.175 67.2698C400.775 63.6698 400.425 57.6798 396.365 54.6198C393.585 52.5298 390.565 50.7699 387.315 49.3499C381.115 46.6499 374.395 45.2998 367.145 45.2998C357.915 45.2998 349.575 47.4399 342.125 51.7299C334.675 56.0199 328.805 61.8499 324.525 69.2299C320.235 76.6099 318.095 84.9198 318.095 94.1498C318.095 103.38 320.235 111.52 324.525 118.97C328.805 126.42 334.675 132.32 342.125 136.67C349.575 141.02 357.915 143.2 367.145 143.2C374.395 143.2 381.155 141.82 387.415 139.05C390.665 137.61 393.665 135.87 396.405 133.83C400.465 130.8 400.825 124.84 397.275 121.22C394.355 118.25 389.735 117.91 386.315 120.31C384.625 121.49 382.815 122.5 380.885 123.33C376.735 125.11 372.145 126 367.145 126C361.215 126 355.935 124.62 351.325 121.85C346.705 119.08 343.085 115.32 340.445 110.58C337.805 105.83 336.485 100.36 336.485 94.1699C336.485 87.9799 337.805 82.4998 340.445 77.7498C343.085 72.9998 346.705 69.2798 351.325 66.5798V66.5498Z" fill="white"/>
<path d="M486.895 51.7098C479.445 47.4298 471.175 45.2798 462.075 45.2798C452.975 45.2798 444.535 47.4598 437.155 51.8098C429.765 56.1598 423.905 61.9898 419.555 69.3098C415.205 76.6298 413.025 84.8297 413.025 93.9297C413.025 103.03 415.205 111.5 419.555 118.95C423.905 126.4 429.775 132.3 437.155 136.65C444.535 141 452.845 143.18 462.075 143.18C471.305 143.18 479.445 141 486.895 136.65C494.345 132.3 500.245 126.4 504.595 118.95C508.945 111.5 511.125 103.16 511.125 93.9297C511.125 84.6997 508.945 76.5898 504.595 69.2098C500.245 61.8298 494.345 55.9898 486.895 51.7098ZM488.775 110.45C486.135 115.26 482.515 119.05 477.895 121.82C473.275 124.59 468.005 125.97 462.075 125.97C456.145 125.97 450.865 124.59 446.255 121.82C441.635 119.05 438.015 115.26 435.375 110.45C432.735 105.64 431.415 100.13 431.415 93.9398C431.415 87.7498 432.735 82.4698 435.375 77.7198C438.015 72.9698 441.635 69.2497 446.255 66.5497C450.865 63.8497 456.145 62.4998 462.075 62.4998C468.005 62.4998 473.245 63.8497 477.795 66.5497C482.345 69.2497 485.965 72.9798 488.675 77.7198C491.375 82.4698 492.725 87.8698 492.725 93.9398C492.725 100.01 491.405 105.64 488.765 110.45H488.775Z" fill="white"/>
<path d="M548.905 8.90002C548.905 3.98469 544.921 0 540.005 0C535.09 0 531.105 3.98469 531.105 8.90002V132.31C531.105 137.225 535.09 141.21 540.005 141.21C544.921 141.21 548.905 137.225 548.905 132.31V8.90002Z" fill="white"/>
<path d="M660.435 118.95C664.785 111.5 666.965 103.16 666.965 93.9297C666.965 84.6997 664.785 76.5898 660.435 69.2098C656.085 61.8298 650.185 55.9898 642.735 51.7098C635.285 47.4298 627.015 45.2798 617.915 45.2798C608.815 45.2798 600.375 47.4598 592.995 51.8098C585.605 56.1598 579.745 61.9898 575.395 69.3098C571.045 76.6298 568.865 84.8297 568.865 93.9297C568.865 103.03 571.045 111.5 575.395 118.95C579.745 126.4 585.615 132.3 592.995 136.65C600.375 141 608.685 143.18 617.915 143.18C627.145 143.18 635.285 141 642.735 136.65C650.185 132.3 656.085 126.4 660.435 118.95ZM633.745 121.82C629.125 124.59 623.855 125.97 617.925 125.97C611.995 125.97 606.715 124.59 602.105 121.82C597.485 119.05 593.865 115.26 591.225 110.45C588.585 105.64 587.265 100.13 587.265 93.9398C587.265 87.7498 588.585 82.4698 591.225 77.7198C593.865 72.9698 597.485 69.2497 602.105 66.5497C606.715 63.8497 611.995 62.4998 617.925 62.4998C623.855 62.4998 629.095 63.8497 633.645 66.5497C638.195 69.2497 641.815 72.9798 644.525 77.7198C647.225 82.4698 648.575 87.8698 648.575 93.9398C648.575 100.01 647.255 105.64 644.615 110.45C641.975 115.26 638.355 119.05 633.735 121.82H633.745Z" fill="white"/>
<path d="M751.705 176.8C759.155 172.97 764.955 167.7 769.105 160.98C773.255 154.26 775.335 146.41 775.335 137.45V50.0198C775.335 48.4998 774.105 47.2598 772.575 47.2598H760.285C758.765 47.2598 757.525 48.4898 757.525 50.0198V52.6598C757.525 55.0598 754.695 56.2797 752.895 54.6797C750.685 52.7297 748.205 51.0398 745.455 49.6298C739.785 46.7298 733.255 45.2798 725.875 45.2798C717.305 45.2798 709.625 47.3598 702.835 51.5098C696.045 55.6598 690.675 61.2698 686.715 68.3198C682.755 75.3698 680.785 83.3798 680.785 92.3498C680.785 101.32 682.765 109.39 686.715 116.58C690.675 123.77 696.045 129.4 702.835 133.49C709.625 137.58 717.305 139.62 725.875 139.62C733.125 139.62 739.585 138.17 745.255 135.27C748.105 133.81 750.675 132.06 752.945 130.01C754.705 128.42 757.515 129.7 757.515 132.07V137.44C757.515 146.01 754.715 152.83 749.115 157.91C743.505 162.98 735.895 165.52 726.275 165.52C719.025 165.52 712.755 164.23 707.485 161.66C703.055 159.5 699.145 156.53 695.735 152.75C694.665 151.57 692.835 151.51 691.715 152.64L684.015 160.47C683.035 161.46 682.965 163.03 683.815 164.13C688.105 169.64 693.585 174 700.265 177.18C701.125 177.59 701.995 177.97 702.885 178.32C703.925 178.74 704.595 179.75 704.595 180.87V227.58C704.595 229.99 701.745 231.21 699.965 229.59C697.545 227.39 694.835 225.5 691.815 223.92C685.995 220.88 679.505 219.36 672.345 219.36C663.415 219.36 655.435 221.59 648.405 226.05C641.375 230.51 635.795 236.53 631.675 244.1C627.545 251.67 625.485 260.19 625.485 269.66C625.485 279.13 627.545 287.65 631.675 295.22C635.795 302.8 641.375 308.78 648.405 313.17C655.435 317.57 663.415 319.76 672.345 319.76C679.645 319.76 686.205 318.24 692.025 315.2C694.985 313.65 697.655 311.79 700.015 309.62C701.765 308.02 704.595 309.3 704.595 311.68V314.98C704.595 316.5 705.825 317.74 707.355 317.74H720.305C721.825 317.74 723.065 316.51 723.065 314.98V185.27C723.065 183.73 724.325 182.51 725.865 182.51C725.865 182.51 725.885 182.51 725.895 182.51C735.655 182.51 744.255 180.6 751.705 176.77V176.8ZM744.785 119.05C740.365 121.56 735.255 122.81 729.455 122.81C723.655 122.81 718.285 121.52 713.735 118.95C709.185 116.38 705.625 112.79 703.055 108.17C700.485 103.56 699.195 98.2798 699.195 92.3498C699.195 86.4198 700.485 81.1798 703.055 76.6298C705.625 72.0798 709.155 68.5198 713.635 65.9498C718.115 63.3798 723.325 62.0898 729.255 62.0898C735.185 62.0898 740.335 63.3698 744.685 65.9498C749.035 68.5198 752.425 72.0798 754.875 76.6298C757.315 81.1798 758.535 86.4897 758.535 92.5497C758.535 98.6097 757.345 103.92 754.975 108.47C752.605 113.02 749.205 116.55 744.785 119.05ZM691.335 298.28C686.805 301.12 681.495 302.54 675.415 302.54C669.335 302.54 663.955 301.12 659.285 298.28C654.615 295.44 650.965 291.55 648.335 286.62C645.695 281.69 644.375 275.97 644.375 269.48C644.375 262.99 645.695 257.48 648.335 252.54C650.975 247.61 654.585 243.72 659.185 240.88C663.785 238.04 669.125 236.62 675.215 236.62C681.305 236.62 686.605 238.04 691.135 240.88C695.665 243.72 699.245 247.57 701.885 252.44C704.525 257.31 705.845 263.06 705.845 269.68C705.845 276.3 704.555 281.68 701.995 286.62C699.425 291.56 695.875 295.44 691.345 298.28H691.335Z" fill="white"/>
<path d="M810.545 28.4798C813.835 28.4798 816.545 27.3898 818.655 25.2198C820.765 23.0398 821.815 20.3098 821.815 17.0098C821.815 13.7098 820.755 11.1798 818.655 8.99976C816.545 6.81976 813.845 5.73975 810.545 5.73975C807.245 5.73975 804.545 6.82976 802.435 8.99976C800.325 11.1798 799.275 13.8498 799.275 17.0098C799.275 20.1698 800.325 23.0398 802.435 25.2198C804.545 27.3998 807.245 28.4798 810.545 28.4798Z" fill="white"/>
<path d="M819.445 56.1603C819.445 51.2449 815.461 47.2603 810.545 47.2603C805.63 47.2603 801.645 51.2449 801.645 56.1603V132.3C801.645 137.216 805.63 141.2 810.545 141.2C815.461 141.2 819.445 137.216 819.445 132.3V56.1603Z" fill="white"/>
<path d="M872.845 66.5498C877.455 63.8498 882.735 62.4998 888.665 62.4998C893.675 62.4998 898.255 63.3899 902.405 65.1699C904.295 65.9799 906.055 66.9598 907.675 68.1098C911.095 70.5198 915.715 70.2499 918.675 67.2899C922.285 63.6799 921.935 57.6699 917.855 54.5999C915.075 52.5199 912.065 50.7699 908.825 49.3499C902.625 46.6499 895.905 45.2998 888.655 45.2998C879.425 45.2998 871.085 47.4399 863.635 51.7299C856.185 56.0199 850.315 61.8499 846.035 69.2299C841.745 76.6099 839.605 84.9198 839.605 94.1498C839.605 103.38 841.745 111.52 846.035 118.97C850.315 126.42 856.185 132.32 863.635 136.67C871.085 141.02 879.425 143.2 888.655 143.2C895.905 143.2 902.665 141.82 908.925 139.05C912.175 137.61 915.175 135.87 917.915 133.83C921.975 130.8 922.335 124.84 918.785 121.22C915.865 118.25 911.245 117.91 907.825 120.31C906.135 121.49 904.325 122.5 902.395 123.33C898.245 125.11 893.655 126 888.655 126C882.725 126 877.445 124.62 872.835 121.85C868.215 119.08 864.595 115.32 861.955 110.58C859.315 105.83 857.995 100.36 857.995 94.1699C857.995 87.9799 859.315 82.4998 861.955 77.7498C864.595 72.9998 868.215 69.2798 872.835 66.5798L872.845 66.5498Z" fill="white"/>
<path d="M1011.88 137.56C1011.88 139.57 1013.51 141.2 1015.52 141.2H1026.24C1028.25 141.2 1029.88 139.57 1029.88 137.56V50.8998C1029.88 48.8898 1028.25 47.2598 1026.24 47.2598H1015.52C1013.51 47.2598 1011.88 48.8898 1011.88 50.8998V51.0398C1011.88 54.1398 1008.29 55.7698 1005.89 53.8098C1004 52.2698 1001.95 50.9098 999.715 49.7298C994.105 46.7598 987.755 45.2798 980.635 45.2798C971.935 45.2798 964.125 47.4598 957.195 51.8098C950.275 56.1598 944.805 62.0298 940.785 69.4098C936.765 76.7898 934.755 85.0998 934.755 94.3298C934.755 103.56 936.765 111.87 940.785 119.25C944.805 126.63 950.305 132.47 957.295 136.75C964.285 141.04 972.055 143.18 980.635 143.18C987.885 143.18 994.315 141.7 999.915 138.73C1002.07 137.59 1004.06 136.28 1005.88 134.8C1008.29 132.84 1011.88 134.46 1011.88 137.57V137.56ZM967.765 122.22C963.145 119.45 959.555 115.66 956.985 110.85C954.415 106.04 953.125 100.47 953.125 94.1398C953.125 87.8098 954.415 82.4398 956.985 77.6298C959.555 72.8198 963.115 69.0298 967.665 66.2598C972.215 63.4898 977.455 62.1097 983.385 62.1097C989.315 62.1097 994.525 63.4598 999.005 66.1598C1003.49 68.8598 1006.95 72.6197 1009.39 77.4297C1011.83 82.2397 1013.05 87.8798 1013.05 94.3398C1013.05 103.7 1010.35 111.38 1004.94 117.38C999.525 123.38 992.405 126.38 983.575 126.38C977.645 126.38 972.365 125 967.755 122.23L967.765 122.22Z" fill="white"/>
<path d="M1073.58 8.90002C1073.58 3.98469 1069.59 0 1064.68 0C1059.76 0 1055.78 3.98469 1055.78 8.90002V132.31C1055.78 137.225 1059.76 141.21 1064.68 141.21C1069.59 141.21 1073.58 137.225 1073.58 132.31V8.90002Z" fill="white"/>
<path d="M262.305 193C265.485 189.62 269.975 187.93 275.795 187.93C278.905 187.93 281.545 188.44 283.705 189.45C284.065 189.62 284.425 189.8 284.765 189.99C288.015 191.79 292.025 191.41 294.665 188.81L295.075 188.41C298.875 184.68 298.245 178.31 293.715 175.52C292.635 174.85 291.525 174.26 290.395 173.73C286.335 171.84 281.535 170.89 275.995 170.89C268.695 170.89 262.305 172.45 256.825 175.55C251.345 178.66 247.055 182.89 243.945 188.23C240.835 193.57 239.275 199.83 239.275 206.99V221.39H223.855C219.265 221.39 215.535 225.11 215.535 229.71C215.535 234.3 219.255 238.03 223.855 238.03H239.275V308.62C239.275 313.66 243.365 317.75 248.405 317.75C253.445 317.75 257.535 313.66 257.535 308.62V238.03H279.845C284.435 238.03 288.165 234.31 288.165 229.71C288.165 225.12 284.445 221.39 279.845 221.39H257.535V206.99C257.535 201.04 259.125 196.38 262.305 192.99V193Z" fill="white"/>
<path d="M370.425 225.97C362.785 221.58 354.295 219.38 344.965 219.38C335.635 219.38 326.975 221.61 319.405 226.07C311.825 230.53 305.815 236.52 301.355 244.02C296.895 251.52 294.665 259.94 294.665 269.27C294.665 278.6 296.895 287.29 301.355 294.93C305.815 302.57 311.835 308.62 319.405 313.09C326.975 317.55 335.495 319.78 344.965 319.78C354.435 319.78 362.785 317.55 370.425 313.09C378.065 308.63 384.115 302.58 388.575 294.93C393.035 287.29 395.265 278.74 395.265 269.27C395.265 259.8 393.035 251.49 388.575 243.91C384.115 236.34 378.055 230.35 370.425 225.96V225.97ZM372.355 286.21C369.645 291.15 365.935 295.03 361.195 297.87C356.465 300.71 351.055 302.13 344.965 302.13C338.875 302.13 333.465 300.71 328.735 297.87C324.005 295.03 320.285 291.14 317.575 286.21C314.865 281.28 313.515 275.63 313.515 269.27C313.515 262.91 314.865 257.5 317.575 252.64C320.275 247.77 323.995 243.95 328.735 241.18C333.465 238.41 338.875 237.02 344.965 237.02C351.055 237.02 356.425 238.41 361.095 241.18C365.765 243.95 369.475 247.77 372.255 252.64C375.025 257.51 376.415 263.05 376.415 269.27C376.415 275.49 375.065 281.27 372.355 286.21Z" fill="white"/>
<path d="M477.625 276.58C477.625 284.56 475.595 290.81 471.535 295.34C467.475 299.87 461.865 302.14 454.695 302.14C449.955 302.14 445.835 301.13 442.325 299.1C438.805 297.07 436.135 294.13 434.315 290.28C432.485 286.43 431.575 281.86 431.575 276.59V230.54C431.575 225.5 427.485 221.41 422.445 221.41C417.405 221.41 413.315 225.5 413.315 230.54V277.4C413.315 285.79 415.075 293.16 418.585 299.51C422.095 305.87 427.005 310.84 433.295 314.42C439.585 318 446.715 319.8 454.695 319.8C462.675 319.8 469.945 318.01 476.095 314.42C482.245 310.84 487.085 305.87 490.595 299.51C494.115 293.15 495.865 285.79 495.865 277.4V230.54C495.865 225.5 491.775 221.41 486.735 221.41C481.695 221.41 477.605 225.5 477.605 230.54V276.59L477.625 276.58Z" fill="white"/>
<path d="M588.685 224.85C583.075 221.2 576.615 219.37 569.315 219.37C562.015 219.37 555.455 221.03 549.635 224.34C545.255 226.84 541.605 230.01 538.685 233.85V230.53C538.685 225.49 534.595 221.4 529.555 221.4C524.515 221.4 520.425 225.49 520.425 230.53V308.63C520.425 313.67 524.515 317.76 529.555 317.76C534.595 317.76 538.685 313.67 538.685 308.63V261.57C538.685 256.7 539.765 252.37 541.935 248.59C544.095 244.81 547.075 241.83 550.865 239.66C554.645 237.5 558.975 236.41 563.845 236.41C571.145 236.41 577.095 238.78 581.695 243.51C586.295 248.24 588.595 254.26 588.595 261.56V308.62C588.595 313.66 592.685 317.75 597.725 317.75C602.765 317.75 606.855 313.66 606.855 308.62V257.91C606.855 251.29 605.235 245.03 601.985 239.15C598.735 233.27 594.305 228.5 588.695 224.85H588.685Z" fill="white"/>
<path d="M822.675 234.5C819.365 230.11 815.205 226.58 810.195 223.93C804.445 220.89 797.925 219.37 790.625 219.37C781.695 219.37 773.685 221.6 766.585 226.06C759.485 230.52 753.875 236.54 749.745 244.11C745.615 251.68 743.555 260.2 743.555 269.67C743.555 279.14 745.615 287.66 749.745 295.23C753.865 302.81 759.515 308.79 766.685 313.18C773.855 317.58 781.825 319.77 790.625 319.77C798.065 319.77 804.655 318.25 810.405 315.21C815.345 312.59 819.435 309.1 822.675 304.73V308.52C822.675 313.62 826.805 317.75 831.905 317.75C837.005 317.75 841.135 313.62 841.135 308.52V230.63C841.135 225.53 837.005 221.4 831.905 221.4C826.805 221.4 822.675 225.53 822.675 230.63V234.5ZM815.575 293.31C810.025 299.47 802.725 302.54 793.665 302.54C787.575 302.54 782.165 301.12 777.435 298.28C772.705 295.44 769.015 291.55 766.375 286.62C763.735 281.69 762.415 275.97 762.415 269.48C762.415 262.99 763.735 257.48 766.375 252.54C769.015 247.61 772.665 243.72 777.325 240.88C781.995 238.04 787.365 236.62 793.455 236.62C799.545 236.62 804.885 238.01 809.475 240.78C814.075 243.55 817.625 247.41 820.125 252.34C822.625 257.28 823.875 263.06 823.875 269.68C823.875 279.28 821.105 287.16 815.555 293.31H815.575Z" fill="white"/>
<path d="M891.235 181.03C886.195 181.03 882.105 185.12 882.105 190.16V221.4H866.685C862.095 221.4 858.365 225.12 858.365 229.72C858.365 234.31 862.085 238.04 866.685 238.04H882.105V308.63C882.105 313.67 886.195 317.76 891.235 317.76C896.275 317.76 900.365 313.67 900.365 308.63V238.04H915.785C920.375 238.04 924.105 234.32 924.105 229.72C924.105 225.13 920.385 221.4 915.785 221.4H900.365V190.16C900.365 185.12 896.275 181.03 891.235 181.03Z" fill="white"/>
<path d="M951.285 178.8C947.905 178.8 945.125 179.92 942.965 182.15C940.805 184.38 939.715 187.12 939.715 190.37C939.715 193.62 940.795 196.56 942.965 198.79C945.125 201.02 947.895 202.14 951.285 202.14C954.675 202.14 957.435 201.02 959.605 198.79C961.765 196.56 962.855 193.75 962.855 190.37C962.855 186.99 961.775 184.39 959.605 182.15C957.445 179.92 954.665 178.8 951.285 178.8Z" fill="white"/>
<path d="M960.415 230.53C960.415 225.488 956.327 221.4 951.285 221.4C946.243 221.4 942.155 225.488 942.155 230.53V308.62C942.155 313.662 946.243 317.75 951.285 317.75C956.327 317.75 960.415 313.662 960.415 308.62V230.53Z" fill="white"/>
<path d="M1056.87 225.97C1049.23 221.58 1040.74 219.38 1031.41 219.38C1022.08 219.38 1013.42 221.61 1005.85 226.07C998.265 230.53 992.255 236.52 987.795 244.02C983.335 251.52 981.105 259.94 981.105 269.27C981.105 278.6 983.335 287.29 987.795 294.93C992.255 302.57 998.275 308.62 1005.85 313.09C1013.42 317.55 1021.94 319.78 1031.41 319.78C1040.88 319.78 1049.23 317.55 1056.87 313.09C1064.51 308.63 1070.56 302.58 1075.03 294.93C1079.49 287.29 1081.72 278.74 1081.72 269.27C1081.72 259.8 1079.49 251.49 1075.03 243.91C1070.57 236.34 1064.51 230.35 1056.87 225.96V225.97ZM1058.8 286.21C1056.09 291.15 1052.37 295.03 1047.64 297.87C1042.91 300.71 1037.5 302.13 1031.41 302.13C1025.32 302.13 1019.91 300.71 1015.18 297.87C1010.45 295.03 1006.73 291.14 1004.02 286.21C1001.31 281.28 999.955 275.63 999.955 269.27C999.955 262.91 1001.31 257.5 1004.02 252.64C1006.72 247.77 1010.44 243.95 1015.18 241.18C1019.91 238.41 1025.32 237.02 1031.41 237.02C1037.5 237.02 1042.87 238.41 1047.54 241.18C1052.21 243.95 1055.92 247.77 1058.7 252.64C1061.47 257.51 1062.86 263.05 1062.86 269.27C1062.86 275.49 1061.51 281.27 1058.8 286.21Z" fill="white"/>
<path d="M1183.75 239.15C1180.5 233.27 1176.07 228.5 1170.46 224.85C1164.85 221.2 1158.39 219.37 1151.09 219.37C1143.79 219.37 1137.23 221.03 1131.41 224.34C1127.03 226.84 1123.38 230.01 1120.46 233.85V230.53C1120.46 225.49 1116.37 221.4 1111.33 221.4C1106.29 221.4 1102.2 225.49 1102.2 230.53V308.63C1102.2 313.67 1106.29 317.76 1111.33 317.76C1116.37 317.76 1120.46 313.67 1120.46 308.63V261.57C1120.46 256.7 1121.54 252.37 1123.71 248.59C1125.87 244.81 1128.85 241.83 1132.64 239.66C1136.42 237.5 1140.75 236.41 1145.62 236.41C1152.92 236.41 1158.87 238.78 1163.47 243.51C1168.07 248.24 1170.37 254.26 1170.37 261.56V308.62C1170.37 313.66 1174.46 317.75 1179.5 317.75C1184.54 317.75 1188.63 313.66 1188.63 308.62V257.91C1188.63 251.29 1187.01 245.03 1183.76 239.15H1183.75Z" fill="white"/>
<path d="M167.495 115.39C162.875 112.4 158.195 109.92 152.995 108.19C150.635 107.4 148.475 106.32 146.075 105.66C144.885 105.34 143.705 105.03 142.525 104.69C143.715 104.13 144.885 103.48 145.875 102.7L146.935 102.08C145.675 102.81 178.535 90.6703 166.635 84.7603C167.885 82.8203 174.375 77.1703 172.145 75.2603C167.895 71.6203 162.375 72.3303 157.095 72.4003C154.025 72.4503 150.945 72.5903 147.885 72.8403C146.515 72.9503 140.515 72.7402 139.685 73.7502C143.885 68.6502 145.885 62.1402 147.795 55.8102C149.215 51.0902 150.635 46.3603 152.055 41.6403C152.355 40.6403 153.065 38.6802 152.265 37.7502C151.085 36.3702 143.945 38.4603 142.745 38.7203C138.385 39.6703 133.925 40.8903 129.885 42.8303C127.385 44.0303 125.005 45.4402 122.565 46.7402C121.385 47.3702 120.205 47.9803 118.985 48.5203C118.455 48.7603 115.765 49.4203 115.565 49.8403C118.125 44.4903 121.425 39.0503 122.655 33.2303C123.795 27.8503 124.505 22.3403 123.875 16.8503C123.735 15.6203 123.305 12.8903 121.825 12.9503C119.035 13.0703 116.685 15.3202 114.455 16.8002C113.085 17.7102 111.665 18.2302 110.555 19.3702C108.695 21.2802 106.655 22.8102 104.175 23.8602C101.865 24.8402 93.7452 32.0803 93.5852 34.9503C92.5452 34.1903 92.5452 33.2902 92.5352 32.3102C92.3452 21.1102 89.8952 9.98028 80.9352 2.41028C80.2552 1.83028 80.0252 0.910262 79.0352 1.02026C78.2252 1.12026 78.1552 1.76025 77.6352 2.38025C75.1952 5.31025 73.8352 8.71024 72.3752 12.1902C67.1052 24.6602 65.3652 46.7403 66.9152 60.6403C64.2952 58.2803 63.3852 55.3002 61.6952 52.5702C57.3352 45.5302 46.6752 31.3103 40.1252 26.9103C36.8052 24.6903 33.5652 22.3603 29.5852 21.7703C28.3852 21.5903 26.1352 21.7203 25.9252 23.1603C25.5452 25.7603 26.1852 28.5402 27.0252 31.1102C32.2052 46.9802 40.0652 66.1403 50.9652 78.8203C52.1652 80.2103 52.8552 81.2003 53.4352 82.9603C55.1052 87.9903 58.7952 91.8102 62.7552 95.5002C61.4052 96.9202 60.6252 98.0803 60.1552 99.7103C59.4752 102.09 59.0852 104.56 59.0152 107.02C22.0952 129.41 -1.4048 172.24 0.0652025 215.49C0.275202 221.75 0.995188 229.95 4.67519 237.88C5.84519 240.41 7.27521 242.8 8.94521 245.05C8.80521 245.85 8.67519 246.66 8.55519 247.47C6.43519 261.65 7.85521 273.15 12.9152 282.61C18.6652 293.37 30.4952 307.84 44.8752 313.21C54.7752 316.91 65.2952 318.78 75.7552 318.78C83.0852 318.78 90.3752 317.86 97.3952 316.02C116.065 311.11 133.665 292.72 138.335 273.25C139.815 267.09 136.015 260.9 129.855 259.43C123.695 257.95 117.505 261.75 116.035 267.91C113.335 279.2 102.125 291.08 91.5652 293.85C79.0652 297.14 65.3352 296.39 52.9052 291.74C46.3152 289.28 37.9952 280.89 33.1352 271.8C31.6352 268.99 30.7852 265.58 30.5752 261.48C36.5752 264.08 43.3552 266.01 50.8252 267.2C77.3952 271.45 100.835 265.35 115.115 250.47C129.925 235.05 133.605 210.91 124.065 191.78C121.275 186.19 117.725 181.78 113.495 178.68C109.105 175.46 103.655 173.37 96.8552 172.29C75.7052 168.95 53.0852 176.35 36.3352 192.08C31.3052 196.81 26.8352 202.24 23.0052 208.23C24.2052 175.27 42.8652 143.5 71.1652 126.49C76.9652 128.07 86.6252 127.95 87.8852 121.01C89.2352 122.45 90.0652 123.85 90.6852 125.39C91.3752 127.11 92.4552 128.41 93.3052 130.02C96.7552 136.58 101.345 142.17 106.345 147.63C107.205 148.57 114.065 156.05 114.105 156.07C116.275 157.53 117.875 159.68 119.955 161.34L129.205 168.73C130.935 170.11 134.445 172.55 136.455 171.43C137.475 170.87 138.185 169.82 138.195 168.56C138.215 166.93 138.325 165.22 137.925 163.55C134.715 150.01 127.275 138.29 118.465 127.52C115.945 124.43 113.045 121.91 110.965 118.38C114.715 119.69 118.085 121.24 121.935 122.22C133.385 125.14 149.425 128.25 161.035 127.43C164.445 127.19 167.605 126.64 170.855 125.43C172.355 124.87 174.195 124.86 175.265 123.38C176.285 121.97 168.675 116.18 167.485 115.41L167.495 115.39ZM52.0452 208.77C63.4952 198.02 79.3152 192.71 93.2952 194.92C96.3552 195.4 98.5952 196.15 99.9452 197.15C101.175 198.06 102.425 199.73 103.555 201.99C108.685 212.27 106.545 226.28 98.5852 234.57C85.7952 247.9 63.4652 245.98 54.4652 244.54C49.9452 243.82 41.2952 241.95 34.3452 237.61C38.0352 226.2 44.1152 216.23 52.0452 208.77Z" fill="white"/>
</svg>
