<svg width="1358" height="417" viewBox="0 0 1358 417" fill="none" xmlns="http://www.w3.org/2000/svg">
<path d="M1354.46 140.376C1351.04 134.883 1345.47 131.49 1339.15 130.95C1334.72 130.57 1330.34 130.377 1324.95 130.323C1322.58 130.297 1320.26 130.303 1317.94 130.31C1315.67 130.31 1313.4 130.317 1311.09 130.297C1305.02 130.237 1298.31 129.997 1290.12 128.83L1289.74 80.7544C1289.68 73.4484 1283.68 67.4489 1276.36 67.3756L1266.67 67.2756C1259.35 67.2023 1253.23 73.0818 1253.02 80.3878L1252.36 104.106C1252.28 106.705 1252.38 109.479 1252.47 112.418C1252.61 116.711 1252.76 121.384 1252.33 125.25C1249.77 125.024 1247.26 124.897 1244.75 124.87C1236.9 124.79 1229.13 125.717 1220.99 127.704C1217.43 128.57 1213.85 129.55 1210.39 130.503C1199.88 133.396 1189.95 136.129 1179.93 136.029C1179.18 136.023 1178.44 135.996 1177.71 135.956C1168.86 135.476 1160.22 133.416 1151.07 131.23C1143.57 129.437 1135.82 127.584 1127.85 126.65C1124.59 126.27 1121.28 126.057 1118.01 126.024C1067.7 125.524 1026.68 166.407 995.404 201.157C988.252 170.593 966.103 143.595 937.022 131.39C910.679 120.331 878.032 121.071 852.845 134.903C832.445 146.109 816.853 165.014 811.778 187.798C799.992 170.346 787.939 153.935 770.891 141.169C751.146 126.384 728.161 118.118 706.179 117.898C694.974 117.784 684.023 119.704 673.639 123.604C646.842 133.67 624.466 155.634 613.775 182.365C610.77 189.871 608.633 197.784 607.404 205.89C604.753 211.643 602.53 216.042 600.259 220.069C593.034 232.867 584.734 244.473 575.599 254.566C554.752 277.583 525.517 291.716 499.295 291.456C482.267 291.289 467.416 285.196 455.149 273.35C447.35 265.818 441.654 256.725 438.636 247.133C446.509 247.666 454.435 247.979 462.308 248.053C479.676 248.226 497.251 247.286 514.539 245.26C516.923 244.98 519.414 244.726 522.052 244.453C544.361 242.167 572.127 239.314 584.734 217.282C592.787 203.203 592.206 186.758 583.065 169.713C576.207 156.934 564.361 144.109 551.373 135.41C535.741 124.944 516.362 119.064 496.797 118.871C481.693 118.718 466.755 121.924 453.607 128.143C424.733 141.796 403.565 170.073 398.203 201.437C361.717 195.577 330.573 170.493 304.697 146.382C300.297 142.282 295.836 138.029 291.516 133.916C287.803 130.383 284.077 126.83 280.311 123.297C297.292 116.091 314.273 108.879 331.2 101.553C336.322 99.3327 340.115 95.5931 341.591 90.0269C344.208 80.1478 340.335 71.7885 335.307 63.5293C326.406 68.1155 317.692 72.6085 308.977 77.0947C309.545 76.0148 310.326 75.2882 311.128 74.5816C321.057 65.8357 330.947 57.0499 340.963 48.404C342.592 46.9974 342.733 45.8175 341.597 44.3377C339.067 41.0446 336.823 37.4116 333.798 34.6385C315.842 18.2 294.874 7.26099 271.216 1.52817C264.558 -0.0850224 257.801 -0.684969 251.003 1.04154C248.919 1.56816 247.931 2.50808 247.577 4.81454C245.12 20.9198 242.469 36.9983 239.871 53.0836C239.711 54.0635 239.497 55.03 239.31 56.0033C238.796 54.7634 238.73 53.5968 238.709 52.4369C238.516 40.7513 238.282 29.0724 238.202 17.3867C238.189 15.4069 237.554 14.7137 235.658 14.4937C227.171 13.5138 218.957 14.5403 211.145 17.9534C208.6 19.0599 206.17 20.6131 204.006 22.3596C199.753 25.806 198.29 30.2589 199.726 35.7118C202.898 47.7374 205.956 59.7896 209.041 71.8419C208.64 71.6619 208.24 71.4819 207.832 71.3086C187.205 62.4694 164.649 58.0498 138.88 57.7898C103.789 57.4365 68.2647 65.1691 41.2407 71.9419C31.3846 74.415 25.3681 84.4407 27.8321 94.2932C29.8688 102.432 37.154 108.179 45.5544 108.259C47.1236 108.272 48.6995 108.085 50.2286 107.705C78.8353 100.566 109.372 93.9999 138.833 94.2932C160.008 94.5065 178.364 98.1995 194.958 105.579C203.639 109.439 211.679 114.251 219.338 119.738C217.896 119.438 216.987 119.238 216.086 119.064C207.565 117.438 199.218 119.084 190.985 120.824C144.843 130.577 102.668 149.515 64.1313 176.493C43.3174 191.065 24.8406 208.096 11.9729 230.394C2.09679 247.506 -2.26366 265.764 1.14858 285.509C3.51911 299.235 8.66083 311.434 20.1997 320.106C27.2979 325.446 34.2559 331.005 41.6146 335.958C62.936 350.304 85.5797 362.389 108.564 373.828C129.645 384.321 151.24 393.76 173.296 401.999C186.838 407.059 200.541 411.671 214.77 414.451C221.809 415.824 228.907 417.138 236.065 415.238C263.543 407.958 280.705 389.68 290.708 363.889C297.131 347.317 299.863 329.992 300.504 312.334C302.113 268.231 293.953 225.715 278.969 184.398C276.898 178.692 274.655 173.059 272.151 167.553C276.211 171.466 280.324 175.359 284.498 179.119C316.964 208.383 356.395 229.488 398.757 240.307C399.305 242.493 399.993 245.386 400.52 247.593C402.383 255.399 402.997 257.845 403.458 259.045C406.537 267.051 410.597 274.69 415.531 281.77C434.362 308.754 465.453 324.439 500.817 324.793C522.259 325.006 543.373 319.56 561.863 309.034C577.122 300.355 590.39 289.836 601.308 277.79C605.555 273.104 609.668 268.111 613.601 262.878C618.382 274.81 625.093 285.543 633.574 294.795C642.381 304.408 652.992 312.1 665.125 317.673C677.305 323.266 690.807 326.172 705.244 326.319C714.599 326.412 723.794 325.286 732.568 322.966C741.37 320.646 749.549 317.24 756.881 312.84C764.227 308.441 770.724 303.174 776.193 297.188L776.36 297.002C781.228 291.642 782.984 284.256 781.068 277.25C779.131 270.184 773.796 264.671 766.791 262.511L760.991 260.719C757.549 259.656 753.885 261.513 752.708 264.918C751.56 268.244 749.496 271.477 746.578 274.524C743.419 277.823 739.56 280.803 735.093 283.396C730.592 286.016 725.644 288.069 720.375 289.516C715.16 290.949 709.825 291.649 704.523 291.596C696.289 291.516 688.45 289.676 681.225 286.136C673.866 282.53 667.342 277.583 661.826 271.424C656.297 265.251 651.884 257.825 648.712 249.339C645.54 240.853 643.977 231.694 644.077 222.108C644.284 201.224 653.807 180.405 668.918 167.773C679.876 158.614 693.304 153.428 705.758 153.555C706.78 153.568 707.801 153.608 708.803 153.688C731.013 155.461 749.87 166.28 766.47 186.752C781.455 205.237 792.66 229.121 802.549 250.193C803.878 253.019 805.187 255.812 806.482 258.545C816.352 279.343 830.902 304.874 856.057 317.873C868.704 324.406 883.234 327.939 898.085 328.086C918.799 328.292 938.965 321.973 954.865 310.294C973.755 296.415 986.022 276.417 997.888 257.079C1006.55 242.96 1014.85 229.434 1025.38 218.329L1024.14 382.827C1024.07 392.973 1032.28 401.312 1042.44 401.419C1052.46 401.519 1060.86 393.42 1061.1 383.427C1061.46 369.302 1061.81 356.49 1062.15 343.671C1062.41 333.752 1062.68 323.619 1062.96 312.834C1067.89 316.593 1072.95 319.206 1075.53 320.433C1086.01 325.406 1097.4 328.459 1109.38 329.512C1111.78 329.725 1114.24 329.839 1116.67 329.865C1147.74 330.179 1178.95 315.007 1198.12 290.282C1220.19 261.818 1224.18 221.262 1208.55 184.438C1206.19 178.892 1203.44 173.539 1200.31 168.44C1216.69 164.047 1239.25 162.674 1252 162.427L1250.35 274.837C1250.19 285.976 1249.98 299.841 1257.24 311.414C1264.78 323.453 1279.36 330.745 1296.23 330.912C1297.03 330.919 1297.84 330.912 1298.64 330.885C1311.05 330.472 1322.73 326.419 1331.53 322.926C1339.59 319.726 1343.85 310.78 1341.22 302.561C1339.05 295.762 1332.78 291.142 1325.61 291.069C1323.61 291.049 1321.62 291.389 1319.73 292.075C1315.15 293.735 1311.37 294.642 1307.84 294.929C1307.09 294.989 1306.33 295.015 1305.58 295.009C1299.63 294.949 1294.43 292.809 1291.65 289.276C1287.94 284.563 1287.75 277.41 1287.89 269.224L1289.65 164.787C1299.39 166.193 1307.25 167.153 1314.91 168.087C1321.07 168.84 1327.44 169.613 1334.7 170.62C1335.54 170.733 1336.39 170.8 1337.23 170.806C1347.3 170.906 1355.85 163.454 1357.11 153.468L1357.13 153.368C1357.7 148.848 1356.81 144.222 1354.4 140.349L1354.46 140.376ZM272.772 102.132C276.131 100.239 279.503 98.3795 282.868 96.5063C283.055 96.7663 282.988 96.673 283.175 96.933C277.827 101.686 272.478 106.445 267.122 111.198C265.767 109.998 264.405 108.799 263.029 107.619C266.268 105.779 269.526 103.959 272.772 102.132ZM192.354 139.916C191.606 140.309 190.831 140.649 190.063 141.022C189.977 140.876 189.883 140.729 189.796 140.582C199.546 133.803 209.288 127.017 219.565 119.864C221.094 120.964 222.61 122.084 224.112 123.237C213.548 128.843 202.944 134.376 192.354 139.922V139.916ZM240.199 165.567C240.259 156.014 240.345 146.455 240.372 136.903C242.529 138.863 244.679 140.856 246.823 142.882C244.786 151.448 242.789 159.867 240.793 168.287C240.259 167.333 240.192 166.453 240.199 165.567ZM441.367 186.458C444.766 178.999 449.273 172.54 454.762 167.273C460.238 162.02 466.715 157.881 473.993 154.974C481.265 152.068 489.071 150.641 497.191 150.721C505.291 150.801 512.997 152.381 520.089 155.421C527.207 158.481 533.551 162.754 538.926 168.12C549.537 178.706 556.027 190.071 554.705 195.757C553.824 199.564 551.526 200.617 543.513 202.517C542.959 202.65 542.405 202.783 541.851 202.917C533.156 205.037 523.835 207.17 514.513 208.476C497.452 210.863 480.738 211.996 464.832 211.836C458.421 211.769 452.051 211.496 445.901 211.016C442.342 210.736 438.756 210.369 435.19 209.923C436.031 201.504 438.101 193.618 441.367 186.465V186.458ZM958.51 236.054C956.367 250.772 948.995 265.431 938.297 276.277C927.206 287.516 913.624 293.635 900.048 293.502C899.374 293.495 898.686 293.475 898.005 293.435C877.325 292.289 857.339 277.044 847.276 259.525C835.423 238.9 836.057 215.789 846.808 195.018C856.31 176.659 873.171 161.054 894.299 158.221C913.343 155.668 932.895 165.054 944.648 179.879C956.313 194.598 961.495 215.596 958.51 236.061V236.054ZM1175.54 253.586C1172.64 261.672 1168.45 268.964 1163.1 275.264C1157.8 281.503 1151.36 286.576 1143.94 290.349C1136.69 294.029 1128.53 295.855 1119.67 295.762C1113.59 295.702 1107.65 294.582 1102.02 292.435C1096.25 290.236 1090.78 287.189 1085.76 283.376C1080.73 279.563 1076.17 274.97 1072.2 269.731L1072.08 269.571C1066.12 261.652 1062.89 251.679 1062.99 241.493L1063.41 198.711C1064.3 193.831 1066.49 189.078 1069.91 184.585C1073.69 179.619 1078.29 175.239 1083.56 171.56C1084.18 171.126 1084.86 170.673 1085.62 170.18C1092.22 166.947 1098.8 164.514 1105.18 162.947C1111.41 161.414 1117.58 160.667 1123.55 160.727C1126.79 160.761 1130.05 161.034 1133.25 161.534C1136.45 162.434 1139.57 163.62 1142.54 165.08C1150.12 168.8 1156.75 173.859 1162.26 180.105C1167.83 186.438 1172.26 193.844 1175.43 202.11C1178.59 210.349 1180.15 219.129 1180.06 228.215C1179.97 236.914 1178.45 245.46 1175.53 253.599L1175.54 253.586Z" fill="white"/>
</svg>
