<svg width="1203" height="387" viewBox="0 0 1203 387" fill="none" xmlns="http://www.w3.org/2000/svg">
<path d="M1200.33 352.449H196.975V365.639H1200.33V352.449Z" fill="white"/>
<path d="M136.515 190.368V158.328H153.525V332.658C153.525 336.948 145.985 352.008 143.005 356.088C112.425 397.928 30.1951 396.378 4.33508 349.588L16.5351 339.288C37.3351 375.088 103.915 381.308 126.765 345.548C137.735 328.378 129.815 306.838 134.625 288.388L114.455 306.878C70.7151 336.418 14.6651 310.048 2.91508 260.488C-18.0849 171.968 79.3251 114.288 136.525 190.358L136.515 190.368ZM67.9951 173.868C-1.38492 184.848 7.65508 315.338 91.6551 301.118C104.505 298.938 128.115 282.238 131.865 269.608C133.895 262.778 133.855 220.248 132.605 212.168C131.105 202.468 116.955 188.318 108.775 183.168C96.4251 175.408 82.6851 171.538 67.9951 173.868Z" fill="white"/>
<path d="M1039.73 94.2578V294.968C1039.73 297.058 1046.82 299.098 1047.27 300.928C1044.57 312.678 1051.29 323.698 1032.06 317.678C1018.86 313.538 1020.29 299.508 1020.81 288.368C990.645 327.798 938.125 332.338 904.595 294.048C847.965 229.378 916.775 115.158 997.985 168.858L1018.94 188.488V94.2578H1039.73ZM952.305 173.858C899.675 182.848 888.885 267.628 936.375 294.388C963.775 309.828 1008.13 298.508 1017.46 267.118C1019.88 258.978 1020.32 222.908 1018.83 214.028C1017.16 204.058 1001.53 188.438 993.105 183.138C980.485 175.188 967.375 171.278 952.295 173.858H952.305Z" fill="white"/>
<path d="M179.735 96.3585C181.045 98.6085 179.435 100.928 178.175 102.828C176.915 104.728 154.225 127.349 152.675 128.259C134.175 139.059 102.375 114.979 93.3947 98.6285C61.4647 40.5385 119.665 -23.3314 180.015 8.46859C233.305 36.5486 193.095 100.428 257.065 116.298C285.325 123.308 317.065 100.089 318.045 70.6986C318.845 46.8586 299.815 17.9985 274.905 15.3785C267.115 14.5585 249.515 40.6686 245.195 41.0186C242.425 41.2386 232.845 34.5385 236.545 29.1685C238.995 25.6185 263.945 1.63865 266.835 0.778647C283.215 -4.12135 311.725 16.9286 320.165 30.7486C365.415 104.839 262.785 171.848 213.165 103.548C195.135 78.7284 208.735 51.2486 182.845 28.2486C138.035 -11.5614 74.5947 39.6185 106.655 92.9286C114.705 106.319 126.545 112.619 141.335 116.769C152.145 110.319 161.485 101.649 168.585 91.2786L179.735 96.3485V96.3585Z" fill="white"/>
<path d="M850.765 316.639H829.975V208.27C829.975 206.67 826.275 194.66 825.255 192.25C814.465 166.84 781.885 170.8 762.905 184.72C756.925 189.1 737.395 211.29 737.395 217.7V316.639H716.605V158.329H735.505V192.25C759.285 155.91 828.695 133.089 846.565 186.069C847.575 189.069 850.765 200.479 850.765 202.609V316.629V316.639Z" fill="white"/>
<path d="M533.325 158.328L554.105 158.348C552.715 161.168 552.185 163.498 552.105 166.698C551.425 193.878 548.755 256.729 557.795 279.969C569.035 308.859 603.575 306.518 624.915 290.198C630.675 285.788 648.585 265.408 648.585 259.148V158.318H669.375V294.958C669.375 296.248 675.965 297.549 676.945 302.469C679.595 315.819 675.595 321.948 661.715 317.658C644.905 312.468 652.585 282.808 649.535 282.688C631.505 320.008 561.575 339.238 540.525 295.318C539.245 292.638 533.325 275.839 533.325 274.229V158.318V158.328Z" fill="white"/>
<path d="M1175.14 293.388C1184.26 284.388 1184.37 267.048 1174.54 258.518C1150.27 237.458 1079.22 248.868 1079.28 202.628C1079.34 151.508 1151.26 145.668 1185.08 166.978C1197.76 174.968 1200.73 178.708 1186.42 188.378C1165.39 164.528 1095 160.408 1100.17 204.568C1101.17 213.088 1105.67 216.488 1113 220.038C1144.24 235.178 1209.31 228.968 1201.74 281.308C1194.8 329.358 1120.38 326.078 1087.61 307.548C1073.05 299.318 1069.94 296.568 1082.25 282.768C1102.78 303.088 1153.14 315.138 1175.15 293.408L1175.14 293.388Z" fill="white"/>
<path d="M457.735 177.178H501.195V192.258H457.735V316.648H436.945V195.088C433.995 189.308 415.855 193.858 414.265 192.268V177.168L436.125 175.408C435.205 140.618 437.685 92.0075 483.225 90.3575C497.565 89.8375 528.815 97.2477 509.735 114.738C494.615 106.178 473.485 105.268 463.675 121.838C462.735 123.438 457.735 135.848 457.735 136.638V177.158V177.178Z" fill="white"/>
<path d="M270.405 158.598L323.605 295.908L379.315 160.208L399.155 158.338L336.595 316.418L312.045 315.478L248.015 159.258L270.405 158.598Z" fill="white"/>
<path d="M219.655 158.328H198.865V316.638H219.655V158.328Z" fill="white"/>
</svg>
