<svg width="677" height="700" viewBox="0 0 677 700" fill="none" xmlns="http://www.w3.org/2000/svg">
<g clip-path="url(#clip0_239_969)">
<path d="M203.544 193.433H200.847C199.511 193.433 198.086 193.37 196.624 193.258C195.187 193.146 193.977 192.971 193.019 192.746C192.667 192.659 192.427 192.584 192.276 192.534V129.504L232.861 202.869H250.091V128.543C250.091 127.645 250.355 127.008 250.923 126.559C251.591 126.022 252.561 125.648 253.796 125.436C255.158 125.211 256.708 125.086 258.409 125.086H260.741V115.663H227.832V125.086H230.529C231.941 125.086 233.378 125.149 234.815 125.261C236.214 125.373 237.424 125.535 238.394 125.723C238.747 125.798 238.974 125.86 239.1 125.91V181.276L202.75 115.65H170.609V125.074H172.828C174.617 125.074 176.206 125.186 177.567 125.423C178.815 125.635 179.798 125.997 180.466 126.496C180.819 126.759 181.285 127.233 181.285 128.406V189.863C181.285 190.699 181.008 191.311 180.428 191.81C179.747 192.372 178.789 192.796 177.542 193.033C176.206 193.296 174.617 193.433 172.828 193.433H170.609V202.856H203.519V193.433H203.544Z" fill="white"/>
<path d="M341.003 173.987H330.504L328.828 188.465C328.765 189.289 328.5 189.951 328.046 190.475C327.555 191.024 326.799 191.473 325.803 191.81C324.719 192.185 323.295 192.447 321.555 192.597C319.791 192.759 317.61 192.834 315.039 192.834H297.129V162.941L304.086 163.253C307.64 163.416 311.169 163.59 314.686 163.79C318.203 163.99 321.744 164.177 325.299 164.327L326.345 164.377V151.858L325.299 151.908C321.744 152.07 318.177 152.245 314.623 152.445C311.069 152.644 307.539 152.819 304.023 152.981C301.754 153.081 299.448 153.194 297.129 153.293V125.673H313.098C316.262 125.673 318.871 125.81 320.837 126.085C322.69 126.347 324.089 126.809 324.996 127.47C325.815 128.069 326.282 128.918 326.408 130.091L327.845 141.524H338.092V115.65H269.551V125.074H271.883C274.429 125.074 276.571 125.336 278.248 125.872C279.609 126.297 280.214 127.083 280.214 128.406V190.1C280.214 191.423 279.609 192.21 278.248 192.634C276.584 193.158 274.441 193.433 271.883 193.433H269.551V202.856H341.003V173.987Z" fill="white"/>
<path d="M364.611 192.996C364.976 193.545 365.367 194.056 365.77 194.556C368.782 198.288 372.564 200.971 377 202.556C381.374 204.104 386.264 204.89 391.52 204.89C397.532 204.89 402.914 203.892 407.553 201.932C412.241 199.947 415.947 196.89 418.543 192.858C421.14 188.839 422.463 183.747 422.463 177.744C422.463 173.038 421.631 169.094 419.98 165.999C418.342 162.916 416.048 160.345 413.174 158.385C410.363 156.463 407.187 154.891 403.721 153.705C400.33 152.544 396.789 151.508 393.234 150.622C389.919 149.748 386.857 148.925 384.021 148.163C381.273 147.427 378.853 146.528 376.824 145.48C374.883 144.481 373.358 143.183 372.286 141.598C371.24 140.051 370.698 138.004 370.698 135.495C370.698 132.986 371.202 130.665 372.211 128.905C373.206 127.158 374.694 125.859 376.773 124.948C378.891 124.012 381.739 123.538 385.218 123.538C388.697 123.538 391.987 124.187 394.797 125.485C397.583 126.771 399.99 128.718 401.944 131.251C403.923 133.822 405.473 137.043 406.57 140.824L406.784 141.548H417.623V115.076H407.603L406.62 123.987C406.305 123.513 405.99 123.051 405.662 122.614C403.217 119.407 400.154 117.048 396.562 115.625C393.02 114.227 388.886 113.516 384.248 113.516C378.551 113.516 373.522 114.502 369.287 116.424C365.001 118.383 361.636 121.204 359.292 124.824C356.935 128.443 355.737 132.886 355.737 138.029C355.737 142.634 356.506 146.553 358.019 149.686C359.544 152.819 361.661 155.39 364.333 157.324C366.942 159.209 369.967 160.769 373.307 161.955C376.572 163.116 380.051 164.189 383.643 165.163C386.806 165.961 389.856 166.798 392.705 167.609C395.516 168.42 398.037 169.444 400.192 170.642C402.259 171.803 403.923 173.288 405.12 175.073C406.292 176.82 406.885 179.141 406.885 181.962C406.885 185.045 406.305 187.579 405.145 189.501C403.998 191.398 402.322 192.733 400.015 193.582C397.633 194.456 394.533 194.905 390.789 194.905C386.504 194.905 382.559 194.131 379.08 192.584C375.614 191.061 372.627 188.739 370.182 185.669C367.736 182.586 365.858 178.667 364.598 174.024L364.396 173.288H353.166V203.355H363.69L364.598 193.02L364.611 192.996Z" fill="white"/>
<path d="M441.61 130.44C441.749 129.254 442.202 128.343 443.022 127.669C443.891 126.945 445.315 126.421 447.269 126.084C449.349 125.734 452.16 125.56 455.651 125.56H460.466V190.112C460.466 191.435 459.823 192.209 458.386 192.646C456.634 193.17 454.403 193.445 451.769 193.445H448.706V202.868H489.253V193.445H486.065C483.506 193.445 481.325 193.182 479.573 192.646C478.137 192.209 477.494 191.435 477.494 190.112V125.56H482.308C485.787 125.56 488.611 125.734 490.69 126.084C492.656 126.421 494.106 126.958 495.013 127.681C495.845 128.343 496.274 129.229 496.349 130.427L497.774 145.367H508.172V115.662H429.812V145.367H440.211L441.623 130.44H441.61Z" fill="white"/>
<path d="M232.002 226.07C226.608 228.155 221.856 231.212 217.899 235.181C213.941 239.15 210.84 243.981 208.71 249.572C206.58 255.139 205.496 261.579 205.496 268.706C205.496 275.833 206.58 282.173 208.71 287.777C210.853 293.406 213.941 298.261 217.899 302.23C221.856 306.199 226.608 309.245 232.015 311.279C237.397 313.313 243.371 314.349 249.762 314.349C256.152 314.349 262.227 313.313 267.571 311.279C272.928 309.232 277.654 306.187 281.625 302.23C285.582 298.274 288.67 293.406 290.813 287.777C292.943 282.173 294.027 275.745 294.027 268.706C294.027 261.666 292.943 255.139 290.813 249.572C288.67 243.981 285.582 239.138 281.625 235.181C277.667 231.225 272.941 228.155 267.584 226.07C262.24 223.998 256.24 222.938 249.762 222.938C243.283 222.938 237.384 223.986 232.002 226.07ZM269.033 242.133C271.315 245.017 273.092 248.711 274.314 253.129C275.537 257.585 276.155 262.827 276.155 268.718C276.155 274.609 275.537 279.839 274.314 284.307C273.104 288.713 271.327 292.42 269.033 295.303C266.765 298.161 263.992 300.346 260.79 301.793C257.589 303.241 253.871 303.99 249.749 303.99C245.627 303.99 241.985 303.254 238.708 301.793C235.443 300.346 232.658 298.161 230.427 295.316C228.171 292.432 226.419 288.738 225.209 284.32C223.986 279.864 223.369 274.622 223.369 268.731C223.369 262.84 223.986 257.598 225.209 253.142C226.419 248.736 228.196 245.029 230.49 242.146C232.759 239.288 235.557 237.104 238.783 235.656C242.035 234.195 245.728 233.459 249.762 233.459C253.795 233.459 257.589 234.195 260.803 235.656C263.992 237.104 266.765 239.288 269.033 242.146V242.133Z" fill="white"/>
<path d="M358.902 287.978L339.113 225.098H304.162V234.521H306.368C308.158 234.521 309.758 234.633 311.107 234.87C312.355 235.083 313.338 235.444 314.006 235.944C314.359 236.206 314.813 236.68 314.813 237.853V299.548C314.813 300.371 314.548 300.958 313.981 301.42C313.313 301.956 312.342 302.331 311.107 302.543C309.758 302.768 308.158 302.893 306.368 302.893H304.162V312.316H334.765V302.893H333.278C332.244 302.893 331.072 302.855 329.761 302.78C328.463 302.705 327.341 302.581 326.408 302.431C326.131 302.381 325.929 302.343 325.791 302.306V238.365L350.734 312.69H361.032L386.101 238.016V302.318C385.963 302.356 385.761 302.393 385.484 302.443C384.551 302.593 383.442 302.718 382.194 302.793C380.921 302.868 379.686 302.905 378.501 302.905H376.409V312.328H413.679V302.905H411.347C408.713 302.905 406.558 302.643 404.932 302.119C403.608 301.694 403.016 300.908 403.016 299.585V237.891C403.016 236.568 403.608 235.782 404.932 235.357C406.57 234.833 408.726 234.558 411.347 234.558H413.679V225.135H379.585L358.902 288.015V287.978Z" fill="white"/>
<path d="M494.886 283.434H484.387L482.711 297.912C482.648 298.736 482.395 299.397 481.929 299.909C481.438 300.458 480.694 300.908 479.686 301.245C478.602 301.619 477.165 301.881 475.438 302.031C473.673 302.193 471.493 302.268 468.922 302.268H451.011V272.376L457.969 272.688C461.523 272.85 465.052 273.025 468.569 273.224C472.085 273.424 475.627 273.611 479.194 273.761L480.24 273.811V261.293L479.194 261.342C475.64 261.505 472.073 261.679 468.518 261.879C464.964 262.079 461.435 262.254 457.918 262.416C455.65 262.516 453.343 262.628 451.024 262.728V235.107H466.993C470.157 235.107 472.766 235.244 474.732 235.519C476.585 235.781 477.984 236.243 478.892 236.892C479.711 237.491 480.177 238.34 480.303 239.513L481.74 250.946H491.987V225.072H423.434V234.496H425.765C428.311 234.496 430.454 234.758 432.13 235.294C433.492 235.719 434.097 236.505 434.097 237.828V299.522C434.097 300.845 433.492 301.632 432.13 302.056C430.454 302.58 428.324 302.855 425.765 302.855H423.434V312.278H494.886V283.409V283.434Z" fill="white"/>
<path d="M518.204 266.747C520.813 268.632 523.838 270.192 527.178 271.378C530.455 272.538 533.921 273.612 537.513 274.585C540.664 275.384 543.714 276.208 546.575 277.032C549.386 277.843 551.907 278.866 554.062 280.065C556.142 281.225 557.793 282.711 558.99 284.495C560.163 286.243 560.768 288.564 560.768 291.385C560.768 294.468 560.188 297.001 559.028 298.923C557.881 300.821 556.205 302.156 553.898 303.005C551.516 303.879 548.416 304.328 544.672 304.328C540.387 304.328 536.442 303.554 532.963 302.019C529.497 300.496 526.497 298.175 524.065 295.104C521.619 292.021 519.741 288.102 518.494 283.459L518.292 282.723H507.074V312.79H517.599L518.506 302.456C518.872 303.005 519.262 303.517 519.666 304.016C522.678 307.748 526.459 310.444 530.896 312.016C535.27 313.564 540.16 314.35 545.416 314.35C551.415 314.35 556.81 313.352 561.448 311.392C566.137 309.408 569.843 306.35 572.439 302.318C575.035 298.287 576.359 293.207 576.359 287.204C576.359 282.498 575.527 278.554 573.876 275.459C572.237 272.376 569.943 269.805 567.07 267.845C564.259 265.923 561.07 264.351 557.617 263.165C554.226 262.004 550.684 260.968 547.13 260.082C543.815 259.209 540.752 258.385 537.916 257.623C535.181 256.887 532.761 255.988 530.719 254.94C528.778 253.941 527.253 252.643 526.182 251.071C525.123 249.523 524.594 247.476 524.594 244.968C524.594 242.459 525.098 240.137 526.106 238.378C527.102 236.63 528.589 235.332 530.669 234.421C532.787 233.485 535.635 233.011 539.114 233.011C542.593 233.011 545.882 233.66 548.693 234.958C551.478 236.243 553.886 238.19 555.839 240.724C557.818 243.295 559.369 246.515 560.465 250.297L560.667 251.021H571.506V224.548H561.486L560.503 233.46C560.188 232.986 559.873 232.524 559.545 232.087C557.1 228.879 554.037 226.52 550.445 225.098C546.903 223.7 542.769 222.988 538.131 222.988C532.434 222.988 527.405 223.974 523.17 225.896C518.884 227.856 515.519 230.677 513.175 234.296C510.818 237.916 509.62 242.359 509.62 247.501C509.62 252.107 510.389 256.026 511.902 259.159C513.427 262.291 515.544 264.862 518.216 266.797L518.204 266.747Z" fill="white"/>
<path d="M661.437 284.832C660.757 260.631 656.043 237.067 647.938 215.25C650.951 211.443 654.039 207.711 657.227 204.029C653.799 207.137 650.522 210.345 647.346 213.627C637.616 188.091 623.209 165.038 605.16 146.316C587.577 120.368 565.155 98.6134 539.455 82.3256C549.526 79.2302 559.458 74.8369 569.087 69.0331C558.626 74.1504 547.622 77.9322 536.367 80.4035C534.539 79.2802 532.687 78.1943 530.834 77.1209C514.814 62.0063 496.009 49.8247 475.073 41.4498C480.039 37.5058 484.816 33.1374 489.341 28.3197C484.262 32.8503 478.88 36.9941 473.246 40.7259C455.297 33.7864 435.812 29.6302 415.179 28.8189C406.205 25.6862 397.079 23.165 387.878 21.2554C385.849 18.5844 383.858 15.876 381.954 13.1177C383.366 15.7886 384.853 18.3972 386.404 20.9558C378.955 19.4706 371.455 18.3597 363.943 17.6858C367.964 12.1441 371.695 6.25305 375.085 0C371.014 6.14072 366.54 11.9819 361.737 17.511C341.13 15.8635 320.421 17.2739 300.343 21.8295C252.649 25.0247 207.955 40.1393 170.256 64.6648C162.152 61.8315 154.161 58.549 146.346 54.9045C153.341 59.2355 160.526 63.0172 167.836 66.2623C148.111 79.4175 130.377 95.1686 115.189 113.141C71.3393 139.24 42.0474 185.694 43.0684 241.385C41.392 243.906 39.7787 246.477 38.2032 249.049C36.9806 248.038 35.7454 247.039 34.4976 246.053C35.1278 234.184 36.3882 222.314 38.1906 210.507C35.1152 221.528 32.8717 232.586 31.3592 243.619C29.1156 241.922 26.8343 240.249 24.5026 238.614C26.7965 240.524 29.04 242.483 31.2457 244.493C30.3382 251.27 29.7332 258.047 29.3929 264.787C-3.95746 330.014 -5.88589 408.869 34.9513 479.712C6.01237 417.394 3.79405 344.979 29.1661 282.673C29.7963 307.485 34.2707 331.674 42.2491 354.402C32.8086 401.006 37.636 450.918 56.164 496.462C52.7609 499.932 49.2066 503.327 45.501 506.647C40.0938 497.947 35.0522 488.986 30.3761 479.825C35.6194 494.116 42.0726 507.645 49.5343 520.338C33.9556 525.456 17.9484 528.776 0.995941 528.139C-1.95341 528.027 2.48322 532.021 4.55029 533.668C30.729 543.965 56.9077 554.262 83.0107 564.721C88.5313 570.5 94.304 575.992 100.316 581.147C96.0937 582.532 91.8966 584.042 87.7372 585.702C92.3377 584.429 96.9634 583.281 101.589 582.245C114.546 593.191 128.587 602.652 143.435 610.452C133.856 615.757 124.516 621.935 115.504 629.049C125.423 622.534 135.822 616.868 146.573 612.075C153.14 615.395 159.87 618.403 166.714 621.061C204.539 650.567 251.83 668.914 301.389 673.083C298.73 676.777 296.196 680.584 293.789 684.49C296.789 680.621 299.889 676.877 303.091 673.232C305.548 673.42 308.006 673.569 310.477 673.694C321.203 675.504 331.916 676.59 342.541 677.002C339.479 684.291 336.87 691.917 334.777 699.892C337.601 692.041 340.978 684.428 344.81 677.089C348.062 677.189 351.289 677.214 354.528 677.189C358.549 683.654 362.305 690.406 365.745 697.483C363.199 690.419 360.263 683.654 357.011 677.151C372.98 676.839 388.71 674.98 403.961 671.66C405.915 673.719 407.843 675.803 409.746 677.925C408.196 675.729 406.608 673.569 404.995 671.448C431.64 665.531 456.823 655.16 479.371 640.806C497.282 634.778 514.461 626.553 530.556 616.406C533.418 617.704 536.279 619.089 539.115 620.549C536.581 618.89 534.035 617.329 531.451 615.832C549.122 604.586 565.457 591.032 579.977 575.58C578.843 575.842 577.683 576.054 576.536 576.279C581.502 572.897 586.292 569.227 591.081 565.545C591.409 565.283 591.724 565.021 592.064 564.796C592.619 564.372 593.174 563.948 593.728 563.511C597.371 560.715 612.269 550.755 614.21 549.457C621.911 544.302 629.814 539.447 637.666 534.517C638.926 533.731 647.85 528.813 649.64 527.453C652.652 525.169 656.118 523.496 659.66 521.399C655.488 519.115 645.279 522.972 643.703 523.222C637.3 524.22 630.772 525.518 624.381 525.144C622.907 525.056 621.432 524.932 619.957 524.819C629.877 512.588 638.296 499.495 645.178 485.866C646.199 486.877 647.232 487.888 648.291 488.886C647.295 487.775 646.325 486.639 645.367 485.504C671.004 434.593 675.453 376.331 658.387 327.78C659.988 318.531 660.958 309.27 661.349 300.071C671.331 328.616 676.171 360.143 674.508 393.73C679.902 355.263 674.533 317.969 661.45 284.832H661.437ZM655.4 319.966C652.135 311.978 648.253 304.29 643.766 296.976C648.153 306.661 651.783 316.671 654.656 326.906C652.64 343.269 648.896 359.856 643.275 376.493C644.333 337.365 635.838 297.538 618.319 261.205C621.898 254.078 625.843 247.139 630.116 240.362C640.414 254.528 649.224 270.054 656.219 286.742C656.723 297.65 656.471 308.746 655.413 319.954L655.4 319.966ZM624.419 461.789C624.621 462.077 624.835 462.351 625.049 462.638C624.772 479.251 622.138 495.925 616.831 512.201C615.647 516.232 614.311 520.214 612.886 524.17C606.408 523.471 599.942 522.535 593.564 521.275C591.548 520.875 589.531 520.501 587.527 520.164C588.082 518.966 588.623 517.78 589.165 516.569C604.013 499.957 615.735 481.46 624.432 461.789H624.419ZM621.041 450.082C605.979 422.449 597.257 391.758 595.833 360.742C611.235 385.13 621.066 412.701 624.091 441.083C623.146 444.104 622.125 447.099 621.054 450.095L621.041 450.082ZM595.619 353.104C595.417 324.747 601.354 296.315 614.185 269.892C614.664 268.831 615.155 267.77 615.659 266.722C636.053 319.18 640.918 375.046 628.036 427.005C623.436 400.607 612.672 375.283 595.619 353.116V353.104ZM654.808 269.755C648.808 257.361 641.712 245.666 633.683 234.845C636.796 230.152 640.073 225.547 643.476 221.028C648.947 236.567 652.778 252.88 654.808 269.755ZM581.326 125.698C576.246 122.078 570.978 118.746 565.533 115.75C575.099 122.677 584.073 130.403 592.367 138.828C592.795 139.389 593.237 139.951 593.665 140.513C612.029 163.391 626.31 189.451 637.452 216.885C633.897 203.779 629.297 191.223 623.776 179.279C631.263 191.648 637.59 204.828 642.619 218.645C638.7 222.95 634.994 227.394 631.49 231.937C618.898 215.549 604.164 201.258 587.943 189.713C583.216 154.953 569.49 123.002 548.895 96.8786C560.579 105.291 571.457 114.914 581.313 125.685L581.326 125.698ZM419.83 54.1432C427.707 54.3678 435.547 54.9669 443.336 55.9529C438.446 57.7627 433.467 59.3228 428.426 60.5959C425.489 58.574 422.628 56.4272 419.842 54.1432H419.83ZM423.611 61.7192C402.335 66.3247 380.102 66.0626 358.889 60.2215C377.064 56.0153 395.617 53.9684 414.07 54.0558C417.145 56.7642 420.334 59.3228 423.611 61.7317V61.7192ZM450.294 56.9389C457.339 58.0373 464.322 59.4476 471.229 61.17C478.628 65.6882 485.862 70.5184 492.921 75.6107C488.055 71.13 483.039 66.9238 477.897 62.9424C494.534 67.6103 510.617 74.088 525.742 82.338C493.74 86.9061 460.579 80.8153 433.039 63.6288C438.9 61.844 444.672 59.6099 450.294 56.9514V56.9389ZM506.445 65.164C492.606 59.4352 478.123 55.1666 463.2 52.4707C462.507 52.0214 461.814 51.5845 461.121 51.1352C464.259 49.2506 467.347 47.2286 470.359 45.0444C483.089 50.5112 495.189 57.251 506.445 65.1515V65.164ZM468.002 44.0459C464.851 45.9555 461.625 47.7279 458.335 49.3878C446.286 41.9491 433.707 35.7834 420.788 30.8658C437.072 33.3496 452.941 37.8054 468.002 44.0334V44.0459ZM419.653 36.4199C431.085 40.4264 442.214 45.294 453.004 50.8856C440.324 49.2381 427.367 48.7388 414.233 49.4877C406.784 43.1098 399.915 36.0455 393.6 28.457C402.386 30.4914 411.082 33.1249 419.653 36.4075V36.4199ZM390.878 27.8579C396.411 35.9082 402.663 43.2471 409.494 49.8247C392.668 51.1602 375.602 54.5301 358.511 60.1091C352.02 58.2994 345.629 55.9654 339.39 53.0947C337.046 52.0963 334.727 51.0229 332.433 49.9121C342.289 42.4608 351.364 33.6866 359.418 23.6268C369.943 24.2134 380.454 25.6113 390.865 27.8704L390.878 27.8579ZM356.355 23.477C347.722 32.5383 338.143 40.6261 327.845 47.603C317.787 42.336 308.246 36.033 299.209 29.0062C317.9 24.6253 337.134 22.7032 356.355 23.477ZM324.908 49.5376C290.865 71.5918 249.347 81.6017 208.144 74.2003C208.106 74.2003 208.068 74.2003 208.031 74.1879C234.398 52.4707 265.505 37.044 298.339 29.2059C306.544 37.1314 315.48 43.9211 324.921 49.5376H324.908ZM238.911 40.2017C249.133 36.6945 259.531 33.749 270.093 31.3027C246.725 40.7509 224.807 54.8546 205.585 73.7885C196.851 72.3531 188.217 70.3062 179.709 67.7476C197.884 56.1526 217.698 46.8043 238.911 40.2017ZM128.562 110.783C133.2 108.461 137.977 106.352 142.905 104.517C161.862 96.8286 182.18 92.4602 202.813 90.4258C179.281 89.9515 156.732 94.295 136.364 102.62C148.565 90.4133 161.988 79.405 176.483 69.8444C184.864 73.0521 193.397 75.5733 201.993 77.4205C198.136 81.4144 194.406 85.5956 190.788 89.989C194.96 85.7329 199.296 81.6765 203.783 77.7824C247.923 86.7688 293.524 77.9072 329.446 52.1212C360.074 68.8709 395.466 73.5888 428.249 64.9768C457.957 85.0215 494.509 92.8721 530.141 84.8093C548.769 102.994 563.63 125.036 572.944 150.173C577.784 162.13 581.502 174.524 584.288 187.167C565.734 174.599 545.354 165.587 524.078 161.044C546.274 168.757 567.121 180.153 585.825 194.643C587.577 203.829 588.85 213.128 589.72 222.476C589.96 213.864 589.657 205.365 588.825 197.015C603.232 208.585 616.315 222.027 627.684 237.092C623.297 243.157 619.277 249.386 615.621 255.776C608.664 242.196 600.434 229.141 590.943 216.847C599.551 230.926 606.95 245.466 613.113 260.307C598.707 287.054 590.665 316.197 589.418 345.478C580.481 335.143 570.083 325.595 558.185 317.083C569.944 327.168 580.343 338.576 589.266 350.97C588.775 386.903 598.568 422.811 619.415 454.513C610.618 477.416 598.077 499.245 581.553 519.29C573.99 518.391 566.39 518.354 558.55 520.314C570.499 502.478 579.372 483.694 581.691 462.488C584.01 441.308 581.023 421.089 569.037 402.055C557.138 417.344 544.156 430.262 528.565 440.397C512.243 451.018 487.803 458.794 476.548 456.859C477.871 455.799 479.107 454.8 480.518 453.652C469.351 442.906 457.654 433.607 443.551 427.803C421.985 418.929 402.096 421.725 384.097 436.765C372.375 446.562 363.691 458.757 357.074 472.361C352.511 481.734 348.78 491.507 344.293 501.991C347.659 501.991 349.474 502.016 351.301 501.991C379.887 501.504 401.755 512.837 412.154 539.772C417.057 552.477 425.022 563.411 435.837 571.911C440.916 575.904 446.134 579.337 451.504 582.27C437.425 586.176 423.964 591.793 411.448 599.02C391.458 603.75 372.186 611.95 354.566 623.096C326.005 603.413 293.474 591.169 260.01 587.375C251.263 583.643 242.238 580.473 233.012 577.914C242.893 574.232 252.636 569.639 262.228 564.097C295.175 545.076 317.51 517.493 326.295 479.8C327.832 473.21 329.685 466.557 332.445 460.404C343.272 436.153 362.733 421.912 387.677 414.548C394.142 412.639 400.772 411.328 407.604 409.681C407.251 408.645 407.087 407.896 406.747 407.259C393.79 383.096 377.392 361.691 354.755 345.852C322.022 322.962 288.218 324.035 256.355 348.174C242.175 358.92 230.403 372 219.853 386.191C217.37 389.536 214.673 390.884 210.652 391.159C172.601 393.73 138.532 382.434 107.324 361.516C106.366 360.879 105.433 360.23 104.488 359.569C99.4968 334.544 89.59 310.493 74.6668 288.801C84.6618 270.541 97.3037 253.33 112.693 237.566C112.693 237.666 112.731 237.753 112.731 237.853V299.547C112.731 300.87 112.126 301.657 110.765 302.081C109.101 302.605 106.958 302.88 104.4 302.88H102.068V312.303H140.309V302.88H135.066C133.982 302.88 132.961 302.817 132.041 302.705C131.108 302.593 130.364 302.48 129.822 302.355C129.797 302.355 129.784 302.355 129.759 302.343V272.451H167.761V302.343C167.761 302.343 167.723 302.343 167.698 302.355C167.168 302.468 166.45 302.568 165.58 302.643C164.66 302.717 163.626 302.805 162.505 302.88C161.395 302.955 160.324 302.992 159.303 302.992H157.211V312.29H195.452V302.867H193.246C190.612 302.867 188.431 302.605 186.755 302.068C185.394 301.644 184.789 300.858 184.789 299.535V237.84C184.789 236.517 185.394 235.731 186.755 235.307C188.431 234.783 190.612 234.508 193.246 234.508H195.452V225.085H157.211V234.508H162.58C163.652 234.508 164.66 234.57 165.542 234.683C166.437 234.795 167.156 234.92 167.71 235.032C167.735 235.032 167.748 235.032 167.761 235.045V262.416H129.759V235.045C129.759 235.045 129.797 235.045 129.822 235.032C130.326 234.92 131.057 234.833 131.99 234.745C132.961 234.67 134.007 234.583 135.129 234.508C136.238 234.433 137.259 234.396 138.217 234.396H140.309V225.097H125.764C129.948 221.39 134.297 217.783 138.822 214.289C133.301 217.696 128.032 221.315 122.978 225.097H102.068V234.52H104.4C106.795 234.52 108.811 234.77 110.437 235.232C94.367 249.286 80.9941 265.299 70.2806 282.685C66.5624 277.705 62.5543 272.863 58.2815 268.182C59.8948 251.832 63.008 235.731 67.4951 220.08C68.8563 218.507 70.2428 216.947 71.6544 215.399C92.3125 191.535 117.206 171.291 144.191 154.067C116.512 167.409 92.2621 185.008 72.0704 205.639C84.2837 170.467 103.543 138.016 128.537 110.783H128.562ZM457.642 585.39C477.418 594.626 498.983 597.335 521.834 595.1C518.431 598.832 514.915 602.439 511.285 605.947C484.93 595.275 457.075 592.242 429.976 595.662C438.963 591.543 448.327 588.173 457.995 585.665C457.869 585.577 457.768 585.477 457.642 585.39ZM369.086 634.029C365.935 631.445 362.733 628.974 359.469 626.59C370.548 620.163 382.093 614.808 393.979 610.627C384.929 617.492 376.585 625.317 369.086 634.029ZM369.93 640.557C372.035 642.192 374.127 643.864 376.194 645.562C372.993 645.262 369.779 644.913 366.565 644.488C367.674 643.165 368.796 641.855 369.93 640.557ZM329.597 636.738C325.715 632.394 321.656 628.25 317.421 624.319C323.333 622.322 329.231 620.063 335.118 617.542C339.302 619.851 343.411 622.309 347.444 624.943C348.175 625.392 348.906 625.854 349.637 626.316C344.293 629.935 339.113 633.829 334.134 637.986C332.622 637.586 331.109 637.162 329.61 636.725L329.597 636.738ZM333.63 638.41C333.126 638.834 332.635 639.246 332.143 639.671C331.336 638.722 330.53 637.786 329.698 636.862C331.009 637.387 332.319 637.911 333.63 638.41ZM315.871 622.933C304.906 612.986 292.856 604.386 279.975 597.172C299.045 601.166 317.585 607.894 334.979 617.467C328.677 619.539 322.299 621.361 315.871 622.921V622.933ZM338.735 640.27C345.617 642.703 352.524 644.75 359.431 646.435C355.725 651.702 352.297 657.244 349.196 663.035C344.873 655.996 340.134 649.356 335.017 643.078C336.239 642.117 337.475 641.181 338.722 640.257L338.735 640.27ZM339.831 639.458C344.634 635.926 349.537 632.619 354.566 629.523C358.473 632.12 362.317 634.828 366.086 637.636C364.472 639.633 362.884 641.655 361.347 643.739C354.213 642.641 347.041 641.218 339.831 639.458ZM73.5955 400.619C64.2432 386.828 56.3909 372.05 50.2779 356.486C54.5255 334.894 61.6846 313.925 71.8813 294.105C83.0107 312.677 91.3042 332.797 96.371 353.653C91.2412 349.784 86.1743 345.802 81.0319 341.946C76.2423 350.083 72.5493 368.431 72.6502 384.681C72.6754 390.123 73.0031 395.44 73.5955 400.619ZM105.988 124.761C86.7541 150.597 72.5241 180.44 64.823 213.365C57.0211 222.052 49.8998 231.201 43.5095 240.761C46.8748 195.08 69.7512 152.02 105.988 124.761ZM62.1257 226.545C59.7562 239.975 58.4454 253.879 58.3067 268.182C53.6936 263.127 48.7654 258.272 43.5095 253.604C49.0049 244.218 55.2061 235.17 62.1257 226.545ZM34.4346 247.476C35.4429 248.424 36.4386 249.386 37.4217 250.359C36.3 252.219 35.2034 254.091 34.1321 255.988C34.1951 253.155 34.3085 250.322 34.4472 247.488L34.4346 247.476ZM36.7285 302.043C35.279 291.859 34.4598 281.599 34.1699 271.29C36.7033 265.911 39.4636 260.631 42.4256 255.439C51.8156 265.274 60.2351 275.933 67.5833 287.228C57.6009 304.377 50.1267 322.775 45.1354 341.858C41.1273 329.015 38.2536 315.71 36.7285 302.031V302.043ZM48.0848 369.354C55.5338 386.578 65.0625 402.779 76.5448 417.556C79.4564 429.713 83.9182 441.146 89.7917 451.979C81.6873 466.32 71.7048 479.987 59.7436 492.73C46.4967 451.979 42.3499 409.756 48.0848 369.342V369.354ZM98.6902 501.779C96.6105 502.291 94.5561 502.902 92.5142 503.576C88.9977 493.18 86.1113 482.371 83.9308 471.113C84.9139 482.67 86.8171 493.841 89.527 504.625C84.4602 506.497 79.4816 508.706 74.4777 510.815C72.1334 511.801 69.789 512.762 67.4447 513.711C64.886 507.433 62.5417 501.105 60.4242 494.74C73.1921 483.444 83.956 470.826 92.8167 457.246C97.1399 464.523 102.093 471.537 107.626 478.302C105.043 486.253 102.055 494.066 98.6902 501.754V501.779ZM111.471 482.908C116.878 489.123 122.777 495.139 129.116 500.993C122.562 500.643 117.571 500.231 112.567 500.132C109.53 500.069 106.568 500.319 103.681 500.781C106.568 494.902 109.177 488.948 111.483 482.908H111.471ZM45.501 506.684C49.3956 503.876 53.139 500.955 56.7438 497.935C59.1134 503.664 61.7224 509.33 64.5331 514.897C60.8905 516.332 57.2354 517.705 53.555 518.991C50.7947 514.947 48.0974 510.853 45.5136 506.684H45.501ZM89.943 557.507C87.3717 556.297 79.6076 552.715 78.2464 552.165C64.9112 546.786 51.6139 541.307 38.3166 535.828C37.7873 535.615 37.3839 535.141 36.426 534.405C37.7747 533.868 38.6695 533.494 39.5896 533.157C56.5295 526.854 73.5703 520.788 90.3967 514.198C108.723 507.021 126.344 508.169 143.687 517.206C152.157 521.624 160.765 525.793 169.739 530.286C170.584 528.489 171.113 527.078 171.869 525.818C173.735 522.747 172.777 521.137 169.752 519.29C150.039 507.158 131.877 493.08 116.714 475.431C91.9722 446.65 78.8009 413.787 81.599 375.383C81.9394 370.615 82.809 365.884 83.5275 361.154C83.7039 359.968 84.2459 358.845 84.9265 356.786C87.0188 358.296 88.5187 359.319 89.9556 360.418C113.071 378.166 138.343 391.521 167.067 397.512C200.027 404.389 232.079 401.63 262.556 386.74C271.089 382.572 279.029 377.18 286.894 371.726C270.484 374.833 254.086 377.929 237.562 381.049C237.436 379.639 237.272 379.227 237.398 379.065C251.527 361.965 267.913 347.862 289.642 341.446C310.577 335.268 329.786 340.261 347.495 351.968C366.54 364.561 380.908 381.661 392.995 400.807C393.235 401.181 393.285 401.668 393.613 402.704C391.773 403.34 390.008 404.052 388.181 404.564C365.38 410.866 346.197 422.474 332.572 442.269C326.093 451.68 321.354 461.964 319.11 473.11C311.334 511.739 288.735 539.297 254.83 557.732C213.324 580.298 169.235 585.602 123.671 572.784C111.924 569.477 101.11 562.812 89.9556 557.52L89.943 557.507ZM100.833 573.084C104.211 574.694 107.563 576.379 110.954 577.951C109.87 578.251 108.786 578.55 107.702 578.875C105.37 577.003 103.089 575.068 100.833 573.096V573.084ZM109.82 580.535C111.483 580.21 113.147 579.911 114.811 579.624C117.458 580.722 120.13 581.696 122.865 582.407C124.907 582.944 126.949 583.431 128.978 583.892C134.813 591.194 141.103 598.108 147.808 604.611C134.423 597.896 121.693 589.858 109.807 580.523L109.82 580.535ZM141.204 586.339C168.328 590.857 194.771 589.509 220.357 582.108C225.361 583.293 230.327 584.629 235.218 586.127C209.165 586.451 182.999 591.955 158.131 603.113C152.22 597.809 146.56 592.217 141.204 586.339ZM161.484 606.071C191.784 595.088 224.239 590.757 256.04 593.615C274.794 601.428 292.39 611.763 308.309 624.643C263.047 634.129 215.732 630.921 172.966 615.432C169.046 612.424 165.215 609.304 161.484 606.071ZM193.41 629.561C230.705 638.884 270.786 638.547 310.552 626.516C316.728 631.658 322.64 637.174 328.261 643.09C319.577 650.941 311.573 659.628 304.401 669.051C264.144 663.347 226.243 649.968 193.41 629.561ZM344.671 672.159C331.815 671.972 319.085 671.036 306.582 669.363C314.27 660.976 322.476 653.225 331.122 646.186C336.895 652.514 342.327 659.278 347.419 666.468C346.474 668.34 345.554 670.237 344.671 672.171V672.159ZM350.053 672.184C349.196 672.184 348.339 672.184 347.495 672.184C348.075 671.148 348.667 670.112 349.272 669.089C349.965 670.1 350.646 671.111 351.314 672.134C350.898 672.159 350.482 672.159 350.066 672.184H350.053ZM380.568 669.313C371.884 670.624 363.124 671.485 354.339 671.972C353.267 670 352.171 668.053 351.049 666.131C355.019 659.653 359.368 653.437 364.094 647.509C370.144 648.832 376.182 649.88 382.219 650.667C387.941 655.659 393.474 660.876 398.819 666.293C392.819 667.541 386.744 668.564 380.581 669.313H380.568ZM400.671 665.906C396.562 660.814 392.264 655.958 387.803 651.316C409.255 653.525 430.556 652.376 451.189 648.295C435.257 656.096 418.342 662.062 400.671 665.893V665.906ZM478.338 632.644C448.277 643.39 416.011 648.27 382.559 646.073C379.421 643.028 376.194 640.082 372.905 637.249C384.362 624.843 397.483 614.034 411.876 605.285C443.21 597.572 476.334 597.946 508.966 608.168C499.437 617.142 489.19 625.355 478.325 632.656L478.338 632.644ZM506.281 620.662C509.898 617.492 513.427 614.209 516.831 610.802C518.305 611.338 519.793 611.9 521.267 612.474C516.352 615.37 511.36 618.103 506.281 620.649V620.662ZM523.196 611.351C521.645 610.565 520.083 609.816 518.52 609.092C523.309 604.199 527.884 599.057 532.208 593.69C537.615 592.479 547.95 589.908 549.689 589.434C552.45 588.673 555.109 587.737 557.693 586.688C546.778 595.849 535.258 604.112 523.196 611.351ZM558.865 574.819C550.433 578.526 546.362 580.448 543.501 581.221C511.108 590.083 479.812 588.348 450.268 570.974C436.467 562.849 426.069 551.379 420.22 536.676C409.419 509.542 389.832 495.089 360.906 492.818C360.288 492.768 359.67 492.68 359.078 492.518C358.813 492.443 358.599 492.169 357.502 491.295C360.792 484.68 363.918 477.69 367.661 471.05C374.48 458.956 382.887 448.11 394.584 440.26C407.73 431.448 422.035 429.663 436.631 435.392C444.735 438.575 452.109 443.617 459.772 447.91C460.868 448.522 461.688 449.62 463.087 450.918C449.109 456.585 435.093 454.026 420.17 455.025C479.623 481.734 526.473 462.314 568.054 418.068C569.617 423.51 571.179 427.816 572.074 432.247C577.456 459.031 570.902 483.419 556.748 506.172C549.11 518.454 539.682 529.275 529.208 539.21C523.599 544.527 523.599 545.001 529.788 551.142C535.195 546.973 540.741 542.854 546.122 538.511C557.126 529.599 569.453 526.317 583.443 528.988C591.711 530.573 600.018 531.983 608.311 533.406C608.248 533.494 608.172 533.568 608.109 533.656C608.626 533.656 609.156 533.656 609.71 533.743C610.479 533.856 611.185 534.043 611.828 534.28C611.891 534.205 611.966 534.13 612.029 534.055C613.731 534.355 615.445 534.642 617.147 534.941C615.634 537.8 563.44 573.945 558.865 574.831V574.819ZM619.932 518.217C625.616 502.253 629.032 485.803 630.179 469.328C633.595 473.572 637.25 477.715 641.12 481.759C635.271 494.265 628.226 506.472 619.932 518.217ZM641.535 480.873C637.59 475.943 633.872 470.851 630.406 465.621C630.708 459.381 630.683 453.153 630.33 446.949C638.221 424.783 642.481 401.406 643.25 377.754C649.375 363.875 653.875 349.721 656.887 335.505C667.991 382.522 663.303 433.807 641.548 480.886L641.535 480.873Z" fill="white"/>
<path d="M353.557 388.563C358.876 388.75 363.376 383.895 363.401 377.917C363.426 372.163 359.292 367.32 354.162 367.133C348.78 366.933 344.432 371.676 344.381 377.779C344.331 383.695 348.301 388.363 353.544 388.551L353.557 388.563Z" fill="white"/>
<path d="M385.899 456.31C380.681 456.434 376.66 461.102 376.66 467.031C376.66 472.897 380.731 477.577 385.962 477.727C391.382 477.877 395.68 473.109 395.655 466.993C395.629 460.865 391.344 456.172 385.912 456.31H385.899Z" fill="white"/>
</g>
<defs>
<clipPath id="clip0_239_969">
<rect width="676.575" height="699.905" fill="white"/>
</clipPath>
</defs>
</svg>
