<svg width="1652" height="556" viewBox="0 0 1652 556" fill="none" xmlns="http://www.w3.org/2000/svg">
<path d="M636.397 420.916C563.953 537.19 397.783 584.196 272.514 482.741C106.204 345.652 193.553 75.7471 410.261 65.064L407.973 25.502C345.789 29.7752 285.546 55.8972 240.486 98.5608C122.981 207.46 130.329 403.203 258.51 500.04C395.634 606.114 576.709 550.148 648.113 420.847H636.467L636.397 420.916Z" fill="#AAAAAA"/>
<path d="M1311.27 443.109C1319.1 445.177 1326.59 448.554 1332.76 453.792C1345.86 464.889 1350.99 481.982 1357.79 497.972C1359.8 502.728 1365.83 504.244 1369.85 501.005C1382.81 490.46 1408.39 471.575 1411.58 468.818C1427.25 455.24 1446.45 446.556 1466.77 443.178H1311.34L1311.27 443.109Z" fill="#AAAAAA"/>
<path d="M874.181 135.711H1505.73C1586.42 135.711 1652 200.844 1652 281.14V309.054C1652 389.281 1586.49 454.482 1505.73 454.482H875.775C794.18 454.482 727.906 388.591 727.906 307.468V281.14C727.906 200.913 793.418 135.711 874.181 135.711Z" fill="#AAAAAA"/>
<path d="M400.141 135.711H1192.8V454.482H401.735C320.14 454.482 253.866 388.591 253.866 307.468V281.14C253.866 200.913 319.378 135.711 400.141 135.711Z" fill="#555454"/>
<path d="M577.68 245.438C583.296 222.555 605.341 201.189 635.012 200.844C663.573 200.5 687.421 220.901 693.452 245.369C692.897 245.369 692.412 245.438 691.857 245.438C678.825 245.438 665.861 245.438 652.828 245.438C650.61 245.438 648.946 246.196 647.906 248.195C646.173 251.641 648.46 255.638 652.343 255.707C657.473 255.776 662.603 255.707 667.733 255.707C676.537 255.707 685.41 255.707 694.215 255.707C695.116 255.707 695.393 256.052 695.393 256.879C695.393 260.808 695.393 264.736 695.393 268.872C694.631 268.872 693.799 268.872 693.036 268.872C679.587 268.872 666.138 268.872 652.62 268.872C649.986 268.872 648.045 270.319 647.49 272.662C646.935 275.006 647.906 277.487 650.055 278.521C650.817 278.866 651.719 279.072 652.551 279.072C662.811 279.072 673.001 279.072 683.261 279.072C687.282 279.072 691.303 279.072 695.462 279.072V292.099C694.977 292.099 694.561 292.099 694.076 292.099C686.728 292.099 679.31 292.099 671.961 292.099C665.584 292.099 659.206 292.099 652.828 292.099C649.57 292.099 647.351 294.236 647.351 297.337C647.351 300.37 649.57 302.437 652.828 302.437C666.416 302.437 680.003 302.437 693.591 302.437C694.145 302.437 694.7 302.437 695.324 302.437V315.602C692.551 315.602 689.709 315.602 686.936 315.602C675.497 315.602 663.989 315.602 652.551 315.602C650.124 315.602 648.252 316.911 647.559 319.048C646.797 321.254 647.559 323.735 649.5 324.906C650.471 325.527 651.788 325.803 652.967 325.803C666.554 325.803 680.142 325.803 693.799 325.803C694.284 325.803 694.769 325.803 695.324 325.803V338.967C694.63 338.967 694.145 338.967 693.591 338.967C679.864 338.967 666.208 338.967 652.481 338.967C649.916 338.967 647.767 340.69 647.351 342.964C646.866 345.652 648.183 348.202 650.679 348.892C651.927 349.236 653.382 349.168 654.7 349.236C667.317 349.236 679.934 349.236 692.481 349.236C692.759 349.236 693.036 349.236 693.313 349.236C687.975 372.05 664.682 394.381 634.11 393.692C604.509 393.003 582.88 371.361 577.542 349.167H579.344C592.377 349.167 605.479 349.167 618.512 349.167C620.661 349.167 622.325 348.203 623.157 346.204C624.058 344.136 623.85 342.137 622.256 340.414C621.216 339.243 619.76 338.829 618.166 338.829C607.005 338.829 595.774 338.829 584.613 338.829C581.701 338.829 578.789 338.829 575.67 338.829V325.665C578.235 325.665 580.869 325.665 583.504 325.665C595.081 325.665 606.589 325.665 618.166 325.665C621.84 325.665 623.92 323.252 623.504 319.737C623.157 317.118 621.216 315.464 618.304 315.464C613.59 315.464 608.946 315.464 604.231 315.464C595.15 315.464 586.138 315.464 577.056 315.464C576.571 315.464 576.086 315.464 575.462 315.464V302.299C576.017 302.299 576.571 302.299 577.195 302.299C590.783 302.299 604.37 302.299 618.027 302.299C620.939 302.299 623.642 300.163 623.573 297.13C623.504 293.96 621.424 291.961 618.027 291.961C609.639 291.961 601.32 291.961 592.932 291.892C587.178 291.892 581.424 291.892 575.531 291.892V278.866C576.016 278.866 576.502 278.866 577.056 278.866C590.783 278.866 604.44 278.866 618.166 278.866C622.325 278.866 624.821 275.213 623.157 271.491C622.256 269.423 620.453 268.527 618.235 268.527C604.786 268.527 591.337 268.527 577.819 268.527C577.126 268.527 576.363 268.527 575.462 268.527C575.462 267.08 575.462 265.77 575.462 264.392C575.462 261.841 575.462 259.36 575.462 256.81C575.462 255.707 575.878 255.294 577.056 255.294C590.644 255.294 604.232 255.294 617.819 255.294C620.176 255.294 622.048 254.604 623.018 252.33C624.544 248.884 622.325 244.955 618.166 244.955C607.767 245.024 597.438 244.955 587.039 244.955C583.85 244.955 580.661 244.955 577.403 244.955L577.68 245.438Z" fill="white"/>
<path d="M555.496 322.494C558.824 322.494 561.597 325.182 561.597 328.49C561.597 333.177 561.666 339.587 561.943 343.309C562.636 353.716 565.825 363.435 570.955 372.533C576.363 382.113 583.919 390.522 592.931 396.863C605.063 405.34 618.443 409.751 633.001 410.303C642.637 410.647 652.273 409.131 661.285 405.754C674.11 400.929 684.717 393.279 693.174 382.871C700.731 373.498 705.791 362.952 708.079 351.166C708.911 346.617 709.258 341.93 709.465 337.244C709.604 335.038 709.604 331.523 709.604 328.49C709.604 325.182 712.308 322.494 715.635 322.494C718.963 322.494 721.667 325.182 721.667 328.49C721.667 328.628 721.667 328.835 721.667 328.973C721.736 337.175 721.667 345.377 720.003 353.51C715.774 373.773 705.583 390.453 689.5 403.479C676.814 413.749 661.424 420.159 645.132 421.951C627.801 423.812 611.302 420.848 595.843 412.853C587.108 408.373 579.344 402.514 572.619 395.346C563.884 386.042 557.506 375.359 553.555 363.228C551.198 356.129 549.465 344.067 549.396 336.555C549.396 333.867 549.396 331.247 549.396 328.559C549.396 325.251 552.168 322.563 555.496 322.563V322.494Z" fill="#AAAAAA"/>
<path d="M230.573 125.234H101.283C45.3459 125.234 0 170.318 0 225.932V266.528C0 322.141 45.3459 367.225 101.283 367.225H230.573C286.51 367.225 331.856 322.141 331.856 266.528V225.932C331.856 170.318 286.51 125.234 230.573 125.234Z" fill="#AAAAAA"/>
<path d="M98.1631 205.047C98.1631 195.674 97.8858 189.333 97.4005 184.784V184.301H68.7002V184.853C69.1161 192.366 69.1855 205.806 69.1855 226.483V308.226H98.5791V250.33C98.5791 223.519 109.74 212.078 135.945 212.009H136.43V182.303H135.876C112.167 182.441 101.976 196.846 98.0938 205.047H98.1631Z" fill="white"/>
<path d="M209.914 181.958C168.32 181.958 153.554 216.627 153.554 246.264C153.554 287.687 173.103 310.501 208.597 310.501C244.091 310.501 256.292 289.134 261.422 271.214L261.63 270.525H232.722L232.583 270.869C228.909 281.553 221.145 286.998 209.568 286.998C202.566 286.998 196.743 284.792 192.375 280.381C186.483 274.522 183.294 264.804 183.225 252.88H262.67V252.398C262.878 250.882 263.086 243.989 263.086 242.542C263.086 219.866 256.154 181.82 209.914 181.82V181.958ZM209.429 204.565C228.909 204.565 233.762 219.866 234.317 232.962H183.779C184.542 222.072 189.048 204.565 209.429 204.565Z" fill="white"/>
<path d="M1344.89 316.014C1344.89 338.346 1337.41 347.443 1318.97 347.443C1300.53 347.443 1292.34 337.794 1292.34 316.083V217.385H1258.17V317.255C1258.17 356.404 1278.41 376.322 1318.34 376.322C1358.27 376.322 1379.28 356.266 1379.28 316.772V217.385H1344.89V316.014Z" fill="white"/>
<path d="M1501.84 217.315V271.558C1501.84 288.1 1501.91 305.055 1502.47 320.149C1494.98 305.261 1480.42 277.072 1450.47 219.314L1449.43 217.315H1409.23V374.047H1441.11V319.597C1441.11 301.195 1441.11 282.379 1440.7 265.975C1448.19 281.069 1462.95 310.5 1494.15 371.911L1495.19 373.978H1533.73V217.246H1501.77L1501.84 217.315Z" fill="white"/>
<path d="M486.796 220.417C471.198 266.596 460.66 299.404 455.392 318.564C448.945 292.994 436.952 251.502 426.83 220.486L425.998 217.936H380.938V370.877H412.203V313.257C412.203 300.231 412.064 284.93 411.718 270.869C420.244 303.539 432.099 345.445 438.685 368.189L439.447 370.809H467.662L468.494 368.258C478.962 336.347 491.094 297.129 499.344 267.423C499.136 280.519 498.997 295.544 498.997 310.156V370.809H531.371V217.867H487.697L486.865 220.348L486.796 220.417Z" fill="white"/>
<path d="M795.637 217.936H742.118V370.877H794.042C839.727 370.877 867.041 341.102 867.041 291.201C867.041 246.056 839.658 217.936 795.637 217.936ZM775.463 245.987H793.765C818.652 245.987 832.864 262.598 832.864 291.615C832.864 315.049 826.07 343.032 793.488 343.032H775.394V245.987H775.463Z" fill="white"/>
<path d="M928.808 305.606H993.21V276.796H928.808V246.677H995.983V217.936H896.156V370.877H996.122L1000.42 342.274H928.808V305.606Z" fill="white"/>
<path d="M1061.08 217.936H1027.87V370.877H1124.72L1128.81 342.274H1061.08V217.936Z" fill="white"/>
<path d="M470.297 41.6299L398.893 0L406.796 94.4253L470.297 41.6299Z" fill="#AAAAAA"/>
<path d="M625.584 454.55C633.902 444.005 641.459 432.839 647.975 420.984H636.329C628.842 432.977 620.315 444.143 610.956 454.55H625.514H625.584Z" fill="#AAAAAA"/>
</svg>
