<svg width="1382" height="642" viewBox="0 0 1382 642" fill="none" xmlns="http://www.w3.org/2000/svg">
<path d="M687.567 446.306C670.98 505.332 639.543 558.115 597.522 600.342C581.856 590.833 566.106 580.799 554.456 572.735C547.052 580.066 546.466 592.969 546.842 603.945C547.721 629.415 547.533 616.072 548.411 641.521C529.817 557.906 499.53 535.389 435.024 481.977C404.257 456.507 321.637 396.078 341.257 346.709C323.415 391.323 285.536 405.546 259.035 439.143C246.967 454.454 238.558 452.904 243.85 477.013C244.833 481.537 264.745 514.632 271.271 508.222C267.925 511.511 264.578 514.82 261.211 518.109C274.681 524.644 288.151 531.179 301.642 537.735C296.433 542.238 291.246 546.783 286.038 551.287C306.118 551.601 314.442 576.778 317.224 596.697C319.065 609.914 320.905 623.131 322.746 636.348C296.643 611.569 277.881 580.129 253.743 553.444C213.082 508.536 143.87 539.599 77.7124 581.197C52.4666 551.789 31.9687 518.213 17.3691 481.621C95.5749 427.371 179.805 351.254 198.19 334.141C213.919 319.5 230.945 301.905 219.943 276.016C210.259 253.269 181.331 261.522 172.233 246.169C163.469 231.402 211.534 208.948 222.683 200.716C267.318 167.684 307.645 128.851 342.24 85.3672C354.204 101.998 370.874 114.566 387.273 126.882C429.67 158.678 472.088 190.494 514.485 222.311C534.816 237.56 550.231 245.268 519.442 252.892C502.584 257.06 487.21 260.831 482.525 279.996C475.455 308.818 495.033 328.632 514.945 344.384C559.685 379.761 627.914 418.574 687.546 446.39L687.567 446.306Z" fill="white"/>
<path d="M671.912 424.77C630.519 401.374 589.126 377.998 547.732 354.602C535.475 347.669 522.675 340.254 515.312 328.231C507.95 316.208 508.326 298.174 519.935 290.172C527.151 285.208 536.5 285.271 545.118 283.742C553.735 282.213 563.252 277.521 564.674 268.87C566.18 259.675 557.898 252.239 552.982 244.343C542.671 227.795 547.753 204.231 562.416 191.392C577.078 178.552 599.144 176.08 617.425 182.804C625.311 185.694 632.882 190.386 637.4 197.487C641.918 204.587 642.734 214.432 637.881 221.281C632.234 229.241 621.462 231 612.363 234.477C603.265 237.975 593.936 247.087 597.617 256.114C600.985 264.367 612.97 265.247 620.751 260.89C628.532 256.533 633.823 248.846 640.747 243.233C647.67 237.598 658.233 234.31 665.219 239.818C671.849 245.055 671.64 255.151 669.59 263.362C666.202 276.872 659.383 289.481 649.95 299.724C644.554 305.567 638.049 310.804 630.331 312.626C622.591 314.469 613.514 312.186 609.059 305.588C604.604 298.99 606.967 288.266 614.455 285.627C621.943 282.988 630.937 292.267 626.879 299.116C635.371 294.801 631.983 280.307 623.219 276.599C614.455 272.892 604.394 276.557 595.944 280.977C583.123 287.701 569.632 301.483 575.739 314.616C579.023 321.654 586.887 325.257 594.376 327.246C610.063 331.415 626.921 331.038 642.399 326.157C653.276 322.722 665.282 317.192 675.384 322.492C681.513 325.717 685.131 332.273 687.578 338.788C690.841 347.459 692.598 357.241 689.377 365.933C686.156 374.626 676.639 381.391 667.708 378.983C659.007 376.637 654.405 367.337 650.975 358.979C645.181 367.127 646.06 379.339 652.962 386.586C657.71 391.571 664.445 393.98 670.762 396.703C677.078 399.405 683.604 402.924 686.783 409.019C689.963 415.114 687.934 424.309 681.324 426.216C677.748 427.242 673.962 425.964 670.531 424.519C663.378 421.461 656.601 417.544 650.389 412.873" fill="white"/>
<path d="M396.111 114.734C388.874 100.973 386.511 82.4359 397.011 70.9785C405.733 61.4482 420.06 60.0657 432.945 60.1705C444.135 60.2543 455.911 61.1549 465.323 67.2083C474.735 73.2616 480.697 86.1014 475.635 96.0926C485.173 94.2494 488.582 82.2893 488.436 72.5704C488.289 62.8515 486.951 51.8759 493.351 44.5658C500.17 36.7949 512.636 37.3185 522.111 41.4239C542.399 50.2002 555.514 73.2197 552.753 95.171C552.126 100.219 550.619 105.393 547.085 109.058C542.462 113.876 534.535 115.111 528.657 111.928C522.78 108.744 519.475 101.455 520.939 94.9197C511.046 97.0352 503.537 107.152 504.374 117.248C505.21 127.344 514.309 136.078 524.411 136.518C533.531 136.895 541.73 131.449 550.473 128.852C559.216 126.234 571.201 128.286 573.481 137.147C574.569 141.378 572.979 145.818 571.243 149.819C557.292 181.845 522.906 212.635 491.489 185.301C475.865 171.707 467.749 163.559 447.523 155.181C425.791 146.195 407.49 136.434 396.07 114.693L396.111 114.734Z" fill="white"/>
<path d="M577.255 130.87C580.581 133.3 583.614 137.029 583.007 141.092C582.338 145.784 577.109 149.114 577.234 153.848C577.318 156.864 579.807 159.483 582.735 160.195C585.664 160.907 588.822 159.901 591.165 158.016C593.884 155.838 596.456 152.277 599.866 153.01C603.317 153.743 603.589 159.776 600.2 160.823C602.648 161.724 605.22 162.645 607.772 162.226C610.324 161.807 612.792 159.545 612.436 156.948C612.269 155.67 611.453 154.56 611.035 153.324C610.617 152.089 610.847 150.434 612.039 149.952C612.457 149.785 612.917 149.806 613.357 149.847C617.77 150.35 620.97 154.749 621.451 159.168C621.932 163.588 620.301 167.966 618.335 171.966C622.1 172.574 625.948 170.458 628.228 167.379C630.508 164.3 631.428 160.425 631.784 156.613C632.411 149.785 631.386 142.852 629.399 136.274C625.614 123.707 618.042 111.914 606.894 104.981C597.753 99.3051 579.661 94.9693 569.935 102.091C565.919 105.023 564.287 110.448 564.517 115.287C564.915 123.56 571.273 126.514 577.193 130.829L577.255 130.87Z" fill="white"/>
<path d="M372.75 61.4259C381.242 54.7442 391.093 50.0313 401.112 46.0516C415.168 40.48 430.604 36.228 445.266 39.8517C450.391 41.1084 455.243 43.2868 460.368 44.5016C465.492 45.7165 471.181 45.8422 475.741 43.203C482.497 39.2652 484.735 29.6929 481.43 22.5923C478.126 15.4916 470.282 11.1768 462.48 10.8416C455.745 10.5484 449.094 12.8734 442.338 12.6011C430.081 12.0774 419.728 3.1964 407.722 0.703844C400.087 -0.888041 391.93 0.243035 385.007 3.86667C380.28 6.33828 375.762 10.7997 376.138 16.12C376.473 20.8538 381.116 24.7078 385.843 24.5821C390.57 24.4564 394.837 20.6652 395.967 16.0781C400.631 19.4923 398.686 27.4517 393.938 30.7402C389.19 34.0287 383.041 34.1753 377.309 34.8246C364.781 36.228 351.227 41.9043 346.751 53.7178C344.868 58.682 345.161 84.3407 353.256 84.0893C356.247 84.0055 360.263 74.3704 361.999 72.1292C365.094 68.1286 368.755 64.5678 372.729 61.4468L372.75 61.4259Z" fill="white"/>
<path d="M19.1719 424.786C60.5651 401.389 101.958 378.014 143.352 354.617C155.608 347.684 168.409 340.269 175.772 328.246C183.134 316.224 182.758 298.189 171.149 290.188C163.933 285.224 154.584 285.287 145.966 283.757C137.349 282.228 127.832 277.537 126.409 268.886C124.903 259.691 133.186 252.255 138.102 244.358C148.413 227.811 143.331 204.247 128.668 191.407C114.006 178.567 91.9394 176.096 73.6587 182.819C65.7732 185.71 58.2016 190.402 53.6837 197.502C49.1658 204.603 48.35 214.448 53.2026 221.297C58.85 229.256 69.6218 231.016 78.7204 234.493C87.8189 237.991 97.1476 247.102 93.4663 256.13C90.0988 264.383 78.1138 265.262 70.333 260.906C62.5521 256.549 57.2603 248.862 50.3371 243.248C43.4138 237.614 32.8511 234.325 25.8651 239.834C19.2346 245.07 19.4438 255.166 21.4936 263.377C24.882 276.887 31.7007 289.497 41.1339 299.739C46.5303 305.583 53.0353 310.82 60.7533 312.642C68.4924 314.485 77.57 312.202 82.0252 305.604C86.4803 299.006 84.1168 288.282 76.6288 285.643C69.1408 283.003 60.1468 292.282 64.2045 299.132C55.7125 294.817 59.101 280.322 67.8649 276.615C76.6288 272.908 86.6895 276.573 95.1396 280.993C107.961 287.716 121.452 301.499 115.345 314.632C112.061 321.669 104.196 325.272 96.7083 327.262C81.0212 331.43 64.1627 331.053 48.6847 326.173C37.8082 322.738 25.8023 317.208 15.6998 322.507C9.57134 325.733 5.95283 332.289 3.50563 338.803C0.242698 347.475 -1.51426 357.256 1.70683 365.949C4.92793 374.642 14.4448 381.407 23.376 378.998C32.0772 376.652 36.6788 367.352 40.109 358.995C45.9028 367.143 45.0243 379.354 38.122 386.602C33.374 391.587 26.639 393.995 20.3223 396.718C14.0056 399.441 7.47971 402.939 4.30045 409.035C1.10026 415.13 3.15005 424.325 9.75958 426.231C13.3363 427.257 17.1221 425.98 20.5524 424.535C27.7057 421.476 34.4826 417.56 40.6947 412.889" fill="white"/>
<path d="M294.97 114.734C302.207 100.973 304.571 82.4359 294.071 70.9785C285.349 61.4482 271.021 60.0657 258.137 60.1705C246.947 60.2543 235.171 61.1549 225.758 67.2083C216.346 73.2616 210.385 86.1014 215.447 96.0926C205.909 94.2494 202.5 82.2893 202.646 72.5704C202.792 62.8515 204.131 51.8759 197.731 44.5658C190.912 36.7949 178.446 37.3185 168.971 41.4239C148.682 50.2002 135.568 73.2197 138.329 95.171C138.956 100.219 140.462 105.393 143.997 109.058C148.619 113.876 156.547 115.111 162.424 111.928C168.301 108.744 171.606 101.455 170.142 94.9197C180.035 97.0352 187.544 107.152 186.708 117.248C185.871 127.344 176.773 136.078 166.67 136.518C157.551 136.895 149.351 131.449 140.608 128.852C131.865 126.234 119.88 128.286 117.601 137.147C116.513 141.378 118.103 145.818 119.839 149.819C133.79 181.845 168.176 212.635 199.592 185.301C215.217 171.707 223.332 163.559 243.558 155.181C265.29 146.195 283.592 136.434 295.012 114.693L294.97 114.734Z" fill="white"/>
<path d="M113.79 130.872C110.465 133.302 107.432 137.03 108.039 141.094C108.708 145.786 113.937 149.116 113.811 153.85C113.728 156.866 111.239 159.484 108.31 160.197C105.382 160.909 102.224 159.903 99.8812 158.018C97.1621 155.84 94.5894 152.279 91.18 153.012C87.7289 153.745 87.4569 159.778 90.8454 160.825C88.3982 161.726 85.8255 162.647 83.2737 162.228C80.701 161.809 78.2538 159.547 78.6094 156.95C78.7767 155.672 79.5924 154.562 80.0108 153.326C80.4291 152.091 80.199 150.436 79.0068 149.954C78.5885 149.787 78.1283 149.807 77.6891 149.849C73.2757 150.352 70.0756 154.751 69.5945 159.17C69.1134 163.59 70.7449 167.968 72.711 171.968C68.9461 172.576 65.0975 170.46 62.8176 167.381C60.5378 164.302 59.6174 160.427 59.2619 156.615C58.6344 149.787 59.6593 142.853 61.6463 136.276C65.4322 123.709 73.0038 111.916 84.1522 104.983C93.2926 99.307 111.385 94.9712 121.111 102.093C125.127 105.025 126.759 110.45 126.528 115.289C126.131 123.562 119.773 126.516 113.853 130.831L113.79 130.872Z" fill="white"/>
<path d="M313.818 60.6272C305.682 54.2177 296.227 49.6934 286.606 45.8813C273.136 40.5401 258.327 36.4766 244.251 39.9327C239.335 41.1475 234.692 43.2421 229.756 44.3941C224.84 45.5462 219.381 45.6928 215.01 43.1374C208.526 39.3671 206.371 30.1719 209.551 23.3854C212.73 16.599 220.239 12.4308 227.727 12.1166C234.19 11.8443 240.569 14.0645 247.033 13.7922C258.787 13.2895 268.702 4.78552 280.227 2.37674C287.547 0.847697 295.391 1.93688 302 5.41389C306.539 7.78078 310.869 12.0537 310.513 17.1645C310.2 21.7098 305.744 25.3962 301.206 25.2706C296.667 25.1449 292.588 21.5213 291.5 17.1017C287.024 20.3692 288.907 28.0145 293.446 31.1773C298.005 34.3401 303.883 34.4658 309.384 35.0942C321.39 36.4557 334.4 41.8806 338.687 53.2123C340.486 57.967 340.214 82.5784 332.454 82.3271C329.589 82.2433 325.74 73.0062 324.067 70.8697C321.097 67.0366 317.583 63.6224 313.776 60.6272H313.818Z" fill="white"/>
<path d="M875.08 68.2948L869.261 70.477L849.476 41.3815H833.474V135.36L849.04 140.161L845.403 147.435H798.268V141.47L811.943 130.705V41.3815H796.377L776.592 70.477L770.773 68.2948V30.4707L779.647 33.0893H866.206L875.08 30.4707V68.2948Z" fill="white"/>
<path d="M1010.22 147.435H963.081V141.47L976.756 130.414V94.6262H922.639V135.214L938.205 140.161L934.568 147.435H887.433V141.47L901.108 130.414V45.1639L885.688 40.3632L889.324 33.0893H936.459V39.0539L922.639 50.1101V86.334H976.756V45.1639L961.336 40.3632L964.973 33.0893H1012.11V39.0539L998.287 50.1101V135.214L1013.85 140.161L1010.22 147.435Z" fill="white"/>
<path d="M1112.89 147.435H1023.72V141.47L1037.39 130.705V45.3094L1021.97 40.3632L1025.61 33.0893H1111.44L1120.31 30.4707V65.3853L1114.49 67.5674L1096.89 41.3815H1058.92V84.8792H1079.43L1090.2 67.131H1096.16V110.629L1088.89 114.266L1079.58 93.1715H1058.92V138.997H1096.16L1115.95 110.047L1121.77 112.229V150.053L1112.89 147.435Z" fill="white"/>
<path d="M832.892 280.409C832.892 277.403 831.679 274.59 829.255 271.971C826.927 269.353 824.018 266.977 820.526 264.843C817.035 262.612 812.185 259.848 805.978 256.551C798.705 252.671 792.837 249.326 788.376 246.513C783.914 243.603 780.083 240.257 776.883 236.475C773.779 232.596 772.228 228.328 772.228 223.673C772.228 218.824 774.313 213.635 778.483 208.107C782.751 202.482 787.939 197.778 794.049 193.996C800.159 190.116 805.784 188.177 810.925 188.177C817.132 188.177 824.357 188.904 832.601 190.359C840.941 191.813 847.003 193.365 850.785 195.014V224.691H842.057C837.595 216.836 832.649 210.726 827.218 206.361C821.884 201.997 816.259 199.815 810.343 199.815C805.396 199.815 801.517 201.366 798.705 204.47C795.892 207.477 794.486 211.404 794.486 216.254C794.486 219.454 795.698 222.461 798.123 225.273C800.547 227.989 803.554 230.462 807.142 232.693C810.828 234.923 815.774 237.639 821.981 240.839C829.061 244.525 834.831 247.774 839.293 250.586C843.754 253.399 847.488 256.696 850.494 260.479C853.598 264.261 855.15 268.432 855.15 272.99C855.15 277.839 852.871 283.076 848.312 288.701C843.851 294.23 838.371 298.933 831.873 302.813C825.375 306.595 819.459 308.486 814.125 308.486C807.627 308.486 799.868 307.759 790.849 306.304C781.926 304.849 775.477 303.298 771.5 301.649V271.971H780.374C785.03 279.827 790.364 285.937 796.377 290.302C802.39 294.666 808.548 296.848 814.853 296.848C820.284 296.848 824.648 295.248 827.945 292.047C831.243 288.75 832.892 284.87 832.892 280.409Z" fill="white"/>
<path d="M914.678 305.431H867.544V299.467L881.219 288.41V203.161L865.798 198.36L869.435 191.086H916.57V197.051L902.749 208.107V293.211L918.315 298.157L914.678 305.431Z" fill="white"/>
<path d="M979.018 298.157L975.381 305.431H928.246V299.467L941.921 288.41V203.161L926.501 198.36L930.138 191.086H977.272V197.051L963.452 208.107V293.211L979.018 298.157ZM1042.59 305.431H1014.37L970.726 248.113L1014.51 209.853L997.494 198.36L1001.13 191.086H1042.01V197.051L991.675 241.13L1029.79 290.302L1046.23 298.157L1042.59 305.431Z" fill="white"/>
<path d="M1102.37 298.157L1098.74 305.431H1051.6V299.467L1065.28 288.41V203.161L1049.86 198.36L1053.49 191.086H1100.63V197.051L1086.81 208.107V293.211L1102.37 298.157ZM1165.95 305.431H1137.72L1094.08 248.113L1137.87 209.853L1120.85 198.36L1124.49 191.086H1165.36V197.051L1115.03 241.13L1153.14 290.302L1169.58 298.157L1165.95 305.431Z" fill="white"/>
<path d="M1222.09 305.431H1174.96V299.467L1188.63 288.41V203.161L1173.21 198.36L1176.85 191.086H1223.98V197.051L1210.16 208.107V293.211L1225.73 298.157L1222.09 305.431Z" fill="white"/>
<path d="M1378.08 305.431H1330.95V299.467L1344.62 288.701V212.471L1306.8 305.431H1297.05L1259.23 211.889V291.029L1274.79 298.157L1271.15 305.431H1235.66V299.467L1249.33 288.701V205.779L1233.91 198.36L1237.55 191.086H1272.76L1307.82 278.372L1342.73 191.086H1379.83V197.051L1366.01 207.816V293.357L1381.72 298.157L1378.08 305.431Z" fill="white"/>
<path d="M892.828 454.65H845.694V448.686L859.369 437.63V401.842H805.251V442.43L820.817 447.377L817.18 454.65H770.045V448.686L783.72 437.63V352.38L768.3 347.579L771.937 340.305H819.071V346.27L805.251 357.326V393.55H859.369V352.38L843.948 347.579L847.585 340.305H894.72V346.27L880.899 357.326V442.43L896.465 447.377L892.828 454.65Z" fill="white"/>
<path d="M953.463 454.65H906.328V448.686L920.003 437.63V352.38L904.583 347.579L908.219 340.305H955.354V346.27L941.534 357.326V442.43L957.1 447.377L953.463 454.65Z" fill="white"/>
<path d="M1109.45 454.65H1062.32V448.686L1075.99 437.921V361.69L1038.17 454.65H1028.42L990.598 361.109V440.248L1006.16 447.377L1002.53 454.65H967.031V448.686L980.706 437.921V354.998L965.285 347.579L968.922 340.305H1004.13L1039.19 427.592L1074.1 340.305H1111.2V346.27L1097.38 357.035V442.576L1113.09 447.377L1109.45 454.65Z" fill="white"/>
<path d="M1201.19 454.65H1171.37V441.994L1154.93 454.941C1152.99 455.717 1150.56 456.105 1147.65 456.105C1138.92 456.105 1132.57 453.972 1128.6 449.704C1124.72 445.34 1122.78 440.103 1122.78 433.993C1122.78 430.404 1123.99 426.913 1126.41 423.518C1128.94 420.027 1132.48 416.729 1137.03 413.626H1171.37V406.934C1171.37 395.878 1165.45 390.349 1153.62 390.349C1147.41 390.349 1139.46 393.598 1129.76 400.096L1125.4 393.55L1146.05 377.111C1150.13 376.044 1155.22 375.511 1161.33 375.511C1170.93 375.511 1178.4 377.79 1183.73 382.348C1189.07 386.906 1191.73 393.55 1191.73 402.279V442.285L1204.83 447.377L1201.19 454.65ZM1153.33 440.83C1158.76 440.83 1164.77 438.357 1171.37 433.411V421.045H1146.49C1144.55 423.373 1143.58 426.185 1143.58 429.483C1143.58 432.683 1144.45 435.399 1146.2 437.63C1148.04 439.763 1150.42 440.83 1153.33 440.83ZM1127.43 338.414H1191.15V346.27H1127.43V338.414Z" fill="white"/>
<path d="M1300.94 454.65H1211.32V448.686L1225 437.921V352.234L1209.58 347.579L1213.22 340.305H1260.35V346.27L1246.53 357.035V446.213H1282.17L1303.99 414.353L1309.81 416.535V457.269L1300.94 454.65Z" fill="white"/>
<path d="M798.649 586.314H767.356V582.355L776.435 575.014V518.417L766.197 515.23L768.612 510.401H799.905V514.361L790.729 521.701V578.202L801.064 581.485L798.649 586.314Z" fill="white"/>
<path d="M875.458 521.701V586.314H868.89L823.303 530.78V576.366L834.893 581.485L832.478 586.314H807.657V582.355L816.736 575.014V520.832L806.498 515.23L808.912 510.401H824.462L868.89 564.39V520.155L857.397 515.23L859.811 510.401H884.633V514.361L875.458 521.701Z" fill="white"/>
<path d="M931.841 569.702C931.841 567.706 931.037 565.839 929.427 564.1C927.882 562.362 925.95 560.784 923.632 559.368C921.314 557.887 918.095 556.052 913.974 553.863C909.145 551.287 905.249 549.066 902.287 547.199C899.325 545.267 896.782 543.046 894.657 540.534C892.597 537.959 891.567 535.126 891.567 532.035C891.567 528.816 892.951 525.371 895.72 521.701C898.553 517.966 901.997 514.843 906.054 512.332C910.11 509.757 913.845 508.469 917.257 508.469C921.378 508.469 926.175 508.952 931.648 509.918C937.186 510.884 941.21 511.914 943.721 513.008V532.711H937.926C934.964 527.496 931.68 523.439 928.075 520.542C924.533 517.644 920.799 516.196 916.871 516.196C913.587 516.196 911.012 517.226 909.145 519.286C907.277 521.282 906.344 523.89 906.344 527.109C906.344 529.234 907.149 531.23 908.758 533.098C910.368 534.9 912.364 536.542 914.746 538.023C917.193 539.504 920.477 541.307 924.598 543.432C929.298 545.879 933.129 548.036 936.091 549.903C939.053 551.77 941.532 553.959 943.528 556.47C945.588 558.982 946.619 561.75 946.619 564.777C946.619 567.996 945.105 571.473 942.079 575.207C939.117 578.878 935.479 582 931.165 584.576C926.851 587.087 922.924 588.343 919.382 588.343C915.068 588.343 909.917 587.86 903.929 586.894C898.005 585.928 893.724 584.898 891.084 583.803V564.1H896.975C900.066 569.316 903.607 573.372 907.599 576.27C911.591 579.167 915.68 580.616 919.865 580.616C923.471 580.616 926.368 579.554 928.558 577.429C930.747 575.24 931.841 572.664 931.841 569.702Z" fill="white"/>
<path d="M1024.58 533.774L1020.72 535.222L1007.58 515.906H996.957V578.298L1007.29 581.485L1004.88 586.314H973.584V582.355L982.663 575.207V515.906H972.328L959.193 535.222L955.33 533.774V508.662L961.221 510.401H1018.69L1024.58 508.662V533.774Z" fill="white"/>
<path d="M1064.07 586.314H1032.78V582.355L1041.86 575.014V518.417L1031.62 515.23L1034.04 510.401H1065.33V514.361L1056.15 521.701V578.202L1066.49 581.485L1064.07 586.314Z" fill="white"/>
<path d="M1142.81 533.774L1138.95 535.222L1125.82 515.906H1115.19V578.298L1125.53 581.485L1123.11 586.314H1091.82V582.355L1100.9 575.207V515.906H1090.56L1077.43 535.222L1073.56 533.774V508.662L1079.46 510.401H1136.92L1142.81 508.662V533.774Z" fill="white"/>
<path d="M1220.84 521.508V556.374C1220.84 563.135 1219.2 568.93 1215.92 573.759C1212.63 578.588 1208.55 582.226 1203.65 584.673C1198.82 587.055 1194.09 588.246 1189.45 588.246C1183.53 588.246 1178.22 586.991 1173.52 584.479C1168.88 581.904 1165.24 578.395 1162.6 573.952C1159.96 569.445 1158.64 564.39 1158.64 558.788V518.32L1148.41 515.23L1150.82 510.401H1182.11V514.361L1172.94 521.508V554.635C1172.94 562.298 1174.84 568.254 1178.64 572.503C1182.5 576.753 1188.3 578.878 1196.02 578.878C1198.92 578.878 1201.79 577.976 1204.62 576.173C1207.45 574.306 1209.77 571.602 1211.57 568.06C1213.44 564.519 1214.37 560.366 1214.37 555.601V519.962L1203.85 515.23L1206.26 510.401H1230.02V514.361L1220.84 521.508Z" fill="white"/>
<path d="M1304.62 533.774L1300.76 535.222L1287.62 515.906H1277V578.298L1287.34 581.485L1284.92 586.314H1253.63V582.355L1262.71 575.207V515.906H1252.37L1239.24 535.222L1235.37 533.774V508.662L1241.27 510.401H1298.73L1304.62 508.662V533.774Z" fill="white"/>
<path d="M1372.03 586.314H1312.82V582.355L1321.9 575.207V518.514L1311.67 515.23L1314.08 510.401H1371.06L1376.96 508.662V531.842L1373.09 533.291L1361.41 515.906H1336.2V544.784H1349.82L1356.96 533.001H1360.92V561.879L1356.09 564.294L1349.91 550.289H1336.2V580.713H1360.92L1374.06 561.493L1377.92 562.941V588.053L1372.03 586.314Z" fill="white"/>
</svg>
