<svg width="1656" height="688" viewBox="0 0 1656 688" fill="none" xmlns="http://www.w3.org/2000/svg">
<g clip-path="url(#clip0_239_650)">
<path d="M173.493 395.322L173.451 395.279L173.493 395.322Z" fill="white"/>
<path d="M173.495 395.322C174.846 396.717 174.366 398.766 175.325 401.119C175.936 398.199 175.892 396.325 173.495 395.322Z" fill="white"/>
<path d="M227.548 463.141C227.548 463.141 227.374 462.968 227.287 462.881C227.287 462.968 227.287 463.011 227.374 463.054C227.374 463.054 227.504 463.054 227.548 463.098V463.141Z" fill="white"/>
<path d="M228.246 461.877H228.115L228.159 462.008L228.246 461.877Z" fill="white"/>
<path d="M120.836 676.885C120.618 676.624 120.574 676.318 120.574 675.97C120.662 676.275 120.749 676.58 120.836 676.885C120.836 675.185 120.836 673.485 120.923 671.786C120.967 670.042 120.313 668.909 118.569 668.473C117.087 667.863 115.648 667.209 114.123 666.642C112.989 666.207 112.641 663.635 110.897 665.073C109.938 665.901 109.502 667.471 109.066 668.778C108.761 669.606 108.848 670.565 108.805 671.437C107.453 672.265 107.715 673.66 107.497 674.88C107.061 677.147 109.11 678.803 109.153 680.546C109.241 683.859 111.159 684.774 113.512 684.992C117.697 685.384 121.795 684.425 125.805 682.595C123.277 681.244 121.097 679.849 120.836 676.841V676.885Z" fill="white"/>
<path d="M311.767 630.074C310.808 632.471 310.721 635.174 309.544 637.527C309.151 638.355 309.936 639.096 310.59 639.489C312.159 640.491 313.685 639.707 315.167 639.184C316.605 638.704 316.78 637.571 316.78 636.35C316.911 633.43 314.339 631.861 313.38 629.464C312.944 628.418 312.116 629.159 311.767 630.074Z" fill="white"/>
<path d="M300.564 608.849C299.474 609.677 300.433 610.506 300.825 611.203C302.133 613.556 303.397 615.954 304.967 618.133C305.751 619.223 306.1 621.925 307.669 620.923C309.282 619.92 307.146 618.307 306.492 617.043C305.315 614.733 303.179 612.859 303.441 609.939C303.136 609.939 302.787 609.939 302.613 609.765C302.002 609.285 301.741 607.978 300.608 608.849H300.564Z" fill="white"/>
<path d="M303.397 609.895V609.937H303.44V609.895H303.397Z" fill="white"/>
<path d="M39.9732 682.552C39.3629 681.811 38.6219 680.765 37.5757 681.288C36.5295 681.811 36.3987 683.031 36.6167 684.208C37.227 687.346 39.6245 688.654 43.8965 687.738C41.3682 686.692 41.281 684.208 39.9732 682.552Z" fill="white"/>
<path d="M340.668 628.897C339.012 628.897 338.75 630.858 338.62 632.035C338.402 633.779 340.276 633.866 341.409 634.04C343.676 634.389 342.717 632.384 342.979 631.861C343.763 629.115 341.54 628.897 340.668 628.854V628.897Z" fill="white"/>
<path d="M109.415 655.746C110.679 654.962 111.071 653.785 110.941 652.39C110.941 652.172 110.505 651.78 110.374 651.824C108.935 652.172 109.066 653.654 108.499 654.613C108.412 654.787 108.369 655.005 108.282 655.18C107.453 657.228 106.669 659.32 105.753 661.369C105.448 662.023 104.838 662.546 105.797 663.025C106.451 663.374 106.974 662.894 107.235 662.371C108.238 660.236 109.72 658.274 109.371 655.746H109.415Z" fill="white"/>
<path d="M149.519 657.359C149.519 658.841 149.388 660.323 149.301 661.805C151.655 660.148 152.658 658.013 151.699 655.18C150.26 655.18 149.519 655.833 149.519 657.359Z" fill="white"/>
<path d="M33.4349 648.99C32.3451 648.903 32.1271 649.775 31.9528 650.516C31.3425 652.87 31.604 655.398 30.1655 657.577C29.6424 658.361 30.4271 658.797 31.1245 659.059C31.9963 659.407 32.4759 658.884 32.6502 658.143C33.2169 655.528 33.74 652.913 34.3503 650.08C34.3939 649.601 34.2195 649.034 33.4785 648.99H33.4349Z" fill="white"/>
<path d="M29.0758 640.71C29.4682 640.1 29.8605 639.49 30.2528 638.879L32.6939 634.695C34.5684 632.341 35.0043 629.726 33.8709 626.937L33.7837 618.307C33.9145 615.082 34.3504 611.813 32.7811 608.718C32.476 604.97 29.6425 602.616 27.7245 599.783C27.2014 598.388 26.6347 596.993 26.1552 595.599C25.9372 594.945 26.0244 594.073 25.0654 594.117C24.15 594.117 23.6705 594.814 23.5833 595.729C20.6627 596.863 20.6627 600.044 19.137 602.137C17.2189 604.011 15.5625 606.016 15.2573 608.805C14.7342 611.42 12.0315 613.295 12.7726 616.346C12.5982 616.607 12.3803 616.869 12.2059 617.13C9.32886 620.225 8.98013 624.278 7.93393 628.114C6.36463 630.772 4.05428 633.082 4.35942 636.526C3.35682 639.664 4.88252 643.281 2.57217 646.202C-0.6972 648.468 -0.6972 651.214 2.22343 654.221C4.09787 656.139 6.58259 656.837 8.71858 658.188C7.97752 658.58 6.19027 658.275 7.36724 660.062C6.539 659.975 5.75435 660.062 5.05689 660.541C4.62097 660.367 4.18505 660.149 3.74914 659.975C2.87731 660.541 2.09266 661.152 3.09527 662.285C3.87991 663.2 4.53379 663.157 5.10048 662.067C6.05949 662.59 7.01851 662.372 8.02111 662.328C9.06731 662.416 10.1571 662.328 11.1597 662.59C12.1187 662.808 12.9906 663.331 13.5572 662.067C14.865 662.633 16.042 662.372 17.001 661.326C17.2189 660.934 17.4369 660.498 17.6548 660.106C19.7036 661.282 21.9704 661.239 24.2372 661.457C28.0296 661.893 26.5911 658.406 27.986 657.098C28.1604 656.444 28.3348 655.834 28.5091 655.18C28.7271 654.439 29.5553 653.698 29.1194 652.957C26.7219 648.86 30.0784 644.851 29.1194 640.797L29.0758 640.71Z" fill="white"/>
<path d="M37.4887 671.48C37.7067 670.216 37.4015 668.996 36.8784 667.819C36.7912 666.381 35.8322 665.901 34.6552 666.294C33.5219 666.686 33.4783 667.688 33.827 668.778C34.2629 670.086 34.6552 671.393 35.0476 672.701C36.4425 673.485 37.2271 673.006 37.4887 671.48Z" fill="white"/>
<path d="M40.8452 622.273C38.2733 624.191 41.4554 625.935 40.8452 627.722C42.3709 625.847 41.5426 624.104 40.8452 622.273Z" fill="white"/>
<path d="M46.0761 671.742C46.0761 669.389 44.8991 668.735 42.458 668.43C43.5914 670.217 44.5068 671.088 46.0761 671.742Z" fill="white"/>
<path d="M31.604 583.09C32.563 583.221 32.7374 582.131 32.8682 581.39C33.0425 580.431 32.4323 579.996 31.6476 579.734C30.645 579.647 30.6886 580.344 30.8194 580.867C30.9937 581.652 30.427 582.872 31.604 583.09Z" fill="white"/>
<path d="M343.196 605.014C343.196 605.014 342.847 605.057 342.673 605.014C341.845 602.834 341.452 600.306 339.011 599.13C339.011 598.737 339.011 598.345 339.011 597.909C339.447 597.909 339.84 597.909 340.276 597.909C342.935 597.909 343.981 596.427 343.85 593.943C343.719 591.764 344.024 589.671 345.071 587.71C345.201 586.664 345.376 585.574 345.507 584.528C346.814 584.136 348.166 583.744 349.473 583.352C350.52 585.356 351.697 586.097 353.004 583.569C353.266 581.303 354.486 579.124 353.527 576.77L354.007 572.412C355.097 569.971 354.007 567.879 352.961 565.786C352.525 564.435 352.089 563.084 351.653 561.777C350.781 560.687 350.084 559.423 349.081 558.421C349.081 558.203 349.168 557.985 349.212 557.767C348.732 555.239 347.207 553.234 345.855 551.142C348.384 553.844 349.779 553.844 352.307 551.142C354.574 548.701 355.14 545.476 356.361 542.555C356.622 541.945 356.361 541.422 356.056 540.899C355.925 540.812 355.794 540.725 355.707 540.638C356.622 538.894 355.533 538.022 354.007 537.412C354.094 537.194 354.181 536.976 354.181 536.758C352.22 533.882 351.479 530.613 350.868 527.257C350.738 526.472 350.302 525.775 349.735 525.208C349.386 524.99 348.994 524.86 348.602 524.729C348.427 523.203 347.991 521.765 346.553 521.068C345.637 520.632 345.114 521.46 344.591 522.244C344.155 522.244 343.719 522.244 343.24 522.332C342.847 522.506 342.586 522.767 342.412 523.029C342.717 522.244 343.153 521.503 343.763 520.806C344.722 519.673 345.419 518.235 344.678 516.622C343.937 515.924 343.414 515.14 342.978 514.268C342.368 512.089 341.627 509.91 340.145 508.079C339.97 507.6 339.752 507.12 339.665 506.641C339.273 504.026 339.927 501.454 340.276 498.882C340.363 498.054 340.406 497.139 339.709 496.572C340.014 496.485 340.363 496.442 340.711 496.354C341.888 496.18 342.586 495.265 343.196 494.35C344.635 492.04 345.201 489.642 344.417 486.984C342.586 484.804 341.191 482.451 340.755 479.574C340.624 478.572 340.276 477.395 339.011 477.002C337.311 476.479 336.222 475.521 335.524 473.734C334.827 471.859 333.475 470.203 331.121 470.072C331.034 470.072 330.947 470.16 330.86 470.203C330.86 470.203 330.86 470.116 330.816 470.072C330.947 469.985 331.034 469.854 331.165 469.767C331.557 467.98 332.996 466.629 333.214 464.755C333.039 464.406 332.909 464.101 332.778 463.752C333.083 463.273 333.344 462.794 333.65 462.314C335.742 459.525 332.429 458.653 331.732 456.866C331.688 456.081 331.601 455.253 331.121 454.599C331.514 451.461 330.38 448.454 330.293 445.359C330.293 444.488 329.988 443.616 329.334 443.049C329.857 442.439 330.598 441.96 330.424 440.957C329.901 437.601 330.816 434.071 328.898 430.932C328.462 430.235 328.549 429.625 329.16 429.058C329.378 428.927 329.596 428.797 329.857 428.666C330.075 428.666 330.293 428.666 330.511 428.71C331.644 429.276 332.952 428.71 334.129 428.056C335.132 427.533 335.655 426.705 335.306 425.746C335.306 425.746 335.306 425.702 335.35 425.659C336.832 424.656 336.701 422.825 337.486 421.518C338.183 419.295 337.704 416.506 340.624 415.416C340.886 415.285 341.147 415.111 341.322 414.849C341.496 414.588 341.67 414.37 341.888 414.108C342.455 414.065 343.022 413.847 343.501 413.411C344.286 412.714 344.896 411.711 346.204 412.278C348.776 414.065 349.909 411.362 351.609 410.491C354.574 411.711 355.881 414.762 358.322 416.549C358.279 415.547 358.148 414.501 357.233 413.89C355.402 412.714 354.617 410.578 352.961 409.227C353.789 409.619 354.268 409.575 353.963 408.442C353.789 407.701 353.615 406.96 353.484 406.263C355.925 405.304 356.535 408.617 359.064 408.66C357.407 406.786 356.056 405.26 354.704 403.691V403.43C354.879 402.689 355.271 402.166 356.056 401.948C356.797 401.948 357.712 401.861 357.625 400.989C357.407 399.028 358.758 397.938 359.717 396.587C359.892 396.5 360.023 396.413 360.153 396.282C361.548 395.584 361.417 394.451 361.025 393.187C360.458 391.357 360.153 389.526 360.72 387.608L360.851 387.434C360.371 385.996 359.151 385.734 357.974 385.908C356.535 386.083 355.053 385.908 353.92 385.298C350.214 383.424 346.378 383.903 342.542 383.991C342.412 383.991 342.281 383.991 342.15 383.991C340.45 384.121 338.488 383.162 337.224 385.124C335.132 384.339 333.17 385.211 331.165 385.69C328.898 385.996 327.024 387.303 325.106 388.393C324.626 388.567 324.19 388.436 323.842 388.131C323.842 388.131 323.842 388.131 323.842 388.088C323.624 388.218 323.406 388.349 323.144 388.48C322.97 388.959 322.795 389.439 322.665 389.918C317.869 391.051 313.99 394.19 309.718 396.325C305.62 398.33 301.174 399.638 297.076 401.817C292.63 404.214 288.532 406.655 285.132 410.36C281.601 412.67 279.291 416.157 277.373 419.687C273.973 425.876 271.619 432.501 270.267 439.432C269.701 442.178 268.437 444.923 265.821 445.795C262.508 446.885 259.762 448.846 256.623 450.154C252.962 451.723 249.387 453.51 246.554 456.517C243.633 459.612 240.625 462.794 236.353 464.058C234.392 465.147 232.081 465.67 230.73 467.675C230.381 467.849 229.989 468.024 229.64 468.198C227.068 468.634 227.722 465.757 226.24 464.842C225.412 464.363 226.589 463.404 227.286 462.881C227.373 460.658 226.24 459.22 224.278 458.304C224.496 457.302 223.189 456.081 224.496 455.34C226.284 454.294 227.155 452.159 229.161 451.461C230.599 450.154 229.684 449.151 228.638 448.367C227.504 447.495 227.33 446.536 227.809 445.316C228.245 443.441 230.163 441.437 227.286 439.867C226.807 437.95 224.714 437.034 224.366 435.029C223.232 433.853 224.278 432.545 224.148 431.325C224.758 431.761 224.889 432.894 225.891 432.763C226.589 432.676 226.545 432.109 226.414 431.586C225.76 428.753 225.063 425.964 224.496 423.131C224.191 421.736 223.668 421.387 222.535 422.346C222.099 422.346 221.663 422.346 221.227 422.346C221.227 422.346 220.835 422.346 220.66 422.346C220.486 419.295 219.047 417.9 215.909 418.728C215.604 416.898 217.522 414.806 215.255 413.149C214.557 410.447 215.822 408.442 217.609 406.655C220.006 403.212 219.919 402.95 216.388 402.427C216.17 402.34 215.996 402.253 215.778 402.166C215.168 401.425 214.557 400.728 213.947 399.987C215.037 397.459 217.217 395.846 219.047 393.972C217.958 394.713 216.868 395.41 215.734 396.02C213.904 397.589 212.16 399.246 210.896 401.381C209.762 402.515 208.673 403.648 207.539 404.781C205.752 405.043 204.793 406.132 204.357 407.832C203.224 408.311 202.09 408.442 200.87 408.399C196.511 408.224 192.151 408.922 187.792 408.399H187.487C187.705 407.178 187.574 405.783 188.141 404.868C190.015 402.079 188.882 401.207 186.092 401.12C183.913 400.815 182.866 402.079 183.172 404.781C183.52 403.125 185.133 403.212 186.092 402.427C187.836 402.209 187.661 402.994 187.444 404.345C187.182 405.958 185.351 407.57 187.269 409.27C187.269 409.793 187.269 410.316 187.269 410.839C186.92 412.06 186.354 411.537 185.482 411.275C183.869 410.796 182.605 408.747 180.6 410.186C180.207 409.968 179.859 409.75 179.466 409.532C179.466 409.532 179.423 409.532 179.379 409.532C179.074 405.871 176.546 402.602 173.887 402.297C170.007 401.904 169.702 401.556 169.833 397.415C170.966 396.63 169.963 392.664 173.276 395.018C172.797 393.231 173.189 391.095 170.879 389.264C171.402 392.839 168.481 394.756 169.135 397.546C168.568 398.941 167.173 398.853 166.04 399.246C166.04 399.246 165.691 399.246 165.561 399.246C163.904 397.066 162.248 398.897 160.853 399.464C158.586 400.466 156.624 400.466 154.488 399.246C153.747 398.853 153.181 397.546 152.265 398.112C151.306 398.679 151.786 399.987 151.96 400.858C152.222 402.035 151.524 402.689 150.914 403.43C149.17 401.512 147.775 398.461 144.419 401.425C143.896 401.861 143.111 401.425 142.457 401.12C140.277 398.156 136.659 396.282 135.918 391.923C134.959 393.536 135.221 394.626 135.788 395.759C136.398 396.979 138.621 397.241 138.272 398.853C137.923 400.466 135.744 400.248 134.698 401.294C134.349 401.643 133.913 401.904 133.521 402.209C132.998 402.035 132.518 402.209 132.169 402.602C130.992 403.822 130.949 406.176 131.733 407.963C131.777 408.355 131.908 408.66 132.169 408.747C132.518 409.27 132.91 409.663 133.39 409.924C135.744 411.232 138.795 412.539 139.188 415.198C139.711 418.423 140.583 421.169 142.457 423.872C144.506 426.792 147.819 429.538 145.683 433.896C145.683 433.983 145.683 434.114 145.814 434.245C145.814 434.376 145.944 434.55 146.075 434.681C145.944 435.465 145.552 436.119 144.898 436.599C142.021 437.601 141.847 438.429 143.721 441.96C143.024 442.352 142.413 442.831 142.544 443.79C142.719 444.88 142.239 445.446 141.193 445.708C139.406 445.359 138.316 445.708 139.057 447.8C139.58 449.238 139.711 450.241 137.749 450.459C136.964 450.546 136.703 451.548 136.398 452.289C136.311 454.599 135.657 456.474 133.085 457.215C131.69 457.607 130.949 458.827 130.382 460.135C128.638 460.789 127.026 460.919 125.413 459.612C123.974 458.479 122.318 457.563 120.748 456.561C120.923 455.34 121.097 454.12 121.272 452.9C121.62 451.548 120.836 450.938 119.702 450.459C118.612 450.023 117.566 449.456 116.52 448.933C115.517 447.669 116.651 444.488 113.12 445.316C115.169 446.318 114.689 448.89 116.476 449.892C117.523 451.374 120.007 450.851 120.661 452.9C118.002 452.159 117.392 453.248 118.264 455.602C118.264 456.081 118.264 456.561 118.264 457.04C115.735 458.086 114.079 459.786 113.992 462.663C113.251 463.796 113.687 464.929 113.992 466.106C115.212 468.808 114.035 471.424 113.512 474.039C112.946 474.78 113.338 475.521 113.512 476.305C114.253 480.359 113.294 482.058 109.807 483.104C107.497 483.845 105.797 485.371 104.402 487.332C102.135 483.715 98.0372 481.623 96.1628 477.264C95.9012 478.833 95.9448 480.271 94.4627 481.056C98.5894 482.334 99.8826 483.816 98.3424 485.502C96.5987 486.548 94.7243 487.289 92.6319 487.463C94.9422 487.986 97.209 488.335 98.3424 485.502C99.345 485.197 100.13 485.458 100.696 486.33C101.568 487.681 102.919 487.942 104.402 487.899C104.445 487.899 104.489 487.899 104.532 487.812C106.407 486.461 108.281 485.066 110.504 484.543C110.94 484.674 111.507 484.456 112.03 484.325C112.292 484.325 112.553 484.325 112.815 484.325C114.079 483.322 114.733 481.971 114.776 480.402C114.82 478.484 115.779 478.354 117.348 478.659C119.397 479.095 120.923 480.402 122.666 481.317C121.62 484.107 120.574 486.853 119.571 489.642C119.223 490.558 118.612 491.429 119.484 492.388C119.266 492.65 119.048 492.955 118.787 493.216C116.346 493.696 114.384 492.214 112.204 491.516C109.72 490.993 107.235 490.514 104.75 489.991C103.704 489.773 102.745 489.424 102.527 490.95C102.527 491.168 102.527 491.342 102.527 491.516C100.696 491.211 99.127 488.683 97.0346 490.95C96.8602 491.124 96.6859 491.255 96.5551 491.429C96.25 491.822 96.1192 492.257 96.0756 492.737C95.3345 495.483 96.1628 498.403 95.2909 501.105C91.6293 503.895 89.6676 507.469 90.4959 512.22C90.1036 512.873 89.7112 513.484 89.2753 514.137C88.8394 514.66 88.1855 515.401 88.5778 515.968C90.2343 518.452 88.5779 520.588 88.0548 522.855C87.5317 524.729 85.3085 524.075 84.3495 525.252C81.5596 524.031 80.4698 527.039 78.421 527.649C77.8979 527.518 77.5928 527.867 77.2876 528.216C74.367 530.569 73.4952 533.838 74.7593 537.804C73.0592 538.24 71.7951 539.243 71.0105 540.855C69.6591 542.163 66.7821 542.163 67.3488 545.083C65.9538 547.524 68.0898 549.878 67.5667 552.319C67.5667 552.493 67.5231 552.624 67.4795 552.798C64.4717 553.844 62.205 557.374 62.6845 560.208C61.8998 562.953 61.4639 565.569 64.0358 567.835C65.4743 569.143 64.5153 570.799 63.905 572.281C61.769 572.412 61.1152 570.886 60.5485 569.273C60.1997 568.402 59.7202 567.661 58.9356 567.138C57.5407 566.266 56.0585 565.612 54.4021 566.397C53.4866 566.833 52.5712 567.443 52.8764 568.663C53.2687 570.407 54.0097 571.889 56.0585 572.15C56.8868 573.022 57.3663 573.981 56.6252 575.157C56.2329 576.029 55.8406 576.857 55.4047 577.729C53.5738 579.603 51.7866 578.731 49.9557 577.729C46.9043 578.296 45.8145 577.729 46.7299 575.768C48.8223 571.148 46.3812 568.097 43.417 565.089C41.3246 565.612 39.4938 565.569 38.5347 563.171C37.5321 562.387 36.7039 562.648 35.9192 563.52C34.0012 565.656 32.2575 567.966 29.9472 569.753C29.3369 570.232 29.3369 570.973 29.4677 571.671C28.2907 574.155 29.6421 576.16 31.2549 577.555C34.7859 580.606 34.8295 584.005 32.9114 587.754C30.2087 593.071 32.0832 597.691 35.6141 601.44C38.7963 604.839 40.5399 608.631 41.5426 612.946C40.3656 612.728 39.4066 612.685 39.7117 614.428C40.2784 617.436 41.5426 620.181 42.7195 622.927C42.8939 623.886 43.0683 624.845 43.2426 625.848C42.7631 626.153 42.7195 626.632 42.7631 627.155C42.9811 627.242 43.0247 627.417 43.0247 627.591C42.9375 627.46 42.8503 627.286 42.7631 627.155C43.199 629.596 42.1528 631.993 42.7631 634.39C42.4144 634.565 42.0656 634.783 41.7169 634.957C38.9271 636.047 37.7501 638.487 36.6603 641.015C35.7449 641.321 35.8321 642.192 35.5705 642.89C34.5243 648.425 36.6603 653.219 39.145 657.927C39.8425 659.757 40.0168 661.762 41.281 663.331C41.4554 663.811 41.5426 664.334 41.8477 664.726C42.3272 665.423 42.5016 666.687 43.7657 666.121C45.0299 665.554 44.376 664.682 43.9401 663.898C43.199 662.59 43.5478 661.152 43.3298 659.757C43.9837 660.324 44.594 660.89 45.2478 661.457C44.8555 662.024 45.2478 662.59 45.5966 662.677C48.9531 663.68 49.607 666.949 51.3507 669.302C50.9583 670.174 50.566 671.046 50.1301 671.918C49.607 673.4 49.8249 674.794 50.6096 676.102C50.4352 676.538 50.2609 676.93 50.0865 677.366C48.43 677.409 46.7735 677.54 45.2042 676.799C43.6785 677.54 41.4118 676.058 40.4528 678.456C39.7117 677.932 39.8425 676.32 38.404 676.756C37.5321 677.017 37.6629 677.889 37.7501 678.543C38.0116 680.155 39.1886 679.414 40.104 679.371C40.5835 679.371 41.1066 679.458 41.5861 679.502C44.4196 679.545 47.253 678.717 50.0865 679.545C52.484 680.025 52.3097 677.845 53.0943 676.668C53.661 677.017 54.8816 676.93 54.838 677.627C54.5328 681.114 57.2355 680.417 58.892 680.33C62.6409 680.155 65.7795 678.412 68.1334 675.448C68.8745 674.533 69.354 673.356 70.6617 673.007C71.4028 673.225 72.1874 673.4 72.9285 673.617C74.2798 674.751 75.0645 674.664 76.1107 672.964C77.9851 669.913 77.9415 666.077 80.4262 663.331C82.475 664.203 84.2187 665.423 84.5674 667.821C84.6546 668.474 84.3059 669.433 85.2649 669.433C86.4419 669.433 86.0059 668.256 86.2675 667.559C87.706 668.431 89.2317 669.128 91.1497 669.041C91.1497 667.646 91.1497 666.382 91.1497 665.075C91.1933 663.636 90.8882 661.98 92.8934 661.413C93.5473 661.675 94.2012 661.893 94.8986 662.154C94.0704 662.939 91.6293 662.765 92.6755 664.508C93.5037 665.903 95.5961 666.295 97.4269 666.426C98.909 666.557 99.2142 665.423 99.6501 664.421C100.914 661.501 102.004 658.537 102.702 655.442C102.919 655.094 103.05 654.788 102.963 654.57C103.617 652.26 104.314 649.95 104.532 647.553C105.361 646.115 105.143 644.72 104.62 643.238C103.704 640.841 102.876 638.4 102.004 635.959C101.394 633.083 104.184 631.296 104.314 628.768C104.532 624.584 105.012 620.399 105.666 616.259C106.276 615.649 106.93 615.038 107.54 614.428C112.597 612.772 113.687 610.505 111.158 607.062C110.504 605.755 109.022 604.796 109.327 603.096C109.676 601.222 109.981 599.391 109.327 597.517C109.066 596.732 109.109 595.468 110.679 596.296C112.074 596.689 113.425 597.125 114.82 597.517C114.82 597.691 114.82 597.909 114.82 598.083C113.73 599.347 115.343 600.568 114.907 601.919C114.558 602.965 114.21 604.447 115.299 605.188C116.433 605.929 117.479 604.709 118.482 604.229C120.574 605.449 123.408 606.19 122.056 609.677C121.054 609.895 120.618 610.68 120.269 611.508C119.223 612.51 118.177 613.469 117.13 614.472C116.258 615.256 115.125 615.91 114.515 616.912C113.512 618.569 111.856 620.399 114.079 622.404C112.466 624.627 112.728 626.676 114.776 628.506C114.602 628.855 114.428 629.247 114.21 629.596C114.646 631.383 115.299 633.083 116.651 634.39C116.476 635.131 116.302 635.872 116.128 636.613C116.476 637.223 116.825 637.834 117.174 638.444C116.607 638.836 116.476 639.49 116.694 640.057C117.653 642.715 117.741 645.505 117.784 648.251C117.392 648.469 117.043 648.73 116.651 648.948C116.694 654.048 115.692 658.929 114.297 663.767C114.602 664.595 114.689 665.641 115.866 665.641C120.138 665.554 121.795 668.518 123.277 671.787C122.1 673.748 122.71 675.535 124.367 676.581C126.023 677.627 127.287 676.363 128.159 674.881C128.769 673.879 129.423 672.876 130.077 671.874C130.469 671.656 130.862 671.395 131.254 671.177C133.172 668.692 134.175 665.903 133.564 662.721C134.175 662.503 134.567 662.067 134.828 661.457C135.7 662.242 136.703 663.462 137.836 662.547C138.97 661.631 139.885 659.801 138.839 658.493C137.313 656.619 137.488 654.135 136.093 652.304C135.744 651.563 135.657 650.779 136.093 650.038C137.4 649.166 137.793 647.64 138.577 646.42C140.19 643.848 139.885 643.238 136.703 642.192C135.57 641.451 134.611 640.536 134.349 639.141C135.134 638.967 135.7 638.531 136.136 637.877C139.144 640.536 139.318 640.492 141.542 636.962C141.76 636.57 142.283 636.395 142.675 636.09C143.111 636.308 143.547 636.526 143.939 636.7C143.154 638.676 143.619 640.158 145.334 641.146C145.334 641.146 145.552 641.495 145.726 641.582C147.688 642.846 149.388 641.582 150.957 640.797C152.396 640.144 152.222 638.749 151.306 637.485C150.609 636.482 151.088 635.48 151.873 634.826C155.229 632.037 155.229 628.07 154.968 624.453C154.619 619.964 154.227 620.007 158.629 620.922C158.717 619.833 158.542 618.656 158.935 617.741C159.937 615.3 158.586 614.341 156.668 613.774C154.575 613.164 152.396 612.772 150.609 611.421C149.824 608.195 151.35 604.491 148.734 601.614C148.647 601.44 148.691 601.309 148.734 601.134C151.568 598.912 151.96 597.43 150.478 594.989C150.086 594.64 149.737 594.248 149.344 593.899C150.216 592.461 150.304 590.63 151.655 589.454C153.66 591.371 155.317 591.371 156.319 588.495C156.537 587.928 156.755 587.187 157.453 587.361C158.281 587.536 158.368 588.364 158.281 589.061C158.194 589.715 158.063 590.5 157.627 591.023C155.97 593.071 156.886 593.769 158.978 593.986C159.196 594.509 159.371 595.076 159.589 595.599C159.283 596.122 158.978 596.645 158.673 597.168C156.319 600.045 157.888 603.052 158.455 606.016C156.537 607.89 156.711 608.936 159.327 610.767C159.458 609.721 158.324 608.5 159.719 607.803C160.286 608.631 160.853 609.459 161.419 610.288C162.16 612.641 162.204 615.082 161.942 617.523C161.594 618.569 161.245 619.658 160.896 620.704C160.068 622.448 159.283 624.235 158.455 625.978C157.365 628.506 159.109 630.119 160.33 631.95C160.722 634.521 161.594 636.918 162.684 639.272C161.637 641.408 163.425 642.105 164.689 642.89C166.171 643.848 167.871 644.502 169.048 645.897C171.053 648.309 173.334 648.672 175.892 646.987C177.025 648.251 179.205 647.858 180.12 649.515C180.861 650.866 181.777 650.604 182.866 649.994C183.738 649.515 184.697 649.166 185.613 648.774C186.659 647.074 186.179 645.156 186.267 643.325C187.138 641.364 186.92 639.316 186.92 637.267C186.615 636.57 186.005 636.613 185.395 636.657C182.91 636.831 180.861 638.139 178.856 639.403C177.417 640.318 176.24 640.1 175.194 638.793C174.104 637.398 174.061 636.09 175.325 634.783C176.328 633.693 177.592 633.214 179.03 633.083C180.818 633.737 178.9 634.172 178.943 634.739C178.028 635.829 176.11 636.003 176.066 637.877C176.066 638.008 176.546 638.269 176.764 638.226C178.246 637.921 179.205 636.962 179.728 635.524C180.425 635.829 181.079 635.698 181.689 635.306C184.305 633.606 186.31 634.347 187.967 636.744C188.49 639.098 187.313 641.8 189.318 643.892C189.972 646.071 188.838 647.902 188.097 649.82C186.746 650.996 185.438 652.217 184 653.307C182.082 654.788 182.866 655.791 184.61 656.358C187.923 657.404 191.236 658.406 194.636 659.234C196.38 659.626 196.162 658.232 195.987 657.142C196.205 656.793 196.38 656.445 196.598 656.14C200.172 653.96 200.434 653.045 198.429 649.471C197.905 648.512 197.208 647.64 196.598 646.769C196.118 644.677 195.377 642.672 194.157 640.928C194.069 634.739 194.505 628.768 199.518 624.148C200.434 623.32 200.39 621.968 199.126 621.402C198.254 621.01 197.164 621.14 196.205 620.966C193.851 620.574 190.974 621.315 189.972 618.046C189.754 616.825 189.536 615.649 189.362 614.428C189.972 613.644 190.582 612.815 191.192 612.031C192.064 610.898 191.759 609.852 191.062 608.806C190.233 607.585 189.449 606.321 189.362 604.796C189.013 604.403 188.62 603.968 188.272 603.575C188.403 603.401 188.577 603.183 188.708 603.009C190.103 601.701 190.408 599.827 191.149 598.171C191.977 596.384 192.805 594.553 193.59 592.766C194.68 589.802 192.892 588.233 190.582 587.1C187.967 585.836 185.22 584.79 183.913 581.913C183.913 581.085 183.913 580.301 183.913 579.472C185.569 577.729 187.4 576.334 190.059 577.119C189.928 577.075 189.841 576.988 189.754 576.901H189.841C189.928 576.901 189.972 577.032 190.059 577.075C191.105 577.467 191.933 578.078 192.631 578.993C194.68 581.782 196.903 582.393 200.041 580.911C200.957 580.475 201.742 580.344 202.526 580.649C201.959 580.78 201.349 580.954 200.783 581.129C197.208 582.349 193.982 582.436 191.149 579.429C190.277 578.514 189.013 578.165 187.879 579.124C186.702 580.083 186.746 581.347 187.313 582.654C187.923 584.005 189.1 584.746 190.408 585.269C191.585 585.705 192.5 586.315 193.198 587.318C195.028 589.148 195.9 591.241 195.116 593.812C194.898 594.902 194.331 595.817 193.59 596.689C191.628 599.086 190.844 601.701 191.323 604.883C191.672 607.367 193.459 609.634 192.457 612.336C191.977 613.469 192.021 614.646 192.021 615.866C191.977 616.084 191.977 616.346 192.021 616.564C192.021 617 191.933 617.436 191.846 617.828C193.023 619.964 195.159 619.266 196.903 619.397C200.347 619.658 201.349 620.661 201.611 624.104C201.654 624.889 201.436 625.673 201.611 626.458C201.829 627.591 202.483 628.724 201.96 629.901C201.393 631.209 201.218 632.516 201.175 633.867C201.088 634.216 201 634.521 200.913 634.87C199.911 638.226 201.611 640.667 203.18 643.151C203.18 643.718 203.049 644.284 202.831 644.851C203.049 646.246 203.354 647.64 204.444 648.643C204.619 648.774 204.793 648.904 204.967 648.992C205.098 650.735 206.406 652.086 207.626 652.653C209.893 653.655 211.244 657.665 214.732 655.355C214.732 655.268 214.732 655.224 214.775 655.137C214.906 654.745 215.081 654.353 215.124 653.96C215.255 653.437 215.342 652.914 215.429 652.435C216.083 651.345 217.173 650.473 217.173 649.079C218.176 645.853 219.527 642.759 219.309 639.228C219.265 638.4 219.047 637.746 218.699 637.223C219.135 637.659 219.527 638.182 219.788 638.793C220.006 638.967 220.224 639.185 220.399 639.403C219.963 641.931 219.788 644.546 218.96 646.987C218.742 647.466 218.524 647.902 218.394 648.381C217.347 650.125 217.565 651.694 218.655 653.35C219.091 654.788 219.876 655.965 221.009 656.793C221.271 657.229 221.532 657.709 221.706 658.188C223.014 659.626 224.976 659.191 226.545 659.975C227.199 660.28 227.853 660.106 228.55 659.975C229.727 660.76 230.381 660.978 230.861 660.629C231.209 661.196 231.297 661.936 231.82 662.416C231.602 662.895 231.733 663.331 232.386 663.724C233.302 663.724 234.304 663.941 235.045 663.549C236.876 662.634 240.538 664.377 240.102 660.15C240.756 659.583 240.93 658.885 240.669 658.057C240.843 658.145 241.105 658.145 241.235 658.275C244.723 662.634 249.256 662.111 251.785 657.098C251.959 656.793 252.308 656.314 252.569 656.314C256.405 656.227 255.446 653.307 255.708 651.084C255.708 649.384 256.493 647.466 254.575 646.202C252.744 643.064 249.779 640.318 251 636.09C253.223 639.795 255.795 643.238 258.672 646.42C259.588 647.422 259.021 649.079 260.503 649.645C261.2 649.907 261.636 651.084 262.508 650.343C263.38 649.602 262.595 648.904 262.159 648.251C261.462 647.161 260.677 646.115 259.936 645.069C260.459 643.587 258.672 641.713 259.849 640.797C261.724 639.359 261.724 636.657 263.947 635.654C265.036 635.175 265.342 634.042 265.385 632.865C265.647 632.124 265.865 631.383 266.126 630.642C267.26 629.204 268.088 627.635 267.87 625.717C268.001 623.494 270.311 621.445 268.48 619.048C269.352 619.615 270.355 620.051 271.139 620.704C272.752 622.056 274.409 622.927 276.457 621.533C276.588 618.525 278.855 619.223 280.686 619.092C281.819 620.53 282.996 621.968 283.04 623.93C283.214 624.322 283.389 624.714 283.563 625.107C282.996 626.327 282.517 627.591 283.563 628.811C283.563 629.596 283.563 630.424 283.65 631.209C284.304 636.526 282.473 641.19 279.683 645.592C278.158 648.033 278.942 650.822 281.732 651.345C286.614 652.304 291.453 651.955 295.681 648.774C296.597 648.12 297.12 647.379 296.292 646.289C298.428 645.287 300.738 644.459 301.741 642.018C303.441 638.705 300.782 638.487 298.733 637.79C297.861 637.18 296.815 637.18 295.812 637.18C295.725 636.962 295.681 636.7 295.638 636.482C298.34 636.265 299.997 635.001 299.866 632.124C299.779 630.511 302.133 629.334 300.564 627.504C301.043 625.717 302.918 624.279 301.828 622.143C301.784 621.14 301.741 620.138 301.697 619.179C301.828 616.607 301.043 614.254 299.91 611.987C299.343 608.849 296.684 606.626 296.161 603.488C295.681 602.442 296.074 601.483 296.466 600.524C297.469 599.173 298.079 597.473 297.207 596.122C296.074 594.379 296.204 592.635 296.335 590.805C296.728 589.279 298.166 588.495 298.951 587.274C299.735 586.054 300.476 584.921 299.299 583.569C297.294 582.741 295.333 583.831 293.371 583.657C293.545 583.09 293.72 582.523 293.894 581.957C295.812 581.521 297.687 581.085 299.605 580.606C301.915 582.654 303.223 584.615 300.869 587.71C298.907 590.325 297.861 593.42 299.299 596.863C299.692 597.866 299.299 599.217 299.299 600.394C299.299 600.829 299.299 601.222 299.343 601.657C298.253 603.401 299.474 604.316 300.607 605.319C301.915 606.496 303.441 607.454 303.615 609.459C304.138 609.634 304.705 610.07 304.661 608.936C304.618 607.542 304.661 606.147 304.705 604.752C304.574 602.355 304.443 599.958 304.312 597.56C304.443 597.386 304.618 597.212 304.748 597.037H305.838C305.533 600.394 308.279 602.791 308.977 605.885C309.849 607.411 309.151 609.285 310.11 610.767C310.677 612.118 310.546 613.6 311.462 614.908C313.074 617.305 313.162 617.436 315.08 614.995C315.428 614.995 315.777 614.995 316.126 614.995C317.259 617.305 315.951 620.225 317.913 622.361C318.218 624.191 318.872 625.673 321.052 625.891C320.964 627.678 322.708 628.245 323.449 629.465C325.106 633.867 328.68 635.48 332.603 633.301C335.611 631.601 338.793 629.814 339.273 625.804C339.622 624.409 339.665 623.058 339.099 621.707C339.317 621.271 339.578 620.835 339.796 620.399C343.981 619.528 346.073 616.782 345.724 612.728C345.594 612.075 345.463 611.377 345.332 610.723C345.114 610.331 344.94 609.939 344.722 609.547C344.46 608.152 344.199 606.757 343.981 605.362M213.729 628.724C213.773 628.463 213.816 628.201 213.86 627.94C214.122 625.891 213.686 625.063 212.073 625.15C214.034 624.889 214.339 625.891 213.729 628.724Z" fill="white"/>
<path d="M209.763 625.715C209.85 625.715 209.893 625.715 209.98 625.672C209.937 625.672 209.85 625.715 209.806 625.715H209.763Z" fill="white"/>
<path d="M206.056 466.41L206.014 466.367H206.056V466.41Z" fill="white"/>
<path d="M224.191 544.734C224.191 544.821 224.235 544.865 224.278 544.951C224.191 544.951 224.148 544.865 224.061 544.778C224.061 544.778 224.148 544.778 224.148 544.734H224.191Z" fill="white"/>
<path d="M314.121 518.582C314.121 518.582 314.078 518.67 314.034 518.714C314.034 518.714 314.034 518.626 314.078 518.582H314.121Z" fill="white"/>
<path d="M284.611 520.021C284.611 520.021 284.479 520.152 284.436 520.239C284.348 520.327 284.217 520.414 284.13 520.545C284.261 520.283 284.436 520.109 284.611 520.021Z" fill="white"/>
<path d="M219.047 442.656C219.047 442.656 219.003 442.656 218.96 442.699C218.96 442.699 218.96 442.699 219.003 442.699L219.047 442.656Z" fill="white"/>
<path d="M338.314 593.68L338.4 593.594C338.4 593.594 338.4 593.637 338.4 593.68C338.4 593.68 338.4 593.68 338.357 593.68H338.314Z" fill="white"/>
<path d="M62.9906 560.643C62.9906 560.643 62.9028 560.556 62.9028 560.512C62.9028 560.556 62.9906 560.599 62.9906 560.643Z" fill="white"/>
<path d="M204.837 548.439C204.837 548.439 204.837 548.439 204.88 548.439C204.88 548.439 204.88 548.482 204.88 548.526C204.88 548.526 204.88 548.526 204.88 548.482L204.837 548.439Z" fill="white"/>
<path d="M239.972 655.791C239.972 655.791 239.972 655.791 240.014 655.834C240.014 655.834 240.014 655.834 239.972 655.791Z" fill="white"/>
<path d="M189.057 614.949C189.057 614.949 189.057 614.906 189.1 614.863C189.1 614.863 189.1 614.906 189.057 614.949Z" fill="white"/>
<path d="M303.659 598.561C303.659 598.343 303.833 598.126 304.139 597.951C303.965 598.126 303.79 598.343 303.659 598.561Z" fill="white"/>
<path d="M341.802 525.295C341.802 525.295 341.802 525.47 341.758 525.513C341.845 525.077 341.933 524.598 342.064 524.162C341.976 524.554 341.933 524.903 341.802 525.252V525.295Z" fill="white"/>
<path d="M206.101 668.43C205.142 666.686 203.224 666.032 201.873 664.768C200.739 663.94 199.301 664.202 198.124 663.679C196.293 663.243 194.854 661.717 192.806 661.805C191.411 661.412 190.8 662.284 190.888 663.374C191.062 665.858 190.103 668.081 189.885 670.435C189.798 671.611 187.749 673.921 191.149 674.227C191.716 674.27 191.149 675.055 191.149 675.491C190.975 677.713 193.459 681.549 195.203 682.508C196.38 683.162 197.644 681.898 197.819 682.203C199.693 685.428 202.657 683.641 204.88 683.554C211.376 683.249 213.904 680.329 211.245 674.27C210.242 671.96 209.501 668.866 206.101 668.43Z" fill="white"/>
<path d="M207.234 659.757C208.281 661.936 209.545 662.197 211.463 661.718C211.463 661.413 211.463 661.108 211.332 660.846C209.588 657.926 206.014 656.793 204.532 653.611C204.314 653.132 203.398 653.262 202.919 653.698C202.309 654.308 202.527 655.006 203.093 655.529C204.532 656.924 206.45 658.057 207.278 659.713L207.234 659.757Z" fill="white"/>
<path d="M211.506 661.719L211.463 661.762L211.506 661.719Z" fill="white"/>
<path d="M181.428 655.616C181.167 655.181 180.862 654.788 180.208 654.876C179.51 655.137 178.769 655.529 179.51 656.357C182.256 659.321 184.567 662.677 187.662 665.38C188.098 665.772 188.49 666.077 188.926 665.598C189.493 664.944 188.839 664.552 188.49 664.116C186.18 661.239 183.303 658.885 181.428 655.616Z" fill="white"/>
<path d="M143.983 646.201C142.762 648.729 140.931 650.734 142.283 653.349C143.111 654.918 144.767 654.7 146.25 654.57C146.86 652.565 144.593 651.214 144.985 649.252C144.68 648.381 144.419 647.509 143.983 646.201Z" fill="white"/>
<path d="M151.655 648.641C152.047 648.075 151.916 647.508 151.481 646.985C150.565 645.939 149.562 646.593 148.516 646.811C146.991 647.159 145.77 647.769 144.985 649.121C146.075 649.992 147.252 650.69 148.691 650.733C150.216 650.777 150.914 649.644 151.655 648.598V648.641Z" fill="white"/>
<path d="M146.249 654.526C145.726 655.572 144.985 656.226 143.765 656.357C142.98 656.444 141.498 656.139 141.76 657.359C141.978 658.536 143.416 658.187 144.331 657.926C145.596 657.577 146.555 656.662 147.47 655.747C147.862 655.354 147.906 654.788 147.557 654.396C147.121 653.829 146.685 654.308 146.293 654.526H146.249Z" fill="white"/>
<path d="M152.047 607.584C152.309 608.674 153.006 609.546 154.053 609.981C154.488 610.156 154.794 609.764 154.794 609.328C154.794 608.064 153.965 607.366 152.876 607.018C152.352 606.931 151.917 607.105 152.047 607.584Z" fill="white"/>
<path d="M182.126 662.59C180.077 661.152 178.551 659.321 177.679 656.924C177.548 655.529 178.551 654.526 178.9 653.35C179.379 651.868 178.638 650.909 177.592 650.037C176.459 649.078 175.5 649.165 174.628 650.342C172.317 652.086 170.617 651.258 169.222 649.122C167.13 646.245 163.948 644.72 161.376 642.453C160.896 641.233 160.722 639.882 159.763 638.879C160.984 636.003 159.109 634.085 157.845 631.818C156.842 632.69 156.45 633.605 156.494 634.564C156.581 637.354 156.581 640.1 155.665 642.802C155.491 643.325 156.014 644.109 156.189 644.763C159.371 647.16 162.03 649.994 163.338 653.873C163.163 654.962 163.163 656.008 163.861 656.924C163.861 657.752 163.948 658.58 163.948 659.452C163.686 660.411 163.381 661.369 163.12 662.285C162.553 663.287 162.64 664.377 162.684 665.423C161.071 666.382 161.202 667.907 161.463 669.389C161.812 671.438 162.291 673.486 162.684 675.491C164.297 677.583 166.825 676.755 168.83 677.453C170.879 678.15 172.012 678.063 172.971 676.232C174.715 675.622 176.459 675.883 178.202 676.101C179.684 676.319 181.167 676.189 181.472 674.402C181.82 672.222 183.085 670.435 183.826 668.387C185.7 665.728 184.697 663.897 182.169 662.459L182.126 662.59Z" fill="white"/>
<path d="M199.126 86.8657C201.001 89.8295 214.688 99.0697 218.35 100.247C224.802 102.295 240.277 99.7671 246.641 97.1955C249.562 96.0187 251.828 89.4373 253.093 89.2193C259.718 90.2654 266.693 90.309 273.319 91.2679C278.027 91.9652 283.694 92.9241 288.315 93.7958C289.797 94.0574 293.458 94.5804 293.981 95.9315C289.274 118.422 284.348 140.999 278.942 163.359C255.839 259.073 227.33 352.826 190.669 443.92L203.442 446.84C209.937 431.498 216.258 416.025 222.012 400.334C247.818 329.856 266.301 256.458 284.696 183.757C288.402 169.199 292.63 140.999 300.782 129.449C307.669 119.773 316.213 124.567 318.393 134.941C320.311 144.05 318.611 156.69 317.347 165.974C314.034 189.684 308.323 213.177 304.618 236.844C292.586 313.511 285.83 388.348 286.484 465.8L297.817 468.415C297.861 376.58 309.631 284.658 324.888 193.738C329.291 167.63 332.822 130.582 341.365 106.349C342.019 104.474 342.978 102.295 345.289 102.513L392.586 109.748C395.419 104.169 397.424 98.2852 398.47 92.096C381.6 88.9142 364.295 86.6914 347.686 82.6379L346.073 80.0664L355.446 48.859C355.097 37.8754 361.679 25.3663 362.289 14.8186C362.333 13.7725 361.374 9.5883 360.807 9.02169C358.541 6.66806 334.783 1.61212 330.337 0.958338C326.98 0.43531 313.946 -1.00302 312.072 1.13268C311.026 2.30949 310.677 4.79388 310.372 6.40655C307.015 25.2791 305.272 44.5876 301.741 63.4166C300.389 70.6083 300.433 73.267 292.369 72.1773C285.394 71.2185 274.452 68.4726 267.565 66.5112C265.821 66.0318 257.975 63.591 257.19 63.1115C255.359 62.0219 257.277 57.1403 253.746 53.9585C246.903 47.8129 236.048 40.8392 226.807 39.7496C220.137 38.965 216.04 41.8853 210.286 43.8466C208.847 44.3261 206.842 43.6723 205.752 44.5004C205.098 44.9799 200.826 52.3023 199.693 54.0021C195.421 60.322 192.849 61.063 193.721 70.4339C193.808 71.3492 198.603 86.1248 199.039 86.8657H199.126ZM348.95 28.243C348.689 29.7249 347.599 29.6813 349.43 30.1172C350.433 30.3351 351.653 31.1196 351.784 31.0325C352.089 30.8145 351.609 29.5505 351.915 28.8968C353.963 24.2331 353.092 18.3054 354.487 13.1187C354.879 11.724 355.62 10.5908 357.146 11.4625C355.533 14.8186 357.146 19.0028 356.448 22.141C355.925 24.4074 353.222 30.2043 353.353 32.558C353.397 33.7784 354.879 34.7372 354.879 35.7833C354.792 39.706 346.727 58.012 345.114 63.8089C342.063 74.7489 339.796 87.258 337.181 98.5031C336.396 101.946 336.832 106.131 334.26 109.53C333.475 109.356 336.919 96.6725 337.137 95.0162C337.704 90.8756 337.137 80.0663 338.619 77.2333C339.491 75.6206 339.055 78.8459 340.188 74.0079C340.319 73.4849 341.976 73.9208 342.15 73.5285C342.673 72.1773 341.365 70.2596 341.54 68.2546C342.368 58.3607 348.122 45.9823 349.038 36.0012C349.299 33.3861 347.773 32.6015 347.773 29.7249C347.773 29.1583 348.253 26.6303 349.038 28.243H348.95ZM322.97 73.4849L324.888 72.6568C322.49 78.5844 321.531 83.9455 321.095 90.2218C320.877 93.6215 321.008 95.7136 320.616 99.6363C320.354 102.339 322.272 107.743 318 108.397C314.905 108.876 318 101.772 318 101.162C318.306 98.8518 318 96.1931 318.349 94.0138C319.526 87.1708 321.575 80.3279 322.926 73.4413L322.97 73.4849Z" fill="white"/>
<path d="M524.406 260.25C524.406 198.925 431.513 216.272 431.513 186.764C431.513 176.696 442.89 170.246 461.286 170.246C479.681 170.246 502.175 174.386 518.216 182.929L520.832 141.523C500.387 136.336 482.035 134.549 463.64 134.549C421.443 134.549 395.332 154.206 395.332 184.237C395.332 244.298 488.225 227.953 488.225 258.768C488.225 272.236 475.54 277.902 455.88 277.902C431.818 277.902 406.447 271.408 393.239 260.817C390.144 293.157 416.038 313.599 460.283 313.599C499.908 313.599 524.45 293.419 524.45 260.294L524.406 260.25Z" fill="white"/>
<path d="M546.856 260.293C546.856 294.203 559.542 313.598 589.533 313.598C612.026 313.598 625.757 299.651 631.206 282.042L629.898 309.719H674.405C667.692 300.653 660.194 277.117 660.194 250.966V245.779C660.194 219.627 667.692 196.091 674.405 187.025H616.254C622.967 196.048 630.465 219.627 630.465 245.779V247.609C630.465 266.744 620.613 279.166 603.569 279.166C586.525 279.166 576.673 266.744 576.673 247.609V245.779C576.673 219.627 584.171 196.091 590.884 187.025H532.646C539.141 196.048 546.856 219.627 546.856 245.779V260.293Z" fill="white"/>
<path d="M683.821 309.719H741.754C735.302 300.653 727.543 277.117 727.543 250.966V249.179C727.543 230.045 737.656 217.623 754.701 217.623C771.745 217.623 781.597 230.045 781.597 249.179V250.966C781.597 277.117 773.837 300.653 767.386 309.719H825.363C819.129 300.653 811.152 277.117 811.152 250.966V236.452C811.152 202.542 798.467 183.146 768.737 183.146C745.939 183.146 732.251 197.094 727.064 214.703L728.371 187.026H683.864C690.316 196.091 698.075 219.628 698.075 245.779V250.966C698.075 277.117 690.316 300.653 683.864 309.719H683.821Z" fill="white"/>
<path d="M889.529 315.168C916.207 315.168 930.68 295.728 933.775 278.948L932.206 309.719H976.713C971.046 299.608 963.243 267.049 963.243 223.812V216.054C963.243 177.001 969.476 140.258 973.836 130.146H919.259C924.664 139.474 931.683 168.197 932.729 207.773C926.757 194.087 913.592 181.621 892.101 181.621C860.279 181.621 836.479 208.296 836.479 249.702C836.479 291.108 859.277 315.168 889.529 315.168ZM900.122 215.792C918.736 215.792 931.944 228.737 931.944 248.394C931.944 268.052 918.736 280.997 900.122 280.997C880.462 280.997 868.039 268.052 868.039 248.394C868.039 228.737 880.462 215.792 900.122 215.792Z" fill="white"/>
<path d="M1042.93 232.093C1018.34 232.093 990.4 241.943 990.4 273.499C990.4 301.176 1011.11 314.644 1034.65 314.644C1054.31 314.644 1070.87 305.84 1077.89 288.798V309.763H1121.35C1115.12 300.697 1107.14 277.161 1107.14 251.009V232.137C1107.14 192.822 1091.88 182.188 1049.16 182.188C1033.38 182.188 1017.34 184.018 1002.08 187.113L995.631 223.855C1006.22 218.669 1027.45 214.005 1045.06 214.005C1067.56 214.005 1077.67 218.146 1077.67 236.8V238.849C1069.13 235.231 1055.92 232.137 1042.97 232.137L1042.93 232.093ZM1077.63 264.172C1076.84 276.071 1063.9 283.611 1045.54 283.611C1030.03 283.611 1021.48 277.379 1021.48 268.356C1021.48 258.027 1032.07 253.363 1046.59 253.363C1060.06 253.363 1071.7 256.24 1077.63 259.029V264.216V264.172Z" fill="white"/>
<path d="M1129.63 309.719H1188.39C1181.42 301.437 1173.4 280.211 1173.4 257.459V256.152C1173.4 235.449 1184.78 222.024 1201.86 222.024C1208.84 222.024 1215.81 224.334 1221.3 228.475L1226.49 185.5C1223.4 184.192 1218.21 183.189 1213.28 183.189C1190.01 183.189 1177.02 200.754 1172.66 221.24L1174.23 187.069H1129.72C1136.17 196.134 1143.93 219.671 1143.93 245.822V251.009C1143.93 277.16 1136.17 300.696 1129.72 309.762L1129.63 309.719Z" fill="white"/>
<path d="M1332.64 265.044H1332.68C1313.54 265.088 1292.32 271.059 1279.37 271.059C1270.82 271.059 1267.21 266.657 1267.21 261.47C1267.21 257.33 1269.52 253.451 1273.44 251.358C1281.2 253.668 1290.27 254.976 1300.12 254.976C1337.39 254.976 1361.45 237.411 1361.45 210.737C1361.45 191.864 1351.86 177.088 1335.3 169.069C1329.32 165.713 1327.01 161.31 1327.01 156.647C1327.01 151.199 1331.94 148.104 1338.17 148.104C1347.76 148.104 1356.57 151.983 1362.5 156.908L1363.02 121.953C1357.35 119.076 1346.98 117.027 1336.87 117.027C1318.25 117.027 1305.04 126.616 1305.04 143.702C1305.04 150.675 1307.66 156.908 1311.76 162.313C1307.88 161.79 1304.26 161.528 1300.12 161.528C1262.85 161.528 1238.78 180.662 1238.78 210.693C1238.78 223.376 1244.19 233.968 1254.04 241.726C1244.45 248.438 1238.78 259.291 1238.78 270.972C1238.78 289.583 1254.04 301.264 1275.53 301.264C1297.02 301.264 1315.11 295.031 1329.11 295.031C1336.08 295.031 1339.96 297.08 1339.96 303.051C1339.96 312.901 1326.01 319.875 1298.29 319.875C1270.56 319.875 1249.64 312.64 1238.22 303.313C1237.17 333.343 1264.37 349.906 1302.38 349.906C1340.4 349.906 1368.38 332.341 1368.38 300.218C1368.38 278.207 1355.17 265.001 1332.68 265.001L1332.64 265.044ZM1300.07 191.123C1318.69 191.123 1331.63 197.835 1331.63 210.78C1331.63 223.725 1318.69 231.483 1300.07 231.483C1281.46 231.483 1268.51 223.725 1268.51 210.78C1268.51 197.835 1281.72 191.123 1300.07 191.123Z" fill="white"/>
<path d="M1491.92 232.094C1491.92 192.779 1476.66 182.145 1433.99 182.145C1418.21 182.145 1402.17 183.975 1386.91 187.07L1380.46 223.812C1391.05 218.626 1412.28 213.962 1429.89 213.962C1452.38 213.962 1462.5 218.103 1462.5 236.757V238.806C1453.95 235.188 1440.74 232.094 1427.8 232.094C1403.21 232.094 1375.27 241.944 1375.27 273.5C1375.27 301.177 1395.98 314.645 1419.52 314.645C1439.18 314.645 1455.74 305.841 1462.76 288.799V309.763H1506.22C1499.99 300.698 1492.01 277.161 1492.01 251.01V232.137L1491.92 232.094ZM1462.45 264.173C1461.71 276.072 1448.72 283.612 1430.37 283.612C1414.85 283.612 1406.31 277.379 1406.31 268.357C1406.31 258.027 1416.9 253.364 1431.42 253.364C1444.89 253.364 1456.52 256.24 1462.45 259.03V264.216V264.173Z" fill="white"/>
<path d="M1598.07 309.719H1656C1649.77 300.653 1641.79 277.117 1641.79 250.966V236.452C1641.79 202.542 1629.1 183.146 1599.37 183.146C1576.58 183.146 1562.89 197.094 1557.7 214.703L1559.01 187.026H1514.5C1521 196.091 1528.71 219.628 1528.71 245.779V250.966C1528.71 277.117 1520.95 300.653 1514.5 309.719H1572.48C1566.03 300.653 1558.27 277.117 1558.27 250.966V249.179C1558.27 230.045 1568.38 217.623 1585.43 217.623C1602.47 217.623 1612.32 230.045 1612.32 249.179V250.966C1612.32 277.117 1604.56 300.653 1598.11 309.719H1598.07Z" fill="white"/>
<path d="M850.776 515.008C845.066 515.008 840.358 516.795 836.74 520.369C833.122 523.769 831.291 528.389 831.291 534.273C831.291 540.157 833.122 544.515 836.74 547.915C840.358 551.489 845.022 553.276 850.776 553.276C856.531 553.276 861.108 551.576 864.508 548.22C868.126 544.82 869.957 540.2 869.957 534.316C869.957 528.432 868.126 523.812 864.508 520.412C861.064 516.838 856.487 515.051 850.776 515.051V515.008Z" fill="white"/>
<path d="M918.954 399.245H945.85L934.69 380.023H417.738L445.811 425.483C447.336 425.135 449.342 424.83 451.826 424.655C454.311 424.306 457.057 424.132 460.152 424.132C464.729 424.132 469.132 424.83 473.317 426.268C477.72 427.706 481.512 430.103 484.782 433.503C488.225 436.685 490.972 441.174 493.108 446.884C494.372 449.891 495.331 453.378 495.985 457.344C493.718 462.836 491.495 467.761 489.359 472.033C487.092 476.871 484.607 480.576 481.905 483.278C479.245 485.937 476.194 487.288 472.75 487.288C470.266 487.288 467.868 486.678 465.601 485.414C463.509 484.193 461.286 482.101 459.019 479.268C456.927 476.391 454.529 472.338 451.87 466.977L437.834 473.689C441.452 482.929 445.462 491.167 449.865 498.271C454.268 505.202 459.019 510.737 464.163 514.834C469.525 518.757 475.409 520.718 481.905 520.718C487.223 520.718 491.713 519.367 495.374 516.708C498.992 513.831 502.349 510.04 505.4 505.202C508.626 500.233 511.765 494.349 514.86 487.549C517.737 481.317 520.134 476.435 522.009 472.817C524.101 469.069 526.106 466.41 528.024 464.798C529.942 463.011 531.948 462.095 534.04 462.095C536.307 462.095 538.443 463.098 540.317 465.059C542.41 466.846 544.328 469.723 546.028 473.645C546.987 475.825 547.946 478.353 548.905 481.273V537.498C543.935 536.496 538.879 535.929 533.735 535.929C521.878 535.929 512.724 538.806 506.229 544.516C499.734 550.4 496.508 558.071 496.508 567.485C496.508 576.9 499.646 585.312 505.967 591.545C512.244 597.777 520.57 600.916 530.901 600.916C539.881 600.916 547.51 598.78 553.787 594.509C559.89 590.411 564.554 584.876 567.824 577.946C569.436 574.503 570.657 570.929 571.442 567.224C573.011 568.183 574.58 569.142 576.106 570.188C589.096 579.254 600.474 591.763 610.195 607.628L622.226 600.916C618.39 592.722 613.464 584.702 607.318 576.856C601.389 569.185 594.545 562.212 586.699 556.022C582.557 552.841 578.286 549.92 573.796 547.392L572.052 529.871C568.434 493.346 568.347 456.603 571.834 420.079L573.796 399.332H679.505V449.63C679.113 448.714 678.764 447.799 678.372 446.927C675.32 439.997 671.397 433.939 666.602 428.752C662.025 423.391 656.881 419.294 651.171 416.461C645.46 413.454 639.227 411.928 632.557 411.928C622.618 411.928 614.815 414.718 609.061 420.209C603.351 425.57 600.474 433.024 600.474 442.7C600.474 450.894 602.958 457.65 607.928 463.011C613.072 468.372 619.959 471.03 628.547 471.03C637.134 471.03 642.975 468.633 647.16 463.839C651.345 459.001 653.437 453.422 653.437 447.015C653.437 445.707 653.307 444.443 653.132 443.223C655.922 444.225 658.494 445.881 660.892 448.366C664.902 452.288 668.433 458.085 671.484 465.756C674.71 473.253 677.5 482.363 679.767 493.041L704.091 508.819C711.719 500.625 719.261 492.867 726.715 485.544C734.343 478.048 741.972 471.118 749.6 464.71C752.347 462.357 755.093 460.047 757.883 457.824C756.357 463.708 755.224 469.723 754.483 475.955C753.742 482.014 753.306 488.552 753.306 495.482C753.306 508.296 755.006 520.326 758.449 531.571C761.893 542.598 765.904 552.884 770.481 562.299L784.517 557.243C782.425 550.836 780.681 544.952 779.373 539.591C778.196 534.055 777.368 528.738 776.802 523.551C776.409 518.408 776.235 512.96 776.235 507.25C776.235 495.482 777.76 483.888 780.812 472.512C784.038 460.918 788.528 450.153 794.282 440.128L762.765 414.718C756.837 418.292 756.226 422.214 750.123 426.486C744.195 430.757 740.185 435.246 734.43 439.867C728.72 444.312 725.189 448.932 720.22 453.77C717.822 456.08 706.532 469.2 704.352 471.51V399.506H894.019V409.269C883.906 412.451 873.793 423.435 863.68 427.837C852.782 432.501 844.02 437.557 833.689 443.048C823.401 448.584 812.024 447.276 803.262 453.509L821.309 492.257C831.988 494.218 842.102 497.312 851.648 501.627C861.195 505.725 869.87 511.173 877.716 517.929C885.737 524.554 892.711 532.704 898.596 542.511L916.338 552.928L918.91 552.405L916.469 499.448C915.684 482.581 915.728 465.713 916.512 448.889L918.866 399.463L918.954 399.245ZM548.077 566.047C545.984 570.885 543.325 574.241 540.056 576.203C536.83 578.164 533.386 579.166 529.768 579.166C525.932 579.166 522.881 578.164 520.614 576.203C518.347 574.416 517.17 571.757 517.17 568.183C517.17 564.609 518.391 561.776 520.875 559.64C523.36 557.679 527.153 556.72 532.34 556.72C538.486 556.72 544.371 557.374 550.082 558.638C549.602 561.427 548.948 563.911 548.12 566.091L548.077 566.047ZM544.633 443.876C541.407 437.818 537.963 433.459 534.345 430.801C530.901 427.924 527.109 426.529 522.881 426.529C519.655 426.529 516.56 427.575 513.726 429.711C510.893 431.672 508.06 434.767 505.182 438.995C504.529 435.377 503.788 431.978 502.829 428.883C500.91 421.953 497.859 416.069 493.674 411.231C489.49 406.262 483.866 402.339 476.761 399.463C476.543 399.375 476.325 399.288 476.107 399.201H548.905V423.26C548.905 428.098 548.992 433.154 549.21 438.472C549.602 443.615 549.951 448.802 550.343 453.988C550.431 454.686 550.474 455.427 550.561 456.124C548.512 451.417 546.551 447.276 544.589 443.789L544.633 443.876ZM894.063 510.301C890.968 504.678 887.437 499.666 883.47 495.22C877.193 488.29 870.305 482.581 862.851 478.135C857.359 474.735 851.866 471.946 846.374 469.81C850.646 466.803 855.179 463.969 859.974 461.311C866.469 457.737 873.052 454.511 879.721 451.678C884.691 449.543 889.486 447.625 894.019 445.881V510.301H894.063Z" fill="white"/>
<path d="M1299.16 379.936L1299.2 379.979H1299.25L1299.16 379.936Z" fill="white"/>
<path d="M1137.78 379.98L1135.52 365.248L1117.78 355.615L1115.77 356.4V376.188C1115.77 380.285 1115.94 385.166 1116.34 390.92C1116.47 392.096 1116.6 393.273 1116.69 394.406C1116.12 393.143 1115.51 391.966 1114.9 390.92C1112.81 386.997 1110.23 384.251 1107.14 382.638C1104.26 380.851 1100.86 379.98 1096.85 379.98H1077.5L1075.23 365.248L1057.49 355.615L1055.48 356.4V388.479C1055.48 393.84 1055.57 399.07 1055.79 404.257C1056.01 409.4 1056.27 414.325 1056.66 418.945C1056.75 420.035 1056.83 421.037 1056.92 422.083C1053.13 413.759 1048.81 406.611 1044.02 400.726C1037.52 392.532 1030.46 386.474 1022.83 382.551C1015.2 378.628 1007.1 376.667 998.509 376.667C986.303 376.667 974.533 381.026 963.287 389.743C952.214 398.504 943.147 411.928 936.085 430.103L965.292 452.288C968.91 448.191 973.225 444.792 978.195 442.133C983.164 439.474 988.003 438.123 992.798 438.123C997.593 438.123 1000.73 439.169 1002.82 441.305C1005.09 443.44 1006.27 446.361 1006.27 450.109C1006.27 455.993 1003.04 461.311 996.547 466.149C990.052 470.812 980.68 475.04 968.474 478.963L988.788 510.78C1000.21 505.637 1009.19 500.058 1015.68 494.174C1022.18 488.116 1026.76 481.796 1029.41 475.214C1032.29 468.415 1033.73 461.485 1033.73 454.38C1033.73 444.399 1030.68 436.118 1024.58 429.537C1018.65 422.737 1010.37 419.381 999.642 419.381C993.714 419.381 988.395 420.296 983.6 422.04C982.38 422.476 981.203 422.955 980.069 423.478C981.028 421.648 982.118 419.904 983.339 418.291C986.564 413.846 990.313 410.272 994.498 407.569C998.901 404.867 1003.57 403.559 1008.53 403.559C1014.07 403.559 1019.61 405.347 1025.14 408.921C1030.68 412.32 1036.22 417.986 1041.75 426.006C1046.42 432.544 1050.91 441.043 1055.22 451.417V545.78L1077.85 555.412L1080.11 554.889L1076.19 508.122C1074.01 482.144 1074.27 455.949 1076.93 430.016L1080.11 399.027H1101.73C1105.35 399.027 1108.32 400.901 1110.58 404.649C1112.85 408.397 1114.42 413.018 1115.16 418.553V545.823L1138.05 555.456L1140.05 554.933L1135.78 500.145C1133.82 474.996 1134.25 449.673 1137.13 424.611L1140.05 399.07H1256.57V450.153C1256.57 455.121 1256.66 460.482 1256.88 466.192C1257.18 470.507 1257.44 474.648 1257.75 478.788C1255.39 471.597 1252.26 464.885 1248.33 458.695C1244.89 452.811 1240.79 447.668 1236.04 443.179C1231.29 438.733 1225.79 435.246 1219.74 432.762C1213.63 430.278 1206.96 429.014 1199.68 429.014C1189.35 429.014 1180.81 432.021 1173.92 438.079C1167.03 444.138 1163.63 452.724 1163.63 463.751C1163.63 473.384 1166.6 481.404 1172.48 487.811C1178.59 494.218 1186.61 497.443 1196.54 497.443C1203.04 497.443 1208.4 496.179 1212.59 493.695C1216.99 491.036 1220.22 487.636 1222.31 483.539C1224.62 479.268 1225.75 474.648 1225.75 469.635C1225.75 469.112 1225.71 468.633 1225.66 468.11C1228.58 468.851 1231.29 470.246 1233.77 472.338C1237.78 475.345 1241.31 479.573 1244.36 484.934C1247.42 490.077 1250.08 495.961 1252.39 502.586C1254.65 508.993 1256.57 515.575 1258.1 522.374C1259.84 528.999 1261.06 535.188 1261.8 541.116L1278.98 553.146L1281.24 552.623L1277.93 509.08C1275.36 475.519 1276.1 441.828 1280.15 408.397L1281.29 399.114H1310.19L1299.33 379.892H1137.91L1137.78 379.98Z" fill="white"/>
</g>
<defs>
<clipPath id="clip0_239_650">
<rect width="1656" height="688" fill="white"/>
</clipPath>
</defs>
</svg>
